<svg width="280" height="205" viewBox="0 0 280 205" fill="none" xmlns="http://www.w3.org/2000/svg">
<path fill-rule="evenodd" clip-rule="evenodd" d="M48.5538 186.704L75.3386 180.685C78.9971 179.863 82.8033 179.923 86.4156 180.929C98.8739 184.396 112.573 184.364 126.155 179.911C154.97 170.463 174.29 142.157 172.661 111.876C170.244 66.9497 126.517 36.6499 83.4869 50.3756C54.6965 59.5591 35.1176 87.5667 36.4124 117.759C36.766 125.998 38.4998 133.729 41.3601 140.813C42.4674 143.554 42.9393 146.509 42.4584 149.427L37.9597 176.704C36.946 182.85 42.4757 188.07 48.5538 186.704Z" fill="white"/>
<path d="M48.5538 186.704L75.3386 180.685C78.9971 179.863 82.8033 179.923 86.4156 180.929C98.8739 184.396 112.573 184.364 126.155 179.911C154.97 170.463 174.29 142.157 172.661 111.876C170.244 66.9497 126.517 36.6499 83.4869 50.3756C54.6965 59.5591 35.1176 87.5667 36.4124 117.759C36.766 125.998 38.4998 133.729 41.3601 140.813C42.4674 143.554 42.9393 146.509 42.4584 149.427L37.9597 176.704C36.946 182.85 42.4757 188.07 48.5538 186.704" stroke="#2C2E2B"/>
<path fill-rule="evenodd" clip-rule="evenodd" d="M141.853 105.237C147.174 125.098 135.388 145.513 115.527 150.835C95.6656 156.156 75.2507 144.37 69.929 124.509C64.6072 104.648 76.3938 84.2327 96.2548 78.9109C116.116 73.5892 136.531 85.3757 141.853 105.237Z" fill="#F7A035" stroke="#2C2E2B"/>
<path fill-rule="evenodd" clip-rule="evenodd" d="M101.226 120.347C103.8 119.658 102.51 114.827 99.9319 115.518C97.3582 116.207 98.648 121.038 101.226 120.347Z" fill="#2C2E2B"/>
<path fill-rule="evenodd" clip-rule="evenodd" d="M113.226 118.347C115.8 117.658 114.51 112.827 111.932 113.518C109.358 114.207 110.648 119.038 113.226 118.347Z" fill="#2C2E2B"/>
<path d="M94.0001 129C99.5001 133.5 107.833 134 112.5 132C119.5 129 122 123 122.5 121" stroke="#2C2E2B" stroke-linecap="round"/>
<path d="M30.002 47.0039L40.002 56.0039" stroke="#2C2E2B" stroke-linecap="round"/>
<path d="M42.002 36.0039L45.1823 52.7337" stroke="#2C2E2B" stroke-linecap="round"/>
<path d="M20.0027 60.001L34.0027 62.0049" stroke="#2C2E2B" stroke-linecap="round"/>
</svg>
