<svg width="280" height="205" viewBox="0 0 280 205" fill="none" xmlns="http://www.w3.org/2000/svg">
<path fill-rule="evenodd" clip-rule="evenodd" d="M183.196 111.866L195.461 165.019C195.673 165.938 195.467 166.862 194.961 167.608C194.469 168.341 193.687 168.903 192.732 169.123L134.249 182.618C133.294 182.838 132.345 182.675 131.58 182.235C130.8 181.783 130.21 181.043 129.998 180.123L117.733 126.97C117.532 126.098 117.708 125.223 118.157 124.498C118.645 123.708 119.457 123.097 120.462 122.865L178.945 109.371C179.95 109.139 180.947 109.332 181.733 109.829C182.454 110.283 182.995 110.993 183.196 111.866Z" fill="#FF9954"/>
<path d="M183.196 111.866L195.461 165.019C195.673 165.938 195.467 166.862 194.961 167.608C194.469 168.341 193.687 168.903 192.732 169.123L134.249 182.618C133.294 182.838 132.345 182.675 131.58 182.235C130.8 181.783 130.21 181.043 129.998 180.123L117.733 126.97C117.532 126.098 117.708 125.223 118.157 124.498C118.645 123.708 119.457 123.097 120.462 122.865L178.945 109.371C179.95 109.139 180.947 109.332 181.733 109.829C182.454 110.283 182.995 110.993 183.196 111.866" stroke="#2C2E2B"/>
<path fill-rule="evenodd" clip-rule="evenodd" d="M132 182.444L153.007 144.22L153.98 142.448C154.689 141.16 156.414 140.757 157.609 141.601L159.249 142.764L194.681 167.818C194.2 168.608 193.397 169.215 192.408 169.446L134.75 182.901C133.757 183.132 132.776 182.941 132 182.444Z" fill="#FF9954" stroke="#2C2E2B"/>
<path fill-rule="evenodd" clip-rule="evenodd" d="M181.734 109.833L160.429 148.158L159.442 149.935C158.723 151.226 156.974 151.63 155.762 150.784L154.098 149.618L118.156 124.503C118.645 123.71 119.458 123.101 120.462 122.87L178.945 109.375C179.951 109.143 180.947 109.335 181.734 109.833Z" fill="#FFB99B"/>
<path d="M181.734 109.833L160.429 148.158L159.442 149.935C158.723 151.226 156.974 151.63 155.762 150.784L154.098 149.618L118.156 124.503C118.645 123.71 119.458 123.101 120.462 122.87L178.945 109.375C179.951 109.143 180.947 109.335 181.734 109.833" stroke="#2C2E2B"/>
<path fill-rule="evenodd" clip-rule="evenodd" d="M76.7378 107.174L91.6797 129.263C91.9382 129.645 92.0068 130.103 91.9072 130.533C91.8113 130.953 91.5536 131.347 91.1568 131.615L66.8525 148.056C66.4557 148.324 65.994 148.417 65.5675 148.351C65.1321 148.282 64.7332 148.048 64.4746 147.665L49.5325 125.576C49.2875 125.213 49.2136 124.783 49.2909 124.374C49.3749 123.927 49.6377 123.506 50.0554 123.224L74.3597 106.784C74.7774 106.501 75.2661 106.414 75.7119 106.502C76.1206 106.583 76.4925 106.811 76.7378 107.174Z" fill="#FF9954"/>
<path d="M76.7378 107.174L91.6797 129.263C91.9382 129.645 92.0068 130.103 91.9072 130.533C91.8113 130.953 91.5536 131.347 91.1568 131.615L66.8525 148.056C66.4557 148.324 65.994 148.417 65.5675 148.351C65.1321 148.282 64.7332 148.048 64.4746 147.665L49.5325 125.576C49.2875 125.213 49.2136 124.783 49.2909 124.374C49.3749 123.927 49.6377 123.506 50.0554 123.224L74.3597 106.784C74.7774 106.501 75.2661 106.414 75.7119 106.502C76.1206 106.583 76.4925 106.811 76.7378 107.174" stroke="#2C2E2B"/>
<path fill-rule="evenodd" clip-rule="evenodd" d="M65.0009 148.126L67.9785 127.042L68.1162 126.065C68.2169 125.355 68.9442 124.866 69.6456 125.037L70.6095 125.275L92.0012 130.306C91.9176 130.751 91.4173 131.473 90.9999 131.753L66.4999 148.126C66.0816 148.406 64.9999 148.501 65.0009 148.126Z" fill="#FF9954" stroke="#2C2E2B" stroke-width="0.8"/>
<path fill-rule="evenodd" clip-rule="evenodd" d="M75.7135 106.502L72.7352 127.731L72.5974 128.715C72.4968 129.43 71.7694 129.922 71.068 129.75L70.1041 129.51L49.292 124.374C49.3757 123.927 49.6395 123.506 50.057 123.224L74.361 106.784C74.7793 106.501 75.2672 106.413 75.7135 106.502Z" fill="#FFB99B" stroke="#2C2E2B" stroke-width="0.8"/>
<path fill-rule="evenodd" clip-rule="evenodd" d="M242.671 82.917L227.326 111.527C227.061 112.023 226.607 112.356 226.088 112.492C225.58 112.627 225.009 112.572 224.495 112.296L193.016 95.4133C192.502 95.1378 192.14 94.6928 191.97 94.1956C191.798 93.687 191.824 93.125 192.09 92.6296L207.434 64.0189C207.686 63.5493 208.108 63.2264 208.593 63.0778C209.121 62.9154 209.724 62.9602 210.265 63.2502L241.745 80.1334C242.286 80.4234 242.656 80.9008 242.814 81.431C242.958 81.9174 242.922 82.4474 242.671 82.917Z" fill="#FF9954" stroke="#2C2E2B"/>
<path fill-rule="evenodd" clip-rule="evenodd" d="M191.922 93.988L216.5 85.6181L217.64 85.2298C218.468 84.948 219.406 85.4413 219.612 86.2673L219.894 87.4028L225.994 111.91C225.465 112.064 224.863 112.016 224.325 111.733L192.983 95.2477C192.444 94.9642 192.076 94.5021 191.922 93.988Z" fill="#FF9954"/>
<path d="M191.922 93.988L216.5 85.6181L217.64 85.2298C218.468 84.948 219.406 85.4413 219.612 86.2673L219.894 87.4028L225.994 111.91C225.465 112.064 224.863 112.016 224.325 111.733L192.983 95.2477C192.444 94.9642 192.076 94.5021 191.922 93.988" stroke="#2C2E2B"/>
<path fill-rule="evenodd" clip-rule="evenodd" d="M242.815 81.4323L218.251 90.2435L217.112 90.6522C216.284 90.9489 215.342 90.4438 215.131 89.5898L214.843 88.4158L208.593 63.0785C209.122 62.9153 209.726 62.9617 210.266 63.2515L241.745 80.1344C242.287 80.4247 242.658 80.9009 242.815 81.4323Z" fill="#FFB99B"/>
<path d="M242.815 81.4323L218.251 90.2435L217.112 90.6522C216.284 90.9489 215.342 90.4438 215.131 89.5898L214.843 88.4158L208.593 63.0785C209.122 62.9153 209.726 62.9617 210.266 63.2515L241.745 80.1344C242.287 80.4247 242.658 80.9009 242.815 81.4323" stroke="#2C2E2B"/>
<path d="M60.4961 161.66L62.8932 155.503" stroke="#2C2E2B" stroke-linecap="round"/>
<path d="M53.3571 158.062L60.49 153.695" stroke="#2C2E2B" stroke-linecap="round"/>
<path d="M68.2035 164L66.6917 157.22" stroke="#2C2E2B" stroke-linecap="round"/>
<path fill-rule="evenodd" clip-rule="evenodd" d="M108.504 65.4176C108.394 65.448 108.264 65.4107 108.198 65.2827C106.164 61.4033 101.65 59.2289 97.1855 60.259C93.219 61.1742 90.3704 64.37 89.7035 68.1411C89.6327 68.5468 89.0572 68.568 88.9491 68.1705C88.7748 67.5366 88.614 66.8964 88.4649 66.2501C82.3576 39.7814 98.8564 13.3742 125.318 7.25391C96.9556 26.3279 106.598 59.7608 108.504 65.4176Z" fill="#FB5C6E"/>
<path d="M88.7207 66.1934L88.3309 66.2833L88.3309 66.2834L88.7207 66.1934ZM89.2022 68.1032L89.5881 67.9979L89.588 67.9973L89.2022 68.1032ZM89.3294 68.1953L89.3183 68.5952L89.3336 68.5956L89.349 68.5949L89.3294 68.1953ZM89.4403 68.0984L89.0465 68.0287L89.0462 68.03L89.4403 68.0984ZM97.1237 60.0037L97.0338 59.6139L97.0338 59.6139L97.1237 60.0037ZM107.818 64.1451L107.488 64.3711L108.201 64.0297L107.818 64.1451ZM105.294 41.3495L104.895 41.3183V41.3183L105.294 41.3495ZM88.6928 68.2434L89.0787 68.1383L89.0785 68.1375L88.6928 68.2434ZM88.206 66.3127L87.8162 66.4027L87.8162 66.4027L88.206 66.3127ZM125.258 6.99898L125.168 6.60918L125.168 6.60927L125.258 6.99898ZM125.561 7.15155L125.928 6.99288L125.928 6.99179L125.561 7.15155ZM125.466 7.47682L125.243 7.14464L125.242 7.1449L125.466 7.47682ZM105.824 41.3912L106.223 41.4225V41.4225L105.824 41.3912ZM108.754 65.3364L109.133 65.2094L109.133 65.2087L108.754 65.3364ZM108.737 65.5451L108.383 65.3576L108.383 65.3581L108.737 65.5451ZM108.574 65.6762L108.679 66.0621L108.681 66.0615L108.574 65.6762ZM107.962 65.4071L108.317 65.2241L108.316 65.2213L107.962 65.4071ZM97.2445 60.5203L97.1545 60.1306L97.1545 60.1306L97.2445 60.5203ZM89.9637 68.1905L89.5698 68.1208L89.5697 68.1217L89.9637 68.1905ZM89.3555 68.7247L89.3368 68.3252L89.3365 68.3252L89.3555 68.7247ZM123.88 7.4717C98.2129 14.1979 82.3268 40.262 88.3309 66.2833L89.1104 66.1035C83.2039 40.505 98.8328 14.8624 124.083 8.24557L123.88 7.4717ZM88.3309 66.2834C88.4826 66.9401 88.646 67.588 88.8165 68.2091L89.588 67.9973C89.4205 67.3872 89.2597 66.7499 89.1104 66.1034L88.3309 66.2834ZM88.8163 68.2084C88.8603 68.3698 88.9667 68.4832 89.092 68.5429C89.198 68.5934 89.2965 68.5946 89.3183 68.5952L89.3405 67.7955C89.3337 67.7953 89.3805 67.7942 89.436 67.8206C89.4675 67.8356 89.5024 67.8594 89.5326 67.8949C89.5631 67.9307 89.5799 67.9679 89.5881 67.9979L88.8163 68.2084ZM89.349 68.5949C89.4136 68.5917 89.5207 68.5755 89.6249 68.5028C89.7412 68.4216 89.8113 68.3 89.8345 68.1668L89.0462 68.03C89.0561 67.9731 89.0923 67.8989 89.1672 67.8466C89.2301 67.8028 89.2883 67.7969 89.3098 67.7958L89.349 68.5949ZM89.8342 68.1681C90.5146 64.322 93.411 61.2712 97.2137 60.3934L97.0338 59.6139C92.9182 60.5639 89.7827 63.8669 89.0465 68.0287L89.8342 68.1681ZM97.2136 60.3934C101.178 59.479 105.247 61.0998 107.488 64.3711L108.148 63.919C105.722 60.3766 101.319 58.6254 97.0338 59.6139L97.2136 60.3934ZM108.201 64.0297C107.039 60.1723 104.906 51.4335 105.693 41.3807L104.895 41.3183C104.098 51.5082 106.258 60.3536 107.435 64.2604L108.201 64.0297ZM105.693 41.3807C106.795 27.3131 113.022 16.1618 124.214 8.18435L123.749 7.53291C112.359 15.6517 106.015 27.0216 104.895 41.3183L105.693 41.3807ZM89.3224 68.3255C89.2033 68.3255 89.1108 68.2559 89.0787 68.1383L88.3069 68.3486C88.4338 68.8143 88.8424 69.1255 89.3224 69.1255V68.3255ZM89.0785 68.1375C88.9092 67.5211 88.7466 66.8764 88.5957 66.2228L87.8162 66.4027C87.9694 67.0666 88.1347 67.7219 88.3071 68.3494L89.0785 68.1375ZM88.5957 66.2228C82.5163 39.8753 99.0037 13.482 125.348 7.38869L125.168 6.60927C98.3931 12.8021 81.6375 39.6248 87.8162 66.4027L88.5957 66.2228ZM125.348 7.38878C125.285 7.40329 125.22 7.37098 125.194 7.31131L125.928 6.99179C125.799 6.69743 125.48 6.53746 125.168 6.60918L125.348 7.38878ZM125.194 7.31022C125.168 7.25134 125.188 7.18146 125.243 7.14464L125.688 7.809C125.956 7.62968 126.055 7.28591 125.928 6.99288L125.194 7.31022ZM125.242 7.1449C113.242 15.2157 106.57 26.7376 105.425 41.36L106.223 41.4225C107.349 27.0395 113.894 15.7409 125.689 7.80874L125.242 7.1449ZM105.425 41.36C104.52 52.9147 107.452 62.7253 108.375 65.4641L109.133 65.2087C108.226 62.5164 105.33 52.8234 106.223 41.4225L105.425 41.36ZM108.375 65.4633C108.363 65.4286 108.366 65.3904 108.383 65.3576L109.09 65.7327C109.176 65.5711 109.191 65.3819 109.133 65.2095L108.375 65.4633ZM108.383 65.3581C108.401 65.3244 108.431 65.3006 108.466 65.291L108.681 66.0615C108.856 66.0126 109.005 65.8941 109.09 65.7321L108.383 65.3581ZM108.468 65.2904C108.406 65.3074 108.347 65.2816 108.317 65.2241L107.606 65.5901C107.809 65.9845 108.253 66.1785 108.679 66.0621L108.468 65.2904ZM108.316 65.2213C106.204 61.1941 101.614 59.1016 97.1545 60.1306L97.3344 60.9101C101.443 59.9621 105.666 61.8909 107.608 65.5929L108.316 65.2213ZM97.1545 60.1306C93.2463 61.0326 90.269 64.1693 89.5698 68.1208L90.3576 68.2602C91.0009 64.6244 93.7391 61.7399 97.3344 60.9101L97.1545 60.1306ZM89.5697 68.1217C89.5488 68.241 89.4612 68.3193 89.3368 68.3252L89.3743 69.1243C89.8708 69.101 90.2721 68.7497 90.3577 68.2593L89.5697 68.1217ZM89.3365 68.3252C89.3316 68.3254 89.3268 68.3255 89.3224 68.3255V69.1255C89.3398 69.1255 89.3572 69.1251 89.3746 69.1243L89.3365 68.3252Z" fill="#2C2E2B"/>
<path fill-rule="evenodd" clip-rule="evenodd" d="M127.724 60.9726C127.603 61.0415 127.431 61.0171 127.352 60.8643C125.324 56.9838 120.838 54.8028 116.374 55.8329C111.908 56.8633 108.822 60.7912 108.698 65.1686C108.694 65.3026 108.606 65.3921 108.5 65.4197C106.595 59.7629 96.9525 26.33 125.315 7.25576L125.323 7.25391C125.329 7.25603 125.333 7.25841 125.335 7.26132C115.029 24.9246 126.509 57.6407 127.724 60.9726Z" fill="white" stroke="#2C2E2B"/>
<path fill-rule="evenodd" clip-rule="evenodd" d="M124.572 8.09009C113.233 16.0571 106.926 27.2557 105.819 41.3937C104.997 51.8867 107.362 60.9371 108.473 64.4878C108.885 60.1777 112.025 56.5676 116.311 55.5786C120.456 54.6229 124.713 56.3456 127.028 59.8079C125.924 56.5933 123.418 48.7182 121.945 39.5369C119.786 26.0805 120.67 15.5091 124.572 8.09009ZM108.501 65.6863C108.39 65.6863 108.287 65.6161 108.25 65.5062C107.327 62.7666 104.387 52.9284 105.294 41.3505C106.443 26.6785 113.129 15.134 125.168 7.03796C125.195 7.01995 125.225 7.0067 125.256 6.99955C125.308 6.98763 125.37 6.98975 125.42 7.00909C125.463 7.02577 125.511 7.06021 125.54 7.09544C125.61 7.18099 125.62 7.30098 125.564 7.39661C121.277 14.7433 120.237 25.5282 122.471 39.451C124.2 50.2287 127.357 59.1957 127.973 60.8838C128.017 61.0051 127.967 61.1405 127.855 61.2046C127.728 61.2771 127.575 61.296 127.436 61.2546C127.299 61.2141 127.185 61.1195 127.117 60.9887C125.096 57.1212 120.703 55.1078 116.434 56.0929C112.159 57.0793 109.087 60.8152 108.963 65.178C108.957 65.4167 108.798 65.6177 108.568 65.6779C108.545 65.6837 108.523 65.6863 108.501 65.6863Z" fill="#2C2E2B"/>
<path fill-rule="evenodd" clip-rule="evenodd" d="M146.79 56.5776C146.702 56.5749 146.616 56.5288 146.565 56.4322C144.534 52.5522 140.032 50.3749 135.567 51.4053C131.101 52.4357 127.988 56.3702 127.858 60.7486C127.855 60.8546 127.574 60.4584 127.5 60.5C126.286 57.1681 115.032 24.925 125.337 7.26172C142.63 18.8184 146.535 54.0928 146.79 56.5776Z" fill="#FB5C6E"/>
<path d="M146.79 56.5776L146.775 57.0774L147.345 57.0945L147.287 56.5267L146.79 56.5776ZM146.565 56.4322L147.009 56.2013L147.008 56.2002L146.565 56.4322ZM135.567 51.4053L135.679 51.8925L135.68 51.8925L135.567 51.4053ZM127.858 60.7486L128.358 60.7649L128.358 60.7634L127.858 60.7486ZM127.5 60.5L127.03 60.6712C127.08 60.8089 127.188 60.9176 127.326 60.9687C127.463 61.0197 127.616 61.008 127.744 60.9365L127.5 60.5ZM125.337 7.26172L125.615 6.84601L125.173 6.55071L124.905 7.00975L125.337 7.26172ZM146.805 56.0778C146.844 56.079 146.886 56.09 146.926 56.1146C146.967 56.1399 146.994 56.1728 147.009 56.2013L146.122 56.663C146.259 56.9256 146.512 57.0694 146.775 57.0774L146.805 56.0778ZM147.008 56.2002C144.873 52.1219 140.144 49.8357 135.455 50.9181L135.68 51.8925C139.919 50.914 144.195 52.9825 146.122 56.6641L147.008 56.2002ZM135.455 50.9181C130.765 52.0001 127.494 56.1307 127.358 60.7339L128.358 60.7634C128.481 56.6097 131.438 52.8712 135.679 51.8925L135.455 50.9181ZM127.359 60.7324C127.36 60.6991 127.366 60.5774 127.459 60.4573C127.51 60.3903 127.582 60.3344 127.668 60.3005C127.751 60.2681 127.827 60.2639 127.882 60.2681C127.983 60.2756 128.052 60.3126 128.07 60.3226C128.096 60.3369 128.113 60.3498 128.117 60.3531C128.122 60.357 128.113 60.3493 128.061 60.2966C128.026 60.2617 127.964 60.1975 127.9 60.1468C127.871 60.1228 127.814 60.0798 127.741 60.047C127.69 60.024 127.482 59.9376 127.256 60.0635L127.744 60.9365C127.537 61.052 127.353 60.9689 127.332 60.9592C127.288 60.9397 127.266 60.92 127.273 60.9256C127.284 60.9342 127.305 60.9546 127.351 61.0003C127.378 61.0282 127.445 61.0971 127.506 61.1442C127.524 61.1583 127.553 61.1799 127.591 61.2004C127.62 61.2165 127.699 61.2571 127.807 61.2653C127.867 61.2698 127.947 61.2652 128.033 61.2314C128.122 61.1963 128.196 61.1383 128.25 61.0684C128.347 60.9425 128.356 60.8114 128.358 60.7649L127.359 60.7324ZM127.97 60.3288C127.368 58.6771 124.263 49.8175 122.593 39.1776C120.918 28.5094 120.71 16.1855 125.769 7.51369L124.905 7.00975C119.659 16.0011 119.925 28.6305 121.605 39.3326C123.289 50.0631 126.418 58.991 127.03 60.6712L127.97 60.3288ZM125.059 7.67743C133.549 13.3511 138.808 24.905 141.974 35.4652C145.131 45.9956 146.167 55.4001 146.292 56.6285L147.287 56.5267C147.159 55.2702 146.115 45.7951 142.932 35.178C139.758 24.5906 134.418 12.729 125.615 6.84601L125.059 7.67743Z" fill="#2C2E2B"/>
<path fill-rule="evenodd" clip-rule="evenodd" d="M125.427 7.64062C121.259 14.9812 120.266 25.6811 122.475 39.4495C123.996 48.9275 126.621 57.0066 127.651 59.9645C128.105 55.6973 131.243 52.1317 135.509 51.1469C139.769 50.1636 144.146 52.0009 146.42 55.6422C146.077 52.7788 144.925 44.4828 142.201 35.3977C138.13 21.8157 132.487 12.4792 125.427 7.64062ZM127.728 61.2371C127.697 61.2371 127.666 61.2318 127.636 61.2206C127.563 61.1936 127.506 61.1359 127.479 61.0628C126.147 57.4093 114.768 24.8539 125.11 7.12739C125.147 7.06435 125.208 7.01906 125.279 7.00263C125.351 6.98674 125.425 6.99998 125.486 7.04051C132.761 11.9026 138.556 21.3917 142.708 35.2447C145.905 45.9071 146.947 55.4921 147.055 56.5497C147.063 56.6258 147.038 56.7015 146.986 56.7574C146.933 56.813 146.86 56.8446 146.783 56.8414C146.591 56.8355 146.423 56.7277 146.332 56.5534C144.308 52.687 139.907 50.6747 135.629 51.6624C131.339 52.6523 128.254 56.3913 128.125 60.7555C128.119 60.9454 128.019 61.1126 127.858 61.2031C127.818 61.2257 127.773 61.2371 127.728 61.2371Z" fill="#2C2E2B"/>
<path fill-rule="evenodd" clip-rule="evenodd" d="M125.322 7.25206L125.339 7.24809C125.335 7.25233 125.333 7.25604 125.333 7.25922C125.331 7.25657 125.327 7.25418 125.322 7.25206Z" fill="white"/>
<path fill-rule="evenodd" clip-rule="evenodd" d="M125.332 7.52959C125.28 7.52959 125.229 7.51422 125.185 7.48505C125.1 7.43442 125.049 7.3395 125.056 7.23849C125.064 7.12264 125.147 7.0256 125.26 6.99909L125.277 6.99512C125.391 6.96913 125.508 7.01871 125.566 7.11866C125.614 7.19926 125.614 7.29682 125.572 7.37662C125.548 7.42964 125.505 7.47445 125.45 7.50202C125.412 7.52058 125.372 7.52959 125.332 7.52959Z" fill="#2C2E2B"/>
<path fill-rule="evenodd" clip-rule="evenodd" d="M184.342 44.1296C184.479 44.7211 184.604 45.3139 184.718 45.9072C184.797 46.3149 184.274 46.5424 184.023 46.2105C181.752 43.2081 177.851 41.6485 173.947 42.5493C169.482 43.5794 166.383 47.5108 166.255 51.8887C166.252 52.0392 166.142 52.1335 166.022 52.148C165.316 46.5501 159.491 11.9552 125.362 7.24586C151.834 1.15098 178.235 17.6609 184.342 44.1296Z" fill="#FB5C6E"/>
<path d="M184.342 44.1296C184.479 44.7211 184.604 45.3139 184.718 45.9072C184.797 46.3149 184.274 46.5424 184.023 46.2105C181.752 43.2081 177.851 41.6485 173.947 42.5493C169.482 43.5794 166.383 47.5108 166.255 51.8887C166.252 52.0392 166.142 52.1335 166.022 52.148C165.316 46.5501 159.491 11.9552 125.362 7.24586C151.834 1.15098 178.235 17.6609 184.342 44.1296" stroke="#2C2E2B"/>
<path fill-rule="evenodd" clip-rule="evenodd" d="M126.829 7.19616C134.132 8.41143 140.633 11.1153 146.171 15.244C151.002 18.845 155.134 23.5488 158.453 29.2249C163.579 37.9898 165.459 46.7856 166.087 50.7387C166.676 46.632 169.748 43.241 173.886 42.2861C177.768 41.3919 181.829 42.8667 184.234 46.0456C184.291 46.1211 184.361 46.0999 184.389 46.0879C184.421 46.0734 184.473 46.0366 184.457 45.9526C184.344 45.3643 184.219 44.7696 184.083 44.1843V44.184C178.128 18.3744 152.637 2.03868 126.829 7.19616ZM166.023 52.4103C165.892 52.4103 165.778 52.3125 165.761 52.1785C165.406 49.3641 163.796 39.4105 157.998 29.495C150.62 16.8774 139.628 9.47906 125.327 7.5057C125.201 7.48822 125.104 7.3828 125.099 7.25512C125.093 7.12745 125.179 7.01382 125.304 6.98521C151.872 0.868341 178.472 17.5033 184.602 44.0676V44.0673C184.738 44.6593 184.865 45.2606 184.979 45.8547C185.038 46.1591 184.889 46.4483 184.607 46.5742C184.322 46.7013 184.003 46.6184 183.813 46.3678C181.534 43.3548 177.686 41.9568 174.007 42.8049C169.727 43.7927 166.648 47.5304 166.521 51.894C166.516 52.1591 166.32 52.3766 166.055 52.4084C166.045 52.4097 166.034 52.4103 166.023 52.4103Z" fill="#2C2E2B"/>
<path fill-rule="evenodd" clip-rule="evenodd" d="M166.022 52.1444C165.921 52.1576 165.811 52.1142 165.752 52.0011C163.721 48.1211 159.22 45.9438 154.755 46.9739C150.291 48.004 147.193 51.9348 147.065 56.3128C147.06 56.4818 146.831 57 146.787 56.5745C146.532 54.0896 142.627 18.8151 125.334 7.25835C125.334 7.25517 125.336 7.25146 125.34 7.24722L125.362 7.24219C159.49 11.9515 165.316 46.5464 166.022 52.1444Z" fill="white"/>
<path d="M166.022 52.1444L166.087 52.6401L166.58 52.5752L166.518 52.0818L166.022 52.1444ZM165.752 52.0011L166.196 51.7704L166.195 51.7691L165.752 52.0011ZM147.065 56.3128L147.565 56.3292L147.565 56.3273L147.065 56.3128ZM146.787 56.5745L147.284 56.5235L146.787 56.5745ZM125.334 7.25835L124.849 7.37961L124.896 7.56683L125.057 7.67406L125.334 7.25835ZM125.34 7.24722L125.228 6.75983L125.08 6.79389L124.975 6.90525L125.34 7.24722ZM125.362 7.24219L125.43 6.74688L125.34 6.73437L125.25 6.75479L125.362 7.24219ZM165.957 51.6486C165.999 51.6431 166.046 51.6489 166.092 51.6713C166.141 51.6952 166.176 51.7328 166.196 51.7704L165.309 52.2317C165.473 52.5483 165.798 52.6782 166.087 52.6401L165.957 51.6486ZM166.195 51.7691C164.06 47.6909 159.333 45.4046 154.643 46.4867L154.868 47.4611C159.107 46.4829 163.382 48.5513 165.309 52.233L166.195 51.7691ZM154.643 46.4867C149.954 47.5687 146.7 51.6963 146.566 56.2982L147.565 56.3273C147.686 52.1734 150.628 48.4393 154.868 47.4611L154.643 46.4867ZM146.566 56.2963C146.567 56.2623 146.571 56.2694 146.554 56.3199C146.547 56.3383 146.54 56.3562 146.533 56.3713C146.525 56.3874 146.521 56.3944 146.521 56.3938C146.522 56.3932 146.525 56.3876 146.533 56.3787C146.54 56.3706 146.555 56.3531 146.58 56.3332C146.615 56.3051 146.775 56.1905 146.997 56.2594C147.202 56.3234 147.268 56.4886 147.276 56.5072C147.29 56.5431 147.288 56.5571 147.284 56.5235L146.29 56.6254C146.297 56.6982 146.312 56.7891 146.347 56.8774C146.375 56.9485 146.466 57.1418 146.7 57.2143C146.949 57.2919 147.139 57.1665 147.206 57.1133C147.281 57.0528 147.331 56.9829 147.36 56.9393C147.42 56.8458 147.467 56.7385 147.498 56.6497C147.526 56.5688 147.561 56.4478 147.565 56.3292L146.566 56.2963ZM147.284 56.5235C147.156 55.2671 146.112 45.7919 142.929 35.1748C139.755 24.5873 134.415 12.7256 125.612 6.84263L125.057 7.67406C133.546 13.3478 138.805 24.9017 141.971 35.4619C145.128 45.9925 146.164 55.397 146.29 56.6254L147.284 56.5235ZM125.819 7.13708C125.861 7.30334 125.806 7.43407 125.776 7.48929C125.746 7.54465 125.713 7.58008 125.705 7.58919L124.975 6.90525C124.963 6.9186 124.926 6.958 124.895 7.01707C124.863 7.076 124.807 7.21017 124.849 7.37961L125.819 7.13708ZM125.452 7.73461L125.474 7.72958L125.25 6.75479L125.228 6.75983L125.452 7.73461ZM125.294 7.73749C142.17 10.0663 152.04 19.7732 157.794 29.6124C163.556 39.4666 165.177 49.439 165.526 52.207L166.518 52.0818C166.161 49.2517 164.516 39.1278 158.657 29.1076C152.789 19.0726 142.682 9.12741 125.43 6.74688L125.294 7.73749Z" fill="#2C2E2B"/>
<path fill-rule="evenodd" clip-rule="evenodd" d="M126.367 7.66406C133.228 12.6899 138.721 21.962 142.703 35.2476C145.322 43.9836 146.495 51.9962 146.893 55.188C147.479 51.0747 150.554 47.6768 154.695 46.7209C158.972 45.7347 163.365 47.5894 165.631 51.259C165.081 47.5846 163.275 38.526 157.996 29.4989C150.798 17.1894 140.161 9.84747 126.367 7.66406ZM146.797 56.8414C146.791 56.8414 146.784 56.8411 146.778 56.8411C146.646 56.8364 146.537 56.7349 146.524 56.6033C146.416 55.5506 145.379 46.012 142.197 35.3965C138.08 21.6645 132.358 12.2724 125.188 7.48076C125.132 7.44368 125.093 7.38699 125.077 7.32236C125.057 7.23707 125.085 7.13589 125.144 7.07099C125.181 7.03099 125.228 7.00318 125.281 6.991C125.312 6.98384 125.366 6.97775 125.398 6.98173C133.285 8.07012 140.275 10.8511 146.172 15.2473C151.003 18.8483 155.135 23.5521 158.454 29.2282C164.303 39.2306 165.927 49.2735 166.285 52.1133C166.304 52.2576 166.202 52.3898 166.057 52.4089C165.835 52.4391 165.623 52.3273 165.518 52.1252C163.493 48.259 159.094 46.247 154.815 47.2339C150.535 48.2214 147.458 51.9589 147.33 56.3225C147.326 56.4684 147.267 56.6014 147.164 56.6973C147.066 56.7895 146.933 56.8414 146.797 56.8414Z" fill="#2C2E2B"/>
<path d="M184.501 46.5C181.001 66.5 165.501 108.5 152.001 122" stroke="#2C2E2B" stroke-linecap="round"/>
<path fill-rule="evenodd" clip-rule="evenodd" d="M34.6327 102.739C34.5879 102.772 34.522 102.778 34.4695 102.731C32.8593 101.319 30.4179 101.121 28.5627 102.376C26.9144 103.491 26.1769 105.45 26.5359 107.287C26.5751 107.485 26.316 107.596 26.1968 107.434C26.0058 107.175 25.8199 106.911 25.6382 106.642C18.1977 95.6427 21.0796 80.6955 32.0742 73.25C22.4906 86.9387 32.7687 100.493 34.6327 102.739Z" fill="#8D7FF1" stroke="#2C2E2B" stroke-width="0.8"/>
<path fill-rule="evenodd" clip-rule="evenodd" d="M42.6189 97.3243C42.576 97.377 42.4933 97.3961 42.4303 97.3404C40.8225 95.9268 38.393 95.7207 36.5378 96.9757C34.6817 98.2312 33.965 100.566 34.678 102.584C34.7 102.646 34.6754 102.702 34.6322 102.733C32.7683 100.488 22.4901 86.9333 32.0737 73.2443L32.0772 73.2422C32.0798 73.2422 32.0835 73.2435 32.0835 73.2435C30.489 83.1129 41.4791 96.0179 42.6189 97.3243Z" fill="white" stroke="#2C2E2B" stroke-width="0.8" stroke-linejoin="round"/>
<path fill-rule="evenodd" clip-rule="evenodd" d="M50.544 91.9694C50.5035 91.9837 50.456 91.9779 50.416 91.9424C48.8072 90.5298 46.3705 90.3285 44.5151 91.5835C42.659 92.839 41.9306 95.1813 42.6418 97.2013C42.6588 97.2503 42.6474 97.2948 42.6209 97.3271C41.4811 96.0205 30.4907 83.1158 32.0856 73.2461C42.0061 75.4769 49.9909 90.8807 50.544 91.9694Z" fill="#8D7FF1"/>
<path d="M50.544 91.9694C50.5035 91.9837 50.456 91.9779 50.416 91.9424C48.8072 90.5298 46.3705 90.3285 44.5151 91.5835C42.659 92.839 41.9306 95.1813 42.6418 97.2013C42.6588 97.2503 42.6474 97.2948 42.6209 97.3271C41.4811 96.0205 30.4907 83.1158 32.0856 73.2461C42.0061 75.4769 49.9909 90.8807 50.544 91.9694" stroke="#2C2E2B" stroke-width="0.8" stroke-linejoin="round"/>
<path fill-rule="evenodd" clip-rule="evenodd" d="M32.0782 73.2476L32.0854 73.2428C32.0843 73.2454 32.0838 73.2476 32.0846 73.2489C32.0832 73.2478 32.0811 73.2476 32.0782 73.2476Z" fill="white"/>
<path fill-rule="evenodd" clip-rule="evenodd" d="M32.0825 73.5128C32.0639 73.5128 32.0454 73.511 32.0271 73.507C31.9314 73.4892 31.8516 73.4195 31.8224 73.3238C31.7885 73.2124 31.8314 73.0916 31.9282 73.0266L31.9353 73.0218C32.0319 72.9566 32.1594 72.9624 32.2498 73.0356C32.3222 73.0939 32.3574 73.1846 32.3465 73.2737C32.3404 73.3344 32.3137 73.3927 32.2675 73.4378C32.2166 73.4874 32.1498 73.5128 32.0825 73.5128Z" fill="#2C2E2B"/>
<path fill-rule="evenodd" clip-rule="evenodd" d="M51.0962 69.7555C56.7639 71.0942 61.9643 74.4825 65.4842 79.6866C65.6506 79.9324 65.8119 80.1809 65.9682 80.4315C66.0762 80.6036 65.8776 80.7991 65.7049 80.6921C64.1408 79.7216 62.0872 79.6964 60.4645 80.7938C58.6093 82.0491 57.8864 84.3871 58.5984 86.4068C58.6233 86.476 58.5899 86.5382 58.5378 86.566C57.2311 84.1366 48.4901 69.3804 32.0938 73.2339C36.9363 69.9618 45.5 68.5 51.3152 69.8099" fill="#8D7FF1"/>
<path d="M51.0962 69.7555C56.7639 71.0942 61.9643 74.4825 65.4842 79.6866C65.6506 79.9324 65.8119 80.1809 65.9682 80.4315C66.0762 80.6036 65.8776 80.7991 65.7049 80.6921C64.1408 79.7216 62.0872 79.6964 60.4645 80.7938C58.6093 82.0491 57.8864 84.3871 58.5984 86.4068C58.6233 86.476 58.5899 86.5382 58.5378 86.566C57.2311 84.1366 48.4901 69.3804 32.0938 73.2339C36.9363 69.9618 45.5 68.5 51.3152 69.8099" stroke="#2C2E2B" stroke-width="0.8" stroke-linejoin="round"/>
<path fill-rule="evenodd" clip-rule="evenodd" d="M58.536 86.568C58.4926 86.5916 58.4346 86.5913 58.3877 86.55C56.7788 85.1374 54.3427 84.9356 52.4875 86.1908C50.632 87.4458 49.9102 89.7837 50.622 91.8031C50.6492 91.8813 50.6037 91.9496 50.5409 91.9713C49.9878 90.8827 42.003 75.4788 32.0825 73.2483C32.0817 73.247 32.082 73.2448 32.083 73.2422L32.0923 73.2358C48.4884 69.3824 57.2294 84.1386 58.536 86.568Z" fill="white"/>
<path d="M58.536 86.568C58.4926 86.5916 58.4346 86.5913 58.3877 86.55C56.7788 85.1374 54.3427 84.9356 52.4875 86.1908C50.632 87.4458 49.9102 89.7837 50.622 91.8031C50.6492 91.8813 50.6037 91.9496 50.5409 91.9713C49.9878 90.8827 42.003 75.4788 32.0825 73.2483C32.0817 73.247 32.082 73.2448 32.083 73.2422L32.0923 73.2358C48.4884 69.3824 57.2294 84.1386 58.536 86.568" stroke="#2C2E2B" stroke-width="0.8" stroke-linejoin="round"/>
<path d="M66 80.5C69 90.5 67.5 111.5 64 120.5" stroke="#2C2E2B" stroke-width="0.8" stroke-linecap="round"/>
<path d="M35 103C41.3778 107.901 55.9067 118.162 63 120" stroke="#2C2E2B" stroke-width="0.8" stroke-linecap="round"/>
<path d="M42.8032 96.7391C42.6591 96.5716 42.4066 96.5527 42.2391 96.6968C42.0716 96.8409 42.0527 97.0934 42.1968 97.2609L42.8032 96.7391ZM62.8514 119.871C63.0566 119.953 63.2893 119.854 63.3714 119.649C63.4534 119.443 63.3537 119.211 63.1486 119.129L62.8514 119.871ZM42.1968 97.2609C45.2783 100.842 49.9064 106.271 54.0132 110.903C56.0664 113.219 57.9928 115.339 59.5327 116.933C60.3022 117.729 60.9794 118.398 61.5299 118.894C61.805 119.143 62.0525 119.352 62.2671 119.514C62.4753 119.671 62.6753 119.801 62.8514 119.871L63.1486 119.129C63.0747 119.099 62.944 119.022 62.7488 118.875C62.5599 118.732 62.3314 118.54 62.0658 118.301C61.535 117.821 60.8722 117.167 60.1079 116.377C58.5801 114.796 56.6628 112.685 54.6118 110.372C50.5102 105.746 45.8884 100.325 42.8032 96.7391L42.1968 97.2609Z" fill="#2C2E2B"/>
<path d="M50.5 92C55.5 99.5 62.3 115.6 63.5 120" stroke="#2C2E2B" stroke-width="0.8" stroke-linecap="round"/>
<path d="M58 86C60.679 91.0498 65.5347 105.119 63.5255 121" stroke="#2C2E2B" stroke-width="0.8" stroke-linecap="round"/>
<path d="M89 68C100.333 82.9143 129.6 114.594 152 122" stroke="#2C2E2B" stroke-linecap="round"/>
<path d="M108.5 65C114 79.5 136.3 111.1 151.5 121.5" stroke="#2C2E2B" stroke-linecap="round"/>
<path d="M127 60C132.333 78.5 146 117.5 152 121.5" stroke="#2C2E2B" stroke-linecap="round"/>
<path d="M147 56.5C148.5 67.5 151.5 95.9 151.5 121.5" stroke="#2C2E2B" stroke-linecap="round"/>
<path d="M166 52C167 57.5 167.2 78.3 152 121.5" stroke="#2C2E2B" stroke-linecap="round"/>
<path d="M25.9327 107.02C33.9991 114 54.4991 119.5 64 121" stroke="#2C2E2B" stroke-width="0.8" stroke-linecap="round"/>
</svg>
