<svg width="280" height="205" viewBox="0 0 280 205" fill="none" xmlns="http://www.w3.org/2000/svg">
<path fill-rule="evenodd" clip-rule="evenodd" d="M161.48 108.588C160.969 108.748 160.678 109.286 160.824 109.798L162.358 115.169C162.475 115.59 162.186 116.012 161.756 116.048L156.063 116.565C155.574 116.605 155.189 117.01 155.17 117.505L154.912 123.818C154.897 124.217 154.54 124.519 154.142 124.473L147.975 123.739C147.46 123.679 146.992 124.026 146.892 124.528L145.852 129.827C145.777 130.232 145.366 130.483 144.97 130.36L139.857 128.786C139.398 128.647 138.904 128.854 138.688 129.284L135.552 135.502L135.284 135.354L129.972 132.367C129.562 132.134 129.04 132.232 128.735 132.589L124.715 137.352C124.455 137.652 123.997 137.682 123.711 137.403L119.613 133.48C119.249 133.133 118.676 133.117 118.294 133.445L113.889 137.201C113.575 137.463 113.106 137.404 112.874 137.066L109.631 132.385C109.352 131.981 108.806 131.847 108.365 132.078L104.581 134.066L103.08 134.851C102.724 135.037 102.291 134.884 102.128 134.519L99.791 129.201C99.588 128.74 99.075 128.506 98.595 128.654L93.028 130.377C92.654 130.489 92.258 130.27 92.158 129.895L91.056 125.728L91.053 125.72L90.628 124.107C90.504 123.63 90.052 123.321 89.568 123.378L83.412 124.075C82.985 124.119 82.621 123.772 82.643 123.343L83.003 117.257C83.032 116.728 82.635 116.27 82.103 116.22L76.255 115.704C75.834 115.667 75.547 115.264 75.645 114.851L77.167 108.709C77.293 108.192 76.994 107.675 76.487 107.527L71.184 105.976C70.923 105.896 70.748 105.687 70.692 105.442C70.669 105.309 70.685 105.161 70.746 105.028L73.176 99.7072C73.378 99.2632 73.229 98.7441 72.828 98.4771L67.797 95.1282C67.477 94.9112 67.394 94.4721 67.614 94.1601L71.019 89.2462C71.319 88.8152 71.23 88.2331 70.822 87.9111L66.277 84.3191C65.937 84.0471 65.926 83.5331 66.26 83.2532L70.879 79.3251C71.259 79.0021 71.337 78.4501 71.068 78.0372L67.876 73.1482C67.654 72.8142 67.762 72.3671 68.109 72.1712L72.776 69.5092C73.185 69.2761 73.373 68.7822 73.215 68.3362L71.18 62.3811C71.049 62.0051 71.266 61.6012 71.645 61.4902L77.209 59.9422C77.711 59.8032 78.022 59.2941 77.907 58.7831L76.621 52.9972C76.524 52.5722 76.846 52.1642 77.276 52.1542L82.975 52.0082C83.51 51.9951 83.938 51.5522 83.932 51.0142L83.87 45.0191C83.871 44.5932 84.246 44.2681 84.668 44.3321L90.48 45.2062C91.001 45.2822 91.495 44.9341 91.589 44.4162L92.789 38.1321C92.866 37.7101 93.314 37.4632 93.716 37.6142L99.368 39.8152C99.844 40.0002 100.388 39.7842 100.613 39.3191L103.24 33.8361C103.426 33.4562 103.899 33.3241 104.244 33.5591L109.244 36.8611C109.685 37.1531 110.283 37.0461 110.59 36.6121L114.102 31.7201C114.349 31.3751 114.852 31.3341 115.151 31.6381L119.007 35.5271C119.369 35.8931 119.958 35.9171 120.348 35.5861L124.993 31.6301C125.301 31.3641 125.776 31.4261 126.008 31.7651L129.27 36.4731C129.541 36.8681 130.063 37.0101 130.5 36.8031L135.82 34.2781C136.174 34.1111 136.597 34.2722 136.749 34.6321L138.85 39.5521C139.036 39.9921 139.512 40.2352 139.975 40.1242L145.845 38.7411C146.228 38.6511 146.609 38.9032 146.683 39.2922L147.645 44.4332C147.727 44.9022 148.135 45.2372 148.613 45.2361L154.985 45.2241C155.376 45.2291 155.689 45.5461 155.677 45.9411L155.51 51.3211C155.491 51.8291 155.855 52.2601 156.354 52.3261L162.47 53.1712C162.876 53.2281 163.143 53.6201 163.043 54.0201L161.727 59.4181C161.609 59.8871 161.857 60.3741 162.308 60.5611L167.799 62.8041C168.161 62.9562 168.331 63.3762 168.167 63.7341L165.828 68.8572C165.627 69.2952 165.772 69.8122 166.17 70.0852L171.07 73.3671C171.39 73.5851 171.474 74.0231 171.251 74.3401L167.925 79.0522C167.647 79.4482 167.698 79.9871 168.041 80.3251L172.549 84.7322C172.857 85.0331 172.819 85.5392 172.474 85.7872L167.809 89.1521C167.357 89.4762 167.27 90.1071 167.603 90.5491L171.148 95.1871C171.402 95.5221 171.3 95.9982 170.94 96.2082L165.94 99.0331C165.511 99.2822 165.33 99.8062 165.514 100.264L167.772 105.843C167.924 106.216 167.724 106.64 167.339 106.761L161.48 108.588Z" fill="#FFB99B"/>
<path fill-rule="evenodd" clip-rule="evenodd" d="M161.48 108.588C160.969 108.748 160.678 109.286 160.824 109.798L162.358 115.169C162.475 115.59 162.186 116.012 161.756 116.048L156.063 116.565C155.574 116.605 155.189 117.01 155.17 117.505L154.912 123.818C154.897 124.217 154.54 124.519 154.142 124.473L147.975 123.739C147.46 123.679 146.992 124.026 146.892 124.528L145.852 129.827C145.777 130.232 145.366 130.483 144.97 130.36L139.857 128.786C139.398 128.647 138.904 128.854 138.688 129.284L135.552 135.502L135.284 135.354L129.972 132.367C129.562 132.134 129.04 132.232 128.735 132.589L124.715 137.352C124.455 137.652 123.997 137.682 123.711 137.403L119.613 133.48C119.249 133.133 118.676 133.117 118.294 133.445L113.889 137.201C113.575 137.463 113.106 137.404 112.874 137.066L109.631 132.385C109.352 131.981 108.806 131.847 108.365 132.078L104.581 134.066L103.08 134.851C102.724 135.037 102.291 134.884 102.128 134.519L99.791 129.201C99.588 128.74 99.075 128.506 98.595 128.654L93.028 130.377C92.654 130.489 92.258 130.27 92.158 129.895L91.056 125.728L91.053 125.72L90.628 124.107C90.504 123.63 90.052 123.321 89.568 123.378L83.412 124.075C82.985 124.119 82.621 123.772 82.643 123.343L83.003 117.257C83.032 116.728 82.635 116.27 82.103 116.22L76.255 115.704C75.834 115.667 75.547 115.264 75.645 114.851L77.167 108.709C77.293 108.192 76.994 107.675 76.487 107.527L71.184 105.976C70.923 105.896 70.748 105.687 70.692 105.442C70.669 105.309 70.685 105.161 70.746 105.028L73.176 99.7072C73.378 99.2632 73.229 98.7441 72.828 98.4771L67.797 95.1282C67.477 94.9112 67.394 94.4721 67.614 94.1601L71.019 89.2462C71.319 88.8152 71.23 88.2331 70.822 87.9111L66.277 84.3191C65.937 84.0471 65.926 83.5332 66.26 83.2532L70.879 79.3251C71.259 79.0021 71.337 78.4502 71.068 78.0372L67.876 73.1482C67.654 72.8142 67.762 72.3672 68.109 72.1712L72.776 69.5092C73.185 69.2762 73.373 68.7822 73.215 68.3362L71.18 62.3811C71.049 62.0051 71.266 61.6012 71.645 61.4902L77.209 59.9422C77.711 59.8032 78.022 59.2941 77.907 58.7831L76.621 52.9972C76.524 52.5722 76.846 52.1642 77.276 52.1542L82.975 52.0082C83.51 51.9952 83.938 51.5522 83.932 51.0142L83.87 45.0191C83.871 44.5931 84.246 44.2681 84.668 44.3321L90.48 45.2062C91.001 45.2822 91.495 44.9342 91.589 44.4162L92.789 38.1321C92.866 37.7101 93.314 37.4632 93.716 37.6142L99.368 39.8152C99.844 40.0002 100.388 39.7841 100.613 39.3191L103.24 33.8361C103.426 33.4561 103.899 33.3241 104.244 33.5591L109.244 36.8611C109.685 37.1531 110.283 37.0461 110.59 36.6121L114.102 31.7201C114.349 31.3751 114.852 31.3341 115.151 31.6381L119.007 35.5271C119.369 35.8931 119.958 35.9171 120.348 35.5861L124.993 31.6301C125.301 31.3641 125.776 31.4261 126.008 31.7651L129.27 36.4731C129.541 36.8681 130.063 37.0101 130.5 36.8031L135.82 34.2781C136.174 34.1111 136.597 34.2721 136.749 34.6321L138.85 39.5521C139.036 39.9921 139.512 40.2352 139.975 40.1242L145.845 38.7411C146.228 38.6511 146.609 38.9032 146.683 39.2922L147.645 44.4332C147.727 44.9022 148.135 45.2371 148.613 45.2361L154.985 45.2241C155.376 45.2291 155.689 45.5461 155.677 45.9411L155.51 51.3211C155.491 51.8291 155.855 52.2601 156.354 52.3261L162.47 53.1712C162.876 53.2282 163.143 53.6201 163.043 54.0201L161.727 59.4181C161.609 59.8871 161.857 60.3741 162.308 60.5611L167.799 62.8041C168.161 62.9561 168.331 63.3761 168.167 63.7341L165.828 68.8572C165.627 69.2952 165.772 69.8122 166.17 70.0852L171.07 73.3671C171.39 73.5851 171.474 74.0231 171.251 74.3401L167.925 79.0522C167.647 79.4482 167.698 79.9871 168.041 80.3251L172.549 84.7322C172.857 85.0332 172.819 85.5392 172.474 85.7872L167.809 89.1521C167.357 89.4761 167.27 90.1071 167.603 90.5491L171.148 95.1871C171.402 95.5221 171.3 95.9982 170.94 96.2082L165.94 99.0331C165.511 99.2821 165.33 99.8062 165.514 100.264L167.772 105.843C167.924 106.216 167.724 106.64 167.339 106.761L161.48 108.588Z" stroke="#2C2E2B"/>
<path fill-rule="evenodd" clip-rule="evenodd" d="M88.28 151.639L76.594 164.235C76.182 164.679 75.45 164.561 75.198 164.011L66.401 144.78C66.094 144.108 65.532 143.587 64.839 143.331L44.556 135.844C43.99 135.635 43.816 134.919 44.222 134.474L70.692 105.445C70.748 105.69 70.924 105.899 71.184 105.979L76.488 107.53C76.994 107.678 77.293 108.195 77.167 108.711L75.645 114.854C75.547 115.267 75.834 115.669 76.256 115.707L82.103 116.223C82.635 116.272 83.032 116.731 83.004 117.26L82.643 123.346C82.621 123.775 82.986 124.121 83.412 124.077L89.568 123.38C90.052 123.324 90.504 123.633 90.629 124.109L91.053 125.722L91.056 125.73L88.28 151.639Z" fill="#E36A8E" stroke="#2C2E2B"/>
<path fill-rule="evenodd" clip-rule="evenodd" d="M129.217 182.109L109.501 170.95C109.075 170.709 108.569 170.649 108.098 170.783L86.2834 177.012C85.9254 177.114 85.5784 176.822 85.6184 176.452L88.2804 151.638L91.0564 125.73L92.1584 129.897C92.2594 130.272 92.6544 130.491 93.0294 130.379L98.5954 128.657C99.0744 128.508 99.5894 128.743 99.7914 129.203L102.129 134.521C102.291 134.886 102.724 135.039 103.08 134.853L104.581 134.067L108.365 132.08C108.806 131.849 109.352 131.983 109.631 132.387L112.874 137.067C113.106 137.406 113.575 137.465 113.889 137.203L118.294 133.447C118.676 133.119 119.249 133.135 119.613 133.482L123.711 137.405C123.997 137.684 124.455 137.654 124.715 137.354L128.736 132.591C129.04 132.234 129.562 132.136 129.972 132.369L135.284 135.356L129.996 181.712C129.954 182.085 129.544 182.294 129.217 182.109Z" fill="#FF90B2"/>
<path d="M129.217 182.109L109.501 170.95C109.075 170.709 108.569 170.649 108.098 170.783L86.2834 177.012C85.9254 177.114 85.5784 176.822 85.6184 176.452L88.2804 151.638L91.0564 125.73L92.1584 129.897C92.2594 130.272 92.6544 130.491 93.0294 130.379L98.5954 128.657C99.0744 128.508 99.5894 128.743 99.7914 129.203L102.129 134.521C102.291 134.886 102.724 135.039 103.08 134.853L104.581 134.067L108.365 132.08C108.806 131.849 109.352 131.983 109.631 132.387L112.874 137.067C113.106 137.406 113.575 137.465 113.889 137.203L118.294 133.447C118.676 133.119 119.249 133.135 119.613 133.482L123.711 137.405C123.997 137.684 124.455 137.654 124.715 137.354L128.736 132.591C129.04 132.234 129.562 132.136 129.972 132.369L135.284 135.356L129.996 181.712C129.954 182.085 129.544 182.294 129.217 182.109" stroke="#2C2E2B"/>
<path fill-rule="evenodd" clip-rule="evenodd" d="M159.642 87.8193C159.267 92.3593 158.114 96.9123 156.113 101.294C146.832 121.615 122.836 130.565 102.515 121.284C82.1936 112.004 73.2436 88.0073 82.5246 67.6873C91.8046 47.3663 115.802 38.4163 136.122 47.6963C148.228 53.2253 161.304 67.6873 159.642 87.8193Z" fill="#FF9954"/>
<path d="M159.642 87.8193L159.143 87.7782L159.642 87.8193ZM156.113 101.294L156.567 101.502L156.567 101.502L156.113 101.294ZM102.515 121.284L102.722 120.83L102.722 120.83L102.515 121.284ZM82.5246 67.6873L82.9794 67.8951L82.9794 67.895L82.5246 67.6873ZM136.122 47.6963L136.329 47.2415L136.329 47.2415L136.122 47.6963ZM159.143 87.7782C158.773 92.2615 157.634 96.758 155.658 101.087L156.567 101.502C158.593 97.0667 159.76 92.4572 160.14 87.8605L159.143 87.7782ZM155.658 101.087C146.491 121.156 122.792 129.996 102.722 120.83L102.307 121.739C122.879 131.135 147.172 122.074 156.567 101.502L155.658 101.087ZM102.722 120.83C82.6525 111.664 73.8131 87.9639 82.9794 67.8951L82.0698 67.4796C72.674 88.0508 81.7347 112.344 102.307 121.739L102.722 120.83ZM82.9794 67.895C92.1447 47.8252 115.845 38.9859 135.914 48.1512L136.329 47.2415C115.758 37.8468 91.4645 46.9074 82.0698 67.4796L82.9794 67.895ZM135.914 48.1512C147.875 53.614 160.785 67.9033 159.143 87.7782L160.14 87.8605C161.824 67.4714 148.58 52.8367 136.329 47.2415L135.914 48.1512Z" fill="#2C2E2B"/>
<path fill-rule="evenodd" clip-rule="evenodd" d="M128.256 79.7033C127.682 80.9593 127.088 82.2053 126.475 83.4433C125.86 84.6813 125.245 85.9183 124.632 87.1563C123.607 89.1843 122.628 91.2233 121.694 93.2683C120.759 95.3153 119.759 97.3433 118.694 99.3543C118.339 100.024 117.877 100.927 117.31 102.064C116.741 103.2 116.071 104.265 115.299 105.258C114.527 106.253 113.667 107.036 112.721 107.607C111.774 108.178 110.795 108.233 109.782 107.77C108.81 107.326 108.173 106.631 107.87 105.685C107.568 104.739 107.48 103.671 107.608 102.48C107.735 101.29 108.029 100.029 108.491 98.6973C108.952 97.3653 109.454 96.0783 109.999 94.8323C110.543 93.5873 111.075 92.4473 111.597 91.4123C112.118 90.3773 112.509 89.5773 112.769 89.0093C114.027 86.2543 115.294 83.5043 116.573 80.7573C117.852 78.0123 119.14 75.2713 120.44 72.5343C119.943 71.4753 119.689 70.3443 119.676 69.1383C119.664 67.9323 119.899 66.8033 120.38 65.7493C121.138 64.0893 122.281 62.8973 123.812 62.1753C125.34 61.4533 126.976 61.4903 128.719 62.2863C130.217 62.9713 131.134 64.0753 131.466 65.5973C131.799 67.1203 131.797 68.7603 131.46 70.5153C131.124 72.2723 130.62 73.9893 129.953 75.6663C129.284 77.3453 128.718 78.6903 128.256 79.7033Z" fill="white"/>
<path d="M178 126.113L181.131 139.986" stroke="#2C2E2B" stroke-width="0.8" stroke-linecap="round"/>
<path d="M182 120L191 128.5" stroke="#2C2E2B" stroke-width="0.8" stroke-linecap="round"/>
<path d="M186 115.219L199.523 116.498" stroke="#2C2E2B" stroke-width="0.8" stroke-linecap="round"/>
</svg>
