<svg width="0" height="0" class="hidden" xmlns="http://www.w3.org/2000/svg">
  <symbol id="arr-right" width="24" height="24" viewBox="0 0 24 24" fill="none" >
    <g opacity="0.2">
      <path d="M9 18L15 12L9 6" stroke="#2C2E2B" stroke-width="2" stroke-linecap="round" stroke-linejoin="round"/>
    </g>
  </symbol>
  <symbol fill="none" xmlns="http://www.w3.org/2000/svg" viewBox="0 0 16 16" id="facebook">
    <path d="M12 1.33337H9.99996C9.1159 1.33337 8.26806 1.68456 7.64294 2.30968C7.01782 2.93481 6.66663 3.78265 6.66663 4.66671V6.66671H4.66663V9.33337H6.66663V14.6667H9.33329V9.33337H11.3333L12 6.66671H9.33329V4.66671C9.33329 4.4899 9.40353 4.32033 9.52856 4.1953C9.65358 4.07028 9.82315 4.00004 9.99996 4.00004H12V1.33337Z" fill="#2C2E2B"></path>
  </symbol>
  <symbol id="menu-close" width="28" height="28" viewBox="0 0 28 28" fill="none" xmlns="http://www.w3.org/2000/svg">
    <path d="M17.3 10.7L10.7004 17.2996" stroke="#01AC6A" stroke-width="1.2" stroke-linecap="round" stroke-linejoin="round"/>
    <path d="M10.7 10.7L17.2996 17.2996" stroke="#01AC6A" stroke-width="1.2" stroke-linecap="round" stroke-linejoin="round"/>
    <rect x="0.5" y="0.5" width="27" height="27" rx="13.5" stroke="#01AC6A" stroke-opacity="0.1"/>
  </symbol>
  <symbol id="menu" width="28" height="28" viewBox="0 0 28 28" fill="none" xmlns="http://www.w3.org/2000/svg">
    <path d="M10 10.5C9.72386 10.5 9.5 10.7239 9.5 11C9.5 11.2761 9.72386 11.5 10 11.5V10.5ZM18 11.5C18.2761 11.5 18.5 11.2761 18.5 11C18.5 10.7239 18.2761 10.5 18 10.5V11.5ZM10 13.5C9.72386 13.5 9.5 13.7239 9.5 14C9.5 14.2761 9.72386 14.5 10 14.5V13.5ZM18 14.5C18.2761 14.5 18.5 14.2761 18.5 14C18.5 13.7239 18.2761 13.5 18 13.5V14.5ZM10 16.5C9.72386 16.5 9.5 16.7239 9.5 17C9.5 17.2761 9.72386 17.5 10 17.5V16.5ZM18 17.5C18.2761 17.5 18.5 17.2761 18.5 17C18.5 16.7239 18.2761 16.5 18 16.5V17.5ZM10 11.5H18V10.5H10V11.5ZM10 14.5H18V13.5H10V14.5ZM10 17.5H18V16.5H10V17.5Z" fill="#01AC6A"/>
    <rect x="0.5" y="0.5" width="27" height="27" rx="13.5" stroke="#01AC6A" stroke-opacity="0.1"/>
  </symbol>

  <symbol fill="none" xmlns="http://www.w3.org/2000/svg" viewBox="0 0 21 20" id="gift">
    <path d="M17.375 5.62381H14.6432C15.0499 5.12754 15.2503 4.49386 15.2028 3.85396C15.1553 3.21405 14.8636 2.61691 14.388 2.18614C13.9124 1.75538 13.2894 1.52397 12.6479 1.53983C12.0064 1.55569 11.3956 1.8176 10.9419 2.27134C10.7609 2.45993 10.6117 2.67657 10.5 2.91286C10.3882 2.67656 10.239 2.45991 10.058 2.2713C9.60431 1.81757 8.99349 1.55567 8.35202 1.53983C7.71055 1.52398 7.08755 1.75539 6.61197 2.18616C6.1364 2.61693 5.84467 3.21407 5.79717 3.85398C5.74968 4.49388 5.95005 5.12755 6.35682 5.62381H3.625C3.29359 5.62418 2.97587 5.756 2.74153 5.99034C2.50719 6.22468 2.37538 6.5424 2.375 6.87381V9.37381C2.37538 9.70521 2.50719 10.0229 2.74153 10.2573C2.97587 10.4916 3.29359 10.6234 3.625 10.6238V15.6238C3.62538 15.9552 3.7572 16.2729 3.99154 16.5073C4.22587 16.7416 4.5436 16.8734 4.875 16.8738H16.125C16.4564 16.8734 16.7741 16.7416 17.0085 16.5073C17.2428 16.2729 17.3746 15.9552 17.375 15.6238V10.6238C17.7064 10.6234 18.0241 10.4916 18.2585 10.2573C18.4928 10.0229 18.6246 9.70521 18.625 9.37381V6.87381C18.6246 6.5424 18.4928 6.22468 18.2585 5.99034C18.0241 5.756 17.7064 5.62418 17.375 5.62381ZM11.8258 3.15522C11.9418 3.0391 12.0796 2.94698 12.2313 2.88412C12.383 2.82126 12.5455 2.78889 12.7097 2.78887C12.8739 2.78885 13.0365 2.82117 13.1882 2.88399C13.3398 2.94681 13.4777 3.03889 13.5938 3.15498C13.7099 3.27108 13.8019 3.4089 13.8648 3.56059C13.9276 3.71227 13.9599 3.87485 13.9599 4.03903C13.9599 4.20321 13.9275 4.36578 13.8647 4.51745C13.8018 4.66912 13.7097 4.80693 13.5936 4.92299C13.2076 5.30902 12.0916 5.52579 11.1516 5.59716C11.223 4.65715 11.4398 3.54121 11.8258 3.15522ZM7.40636 3.15522C7.64097 2.92116 7.95885 2.78971 8.29026 2.7897C8.62166 2.7897 8.93954 2.92114 9.17416 3.1552C9.56021 3.54123 9.77696 4.65726 9.84837 5.59714C8.90836 5.52575 7.7924 5.30898 7.40643 4.92299C7.17237 4.68839 7.04091 4.37052 7.0409 4.03912C7.04089 3.70772 7.17231 3.38985 7.40636 3.15522ZM17.375 9.37381H11.125H9.875H3.625V6.87381H9.875V9.37381H11.125V6.87381H17.375V9.37381Z" fill="#01AC6A"></path>
    <path d="M9 14.8284L11.8284 12M11.8284 12L9 12.0003M11.8284 12L11.8284 14.8287" stroke="white" stroke-width="1.2" stroke-linecap="round" stroke-linejoin="round"></path>
  </symbol>

  <symbol fill="none" xmlns="http://www.w3.org/2000/svg" viewBox="0 0 16 16" id="instagram">
    <path d="M11.3334 1.33337H4.66671C2.82576 1.33337 1.33337 2.82576 1.33337 4.66671V11.3334C1.33337 13.1743 2.82576 14.6667 4.66671 14.6667H11.3334C13.1743 14.6667 14.6667 13.1743 14.6667 11.3334V4.66671C14.6667 2.82576 13.1743 1.33337 11.3334 1.33337Z" fill="#2C2E2B"></path>
    <path d="M10.6667 7.57996C10.7489 8.13479 10.6542 8.70143 10.3958 9.1993C10.1375 9.69717 9.72877 10.1009 9.22776 10.3531C8.72675 10.6052 8.15897 10.693 7.6052 10.6039C7.05143 10.5148 6.53985 10.2533 6.14323 9.85673C5.74662 9.46012 5.48516 8.94854 5.39605 8.39477C5.30694 7.84099 5.39472 7.27322 5.64689 6.77221C5.89907 6.27119 6.3028 5.86245 6.80066 5.60412C7.29853 5.34578 7.86518 5.25102 8.42001 5.33329C8.98596 5.41721 9.50991 5.68093 9.91447 6.08549C10.319 6.49006 10.5828 7.01401 10.6667 7.57996Z" stroke="#F8F8F8" stroke-width="1.5" stroke-linecap="round" stroke-linejoin="round"></path>
    <path d="M11.6666 4.33337H11.6733" stroke="#F8F8F8" stroke-width="1.5" stroke-linecap="round" stroke-linejoin="round"></path>
  </symbol>

  <symbol fill="none" xmlns="http://www.w3.org/2000/svg" viewBox="0 0 21 20" id="redeem">
    <path d="M18.0005 3.75H3.00046C2.66905 3.75038 2.35133 3.8822 2.11699 4.11654C1.88265 4.35087 1.75084 4.6686 1.75046 5V7.55753C1.75042 7.56058 1.75 7.56355 1.75 7.5666C1.75 7.56966 1.75042 7.57263 1.75046 7.57568V15C1.75084 15.3314 1.88265 15.6491 2.11699 15.8835C2.35133 16.1178 2.66905 16.2496 3.00046 16.25H18.0005C18.3319 16.2496 18.6496 16.1178 18.8839 15.8835C19.1183 15.6491 19.2501 15.3314 19.2505 15V5C19.2501 4.6686 19.1183 4.35087 18.8839 4.11654C18.6496 3.8822 18.3319 3.75038 18.0005 3.75ZM3.00046 6.9416V5H18.0005L18.0006 6.9416H3.00046Z" fill="#01AC6A"></path>
    <path d="M9 11.56L10.0769 12.6673L12.3333 9.33398" stroke="white" stroke-width="1.2" stroke-linecap="round"></path>
  </symbol>

  <symbol fill="none" xmlns="http://www.w3.org/2000/svg" viewBox="0 0 16 16" id="twitter">
    <path d="M15.3333 1.99999C14.6949 2.45031 13.988 2.79473 13.24 3.01999C12.8385 2.55833 12.3048 2.23112 11.7113 2.08261C11.1178 1.9341 10.493 1.97145 9.92135 2.18963C9.34974 2.4078 8.85892 2.79626 8.51528 3.30247C8.17164 3.80868 7.99176 4.40821 7.99996 5.01999V5.68666C6.82838 5.71703 5.66748 5.4572 4.62063 4.93029C3.57379 4.40338 2.6735 3.62575 1.99996 2.66666C1.99996 2.66666 -0.666707 8.66666 5.33329 11.3333C3.96031 12.2653 2.32473 12.7326 0.666626 12.6667C6.66663 16 14 12.6667 14 4.99999C13.9993 4.81429 13.9815 4.62905 13.9466 4.44666C14.627 3.77565 15.1072 2.92847 15.3333 1.99999Z" fill="#2C2E2B"></path>
  </symbol>

  <symbol fill="none" xmlns="http://www.w3.org/2000/svg" viewBox="0 0 119 16" id="logo">
    <path d="M8.38165 15.5C6.8041 15.5 5.37399 15.1823 4.09131 14.547C2.82337 13.8978 1.82082 13.0069 1.08364 11.8743C0.361215 10.7279 0 9.43646 0 8C0 6.56354 0.361215 5.27901 1.08364 4.14641C1.82082 3 2.82337 2.10912 4.09131 1.47376C5.37399 0.824586 6.81147 0.5 8.40376 0.5C9.74542 0.5 10.9544 0.720994 12.0307 1.16298C13.1217 1.60497 14.0358 2.24033 14.7729 3.06906L12.473 5.05801C11.4262 3.92541 10.1287 3.35912 8.58069 3.35912C7.62236 3.35912 6.76724 3.55939 6.01533 3.95994C5.26341 4.34668 4.67367 4.89226 4.24611 5.59668C3.8333 6.30111 3.62689 7.10221 3.62689 8C3.62689 8.89779 3.8333 9.6989 4.24611 10.4033C4.67367 11.1077 5.26341 11.6602 6.01533 12.0608C6.76724 12.4475 7.62236 12.6409 8.58069 12.6409C10.1287 12.6409 11.4262 12.0677 12.473 10.9213L14.7729 12.9102C14.0358 13.7528 13.1217 14.395 12.0307 14.837C10.9396 15.279 9.7233 15.5 8.38165 15.5Z" fill="#2C2E2B"></path>
    <path d="M24.3654 15.5C22.7584 15.5 21.3061 15.1754 20.0087 14.5262C18.726 13.8771 17.7161 12.9862 16.9789 11.8536C16.2565 10.7072 15.8953 9.42265 15.8953 8C15.8953 6.57735 16.2565 5.29972 16.9789 4.16713C17.7161 3.02072 18.726 2.12293 20.0087 1.47376C21.3061 0.824586 22.7584 0.5 24.3654 0.5C25.9724 0.5 27.4173 0.824586 28.7 1.47376C29.9826 2.12293 30.9926 3.02072 31.7297 4.16713C32.4669 5.29972 32.8355 6.57735 32.8355 8C32.8355 9.42265 32.4669 10.7072 31.7297 11.8536C30.9926 12.9862 29.9826 13.8771 28.7 14.5262C27.4173 15.1754 25.9724 15.5 24.3654 15.5ZM24.3654 12.6409C25.2795 12.6409 26.1051 12.4475 26.8423 12.0608C27.5795 11.6602 28.1545 11.1077 28.5673 10.4033C28.9948 9.6989 29.2086 8.89779 29.2086 8C29.2086 7.10221 28.9948 6.30111 28.5673 5.59668C28.1545 4.89226 27.5795 4.34668 26.8423 3.95994C26.1051 3.55939 25.2795 3.35912 24.3654 3.35912C23.4513 3.35912 22.6257 3.55939 21.8885 3.95994C21.1513 4.34668 20.569 4.89226 20.1414 5.59668C19.7286 6.30111 19.5222 7.10221 19.5222 8C19.5222 8.89779 19.7286 9.6989 20.1414 10.4033C20.569 11.1077 21.1513 11.6602 21.8885 12.0608C22.6257 12.4475 23.4513 12.6409 24.3654 12.6409Z" fill="#2C2E2B"></path>
    <path d="M35.528 0.748618H39.1107V15.2514H35.528V0.748618Z" fill="#2C2E2B"></path>
    <path d="M56.9825 0.748618V15.2514H54.0412L46.323 6.44613V15.2514H42.7846V0.748618H45.748L53.4441 9.55387V0.748618H56.9825Z" fill="#2C2E2B"></path>
    <path d="M65.7316 15.5C64.5079 15.5 63.3211 15.3481 62.1711 15.0442C61.0358 14.7265 60.1218 14.3191 59.4288 13.8218L60.6451 11.2942C61.3086 11.75 62.0974 12.116 63.0115 12.3923C63.9256 12.6685 64.8397 12.8066 65.7538 12.8066C66.771 12.8066 67.523 12.6685 68.0095 12.3923C68.496 12.1022 68.7393 11.7224 68.7393 11.2528C68.7393 10.9075 68.5919 10.6243 68.297 10.4033C68.0169 10.1685 67.6483 9.98204 67.1912 9.84392C66.7489 9.7058 66.1445 9.55387 65.3778 9.38812C64.1983 9.12569 63.2326 8.86326 62.4807 8.60083C61.7288 8.3384 61.0801 7.91713 60.5346 7.33702C60.0038 6.75691 59.7384 5.98343 59.7384 5.01657C59.7384 4.17403 59.9817 3.41436 60.4682 2.73757C60.9548 2.04696 61.6846 1.50138 62.6576 1.10083C63.6454 0.700276 64.847 0.5 66.2624 0.5C67.2502 0.5 68.2159 0.610497 69.1595 0.831491C70.1031 1.05249 70.9287 1.37017 71.6364 1.78453L70.5306 4.33287C69.1005 3.5732 67.6704 3.19337 66.2403 3.19337C65.2377 3.19337 64.4932 3.3453 64.0067 3.64917C63.5349 3.95304 63.299 4.35359 63.299 4.85083C63.299 5.34807 63.5717 5.72099 64.1172 5.96961C64.6775 6.20442 65.5252 6.43923 66.6605 6.67403C67.84 6.93646 68.8056 7.19889 69.5576 7.46133C70.3095 7.72376 70.9508 8.13812 71.4816 8.70442C72.0271 9.27072 72.2998 10.0373 72.2998 11.0041C72.2998 11.8329 72.0492 12.5925 71.5479 13.2831C71.0614 13.9599 70.3242 14.4986 69.3364 14.8992C68.3486 15.2997 67.147 15.5 65.7316 15.5Z" fill="#2C2E2B"></path>
    <path d="M84.943 12.1436H77.7555L76.3844 15.2514H72.7133L79.6132 0.748618H83.1517L90.0737 15.2514H86.3141L84.943 12.1436ZM83.8151 9.5953L81.3603 4.04282L78.9055 9.5953H83.8151Z" fill="#2C2E2B"></path>
    <path d="M105.721 0.748618L99.0201 15.2514H95.4817L88.8029 0.748618H92.6731L97.3836 11.1077L102.161 0.748618H105.721Z" fill="#2C2E2B"></path>
    <path d="M119 12.558V15.2514H107.014V0.748618H118.713V3.44199H110.574V6.59116H117.762V9.20166H110.574V12.558H119Z" fill="#2C2E2B"></path>
  </symbol>

  <symbol fill="none" xmlns="http://www.w3.org/2000/svg" viewBox="0 0 24 24" id="bitcoin">
    <rect width="24" height="24" rx="12" fill="#FF9D4D"></rect>
    <path d="M15.9466 9.30497C15.967 9.41638 15.9783 9.54411 15.9783 9.67477C15.9783 10.4645 15.5554 11.147 14.9418 11.4701L14.931 11.4754C15.4796 11.5909 15.9482 11.9018 16.284 12.338L16.2872 12.3421C16.5263 12.7294 16.6693 13.206 16.6693 13.7187C16.6693 13.868 16.6569 14.015 16.6338 14.1573L16.636 14.1421C16.6059 14.5295 16.5161 14.8864 16.3764 15.2136L16.384 15.1938C16.2593 15.486 16.0911 15.7339 15.8853 15.9387L15.8837 15.9404C15.6698 16.1434 15.4211 16.3096 15.1492 16.4263L15.132 16.4327C14.8622 16.5552 14.5458 16.6555 14.2175 16.7185L14.1901 16.7232C13.8644 16.785 13.4765 16.8299 13.0821 16.8486L13.0627 16.8492V18.9968H11.8693V16.8853C11.456 16.8853 11.1407 16.8826 10.9237 16.8772V18.9968H9.73026V16.8503C9.63712 16.8503 9.4976 16.849 9.31168 16.8463C9.12577 16.8435 8.98355 16.8422 8.88505 16.8422H7.33594L7.57612 15.3023H8.43584C8.44659 15.3035 8.45895 15.3041 8.47184 15.3041C8.69429 15.3041 8.87591 15.1133 8.88558 14.8742V14.873V11.4911H9.00917C8.97585 11.4859 8.93717 11.4824 8.89848 11.4824C8.89418 11.4824 8.88934 11.4824 8.88505 11.4824H8.88558V9.06815C8.8426 8.74093 8.58576 8.49187 8.27572 8.49187C8.24724 8.49187 8.21984 8.4942 8.19243 8.4977L8.19566 8.49712H7.33594V7.11707L8.97908 7.12523C9.30971 7.12523 9.56028 7.12251 9.73079 7.11707V4.99741H10.9242V7.07507C11.3476 7.06379 11.6628 7.05815 11.8699 7.05815V4.99683H13.0633V7.11648C13.4668 7.15206 13.837 7.21914 14.196 7.31713L14.1481 7.30605C14.4802 7.39763 14.772 7.52712 15.0412 7.69452L15.024 7.6846C15.2867 7.84501 15.5022 8.06665 15.6591 8.33321L15.6634 8.3408C15.8203 8.61611 15.9224 8.94508 15.9466 9.29739L15.9471 9.30438L15.9466 9.30497ZM14.2803 13.8902C14.2803 13.8838 14.2803 13.8762 14.2803 13.868C14.2803 13.679 14.2373 13.5017 14.1616 13.3454L14.1643 13.3512C14.0906 13.199 13.9945 13.0707 13.8795 12.9662L13.8779 12.9645C13.7505 12.8566 13.6028 12.7691 13.4426 12.7114L13.4324 12.7079C13.2943 12.6513 13.124 12.5976 12.9499 12.5568L12.9252 12.5521C12.7613 12.5171 12.5646 12.4903 12.3642 12.4775L12.3519 12.4769C12.1248 12.4601 11.9465 12.4518 11.8172 12.4518C11.6879 12.4518 11.5213 12.4545 11.3175 12.46C11.1137 12.4654 10.991 12.4681 10.9494 12.4681V15.3099C10.9906 15.3099 11.0863 15.3112 11.2364 15.314C11.3865 15.3167 11.5104 15.3181 11.6082 15.3181C11.706 15.3181 11.843 15.3138 12.0193 15.3052C12.1955 15.2967 12.3467 15.2854 12.4728 15.2714C12.5989 15.2574 12.7461 15.2337 12.9144 15.2002C13.081 15.1687 13.2256 15.1279 13.3653 15.076L13.3443 15.083C13.4883 15.027 13.6097 14.9675 13.7258 14.8987L13.7118 14.9063C13.8306 14.8398 13.9321 14.7552 14.017 14.6549L14.0176 14.6543C14.0949 14.5586 14.1589 14.4472 14.2051 14.3259L14.2078 14.3177C14.254 14.1952 14.2809 14.0535 14.2809 13.9048C14.2809 13.8995 14.2809 13.8943 14.2809 13.889V13.8896L14.2803 13.8902ZM13.7301 9.88534C13.7301 9.87892 13.7301 9.87134 13.7301 9.86375C13.7301 9.69285 13.6941 9.53128 13.6307 9.38663L13.6334 9.39304C13.5727 9.25539 13.4937 9.13873 13.3975 9.04016L13.397 9.03957C13.2916 8.941 13.1686 8.86167 13.0332 8.80918L13.0251 8.80626C12.9058 8.75318 12.7635 8.70477 12.6162 8.66977L12.5985 8.66627C12.4652 8.63711 12.3019 8.61378 12.1359 8.59978L12.1214 8.59861C11.9329 8.58189 11.783 8.57489 11.6716 8.57761C11.5602 8.58033 11.4207 8.58306 11.253 8.58578C11.0854 8.5885 10.9833 8.58986 10.9468 8.58986V11.1726L11.2143 11.1767C11.3669 11.1795 11.487 11.1795 11.5744 11.1767C11.6618 11.174 11.7907 11.1684 11.9612 11.1598C12.1165 11.154 12.2632 11.1371 12.4072 11.1102L12.3879 11.1132C12.5025 11.0906 12.6354 11.0595 12.7866 11.0198C12.9284 10.986 13.0542 10.9323 13.1686 10.8606L13.1622 10.8641C13.2702 10.7918 13.3642 10.7171 13.4512 10.6343L13.4485 10.6366C13.5404 10.5503 13.6119 10.4418 13.656 10.3181L13.6576 10.3129C13.7027 10.1892 13.7285 10.0457 13.7285 9.89584C13.7285 9.89175 13.7285 9.88767 13.7285 9.88359V9.88417L13.7301 9.88534Z" fill="white"></path>
  </symbol>

  <symbol fill="none" xmlns="http://www.w3.org/2000/svg" viewBox="0 0 40 40" id="etherium">
    <rect width="40" height="40" rx="20" fill="#275BEE"></rect>
    <path opacity="0.6" d="M19.9986 16.6804L12 20.3359L19.9986 25.0844L27.994 20.3359L19.9986 16.6804Z" fill="white"></path>
    <path d="M12 20.3359L19.9986 25.0844V7L12 20.3359Z" fill="white"></path>
    <path opacity="0.8" d="M20 7V25.0844L27.9954 20.3359L20 7Z" fill="white"></path>
    <path opacity="0.8" d="M20 26.608V33.1827L28.0017 21.8594L20 26.608Z" fill="white"></path>
    <path opacity="0.45" d="M12 21.8586L19.9986 33.182V26.6072L12 21.8586Z" fill="white"></path>
  </symbol>

  <symbol fill="none" xmlns="http://www.w3.org/2000/svg" viewBox="0 0 26 26" id="arrowDown">
    <path d="M17 11.25L12 16.25L7 11.25" stroke="#F7A035" stroke-width="1.5" stroke-linecap="round"></path>
  </symbol>

  <symbol fill="none" xmlns="http://www.w3.org/2000/svg" viewBox="0 0 12 12" id="check-green">
    <rect width="12" height="12" rx="6" fill="#01AC6A"></rect>
    <path d="M3.85742 6.71745L5.24204 8.14118L8.14314 3.85547" stroke="white" stroke-linecap="round"></path>
  </symbol>

  <symbol fill="none" xmlns="http://www.w3.org/2000/svg" viewBox="0 0 21 9" id="back-arrow">
    <path d="M0.646446 4.14644C0.451185 4.34171 0.451185 4.65829 0.646446 4.85355L3.82843 8.03553C4.02369 8.23079 4.34027 8.23079 4.53553 8.03553C4.7308 7.84027 4.7308 7.52369 4.53553 7.32843L1.70711 4.5L4.53553 1.67157C4.7308 1.47631 4.7308 1.15973 4.53553 0.964465C4.34027 0.769202 4.02369 0.769202 3.82843 0.964465L0.646446 4.14644ZM21 4L1 4L1 5L21 5L21 4Z" fill="black"></path>
  </symbol>

  <symbol xmlns="http://www.w3.org/2000/svg" viewBox="0 0 512.001 512.001" id="closedEye">
    <path d="M316.332 195.662c-4.16-4.16-10.923-4.16-15.083 0s-4.16 10.944 0 15.083c12.075 12.075 18.752 28.139 18.752 45.248 0 35.285-28.715 64-64 64-17.109 0-33.173-6.656-45.248-18.752-4.16-4.16-10.923-4.16-15.083 0-4.16 4.139-4.16 10.923 0 15.083 16.085 16.128 37.525 25.003 60.331 25.003 47.061 0 85.333-38.272 85.333-85.333 0-22.807-8.874-44.247-25.002-60.332zm-45.462-23.531c-4.843-.853-9.792-1.472-14.869-1.472-47.061 0-85.333 38.272-85.333 85.333 0 5.077.619 10.027 1.493 14.869.917 5.163 5.419 8.811 10.475 8.811.619 0 1.237-.043 1.877-.171 5.781-1.024 9.664-6.571 8.64-12.352-.661-3.627-1.152-7.317-1.152-11.157 0-35.285 28.715-64 64-64 3.84 0 7.531.491 11.157 1.131 5.675 1.152 11.328-2.859 12.352-8.64 1.024-5.781-2.858-11.328-8.64-12.352z"></path>
    <path d="M509.462 249.102c-2.411-2.859-60.117-70.208-139.712-111.445-5.163-2.709-11.669-.661-14.379 4.587-2.709 5.227-.661 11.669 4.587 14.379 61.312 31.744 110.293 81.28 127.04 99.371-25.429 27.541-125.504 128-230.997 128-35.797 0-71.872-8.64-107.264-25.707-5.248-2.581-11.669-.341-14.229 4.971-2.581 5.291-.341 11.669 4.971 14.229 38.293 18.496 77.504 27.84 116.523 27.84 131.435 0 248.555-136.619 253.483-142.443 3.369-3.969 3.348-9.793-.023-13.782zM325.996 118.947c-24.277-8.171-47.829-12.288-69.995-12.288-131.435 0-248.555 136.619-253.483 142.443-3.115 3.669-3.371 9.003-.597 12.992 1.472 2.112 36.736 52.181 97.856 92.779a10.48 10.48 0 005.888 1.792c3.435 0 6.827-1.664 8.875-4.8 3.264-4.885 1.92-11.52-2.987-14.763-44.885-29.845-75.605-65.877-87.104-80.533 24.555-26.667 125.291-128.576 231.552-128.576 19.861 0 41.131 3.755 63.189 11.157 5.589 2.005 11.648-1.088 13.504-6.699 1.878-5.589-1.109-11.626-6.698-13.504z"></path>
    <path d="M444.865 67.128c-4.16-4.16-10.923-4.16-15.083 0L67.116 429.795c-4.16 4.16-4.16 10.923 0 15.083a10.716 10.716 0 007.552 3.115c2.731 0 5.461-1.045 7.531-3.115L444.865 82.211c4.16-4.16 4.16-10.923 0-15.083z"></path>
  </symbol>

  <symbol xmlns="http://www.w3.org/2000/svg" viewBox="0 0 511.992 511.992" id="openedEye">
    <path d="M510.096 249.937c-4.032-5.867-100.928-143.275-254.101-143.275-131.435 0-248.555 136.619-253.483 142.443-3.349 3.968-3.349 9.792 0 13.781C7.44 268.71 124.56 405.329 255.995 405.329S504.549 268.71 509.477 262.886c3.094-3.669 3.371-8.981.619-12.949zM255.995 383.996c-105.365 0-205.547-100.48-230.997-128 25.408-27.541 125.483-128 230.997-128 123.285 0 210.304 100.331 231.552 127.424-24.534 26.645-125.291 128.576-231.552 128.576z"></path>
    <path d="M255.995 170.662c-47.061 0-85.333 38.272-85.333 85.333s38.272 85.333 85.333 85.333 85.333-38.272 85.333-85.333-38.272-85.333-85.333-85.333zm0 149.334c-35.285 0-64-28.715-64-64s28.715-64 64-64 64 28.715 64 64-28.715 64-64 64z"></path>
  </symbol>

</svg>
