<svg width="597" height="361" viewBox="0 0 597 361" fill="none" xmlns="http://www.w3.org/2000/svg">
<rect x="7" width="580" height="361" rx="24" fill="#016EAC" fill-opacity="0.1"/>
<path fill-rule="evenodd" clip-rule="evenodd" d="M59.7282 267.295H100.311V241.918H59.7282V267.295ZM100.765 268.204H59.2739C59.0234 268.204 58.82 268.001 58.82 267.75V241.466C58.82 241.215 59.0234 241.012 59.2739 241.012H100.765C101.016 241.012 101.219 241.215 101.219 241.466V267.75C101.219 268.001 101.016 268.204 100.765 268.204Z" fill="#2C2E2B"/>
<path fill-rule="evenodd" clip-rule="evenodd" d="M59.275 268.204H17.7839C17.5333 268.204 17.3299 268.001 17.3299 267.75V254.608C17.3299 254.358 17.5333 254.154 17.7839 254.154C18.0345 254.154 18.2379 254.358 18.2379 254.608V267.296H58.8211V241.92H33.5542C33.3036 241.92 33.1003 241.716 33.1003 241.466C33.1003 241.215 33.3036 241.012 33.5542 241.012H59.275C59.5256 241.012 59.729 241.215 59.729 241.466V267.75C59.729 268.001 59.5256 268.204 59.275 268.204Z" fill="#2C2E2B"/>
<path fill-rule="evenodd" clip-rule="evenodd" d="M102.08 294.489H75.6708C75.4197 294.489 75.2168 294.285 75.2168 294.035V267.751C75.2168 267.5 75.4197 267.297 75.6708 267.297H117.162C117.413 267.297 117.616 267.5 117.616 267.751V279.954C117.616 280.204 117.413 280.408 117.162 280.408C116.911 280.408 116.708 280.204 116.708 279.954V268.205H76.1247V293.581H102.08C102.33 293.581 102.534 293.784 102.534 294.035C102.534 294.285 102.33 294.489 102.08 294.489Z" fill="#2C2E2B"/>
<path fill-rule="evenodd" clip-rule="evenodd" d="M34.6348 293.583H75.218V268.207H34.6348V293.583ZM75.6717 294.489H34.1805C33.9295 294.489 33.7266 294.285 33.7266 294.035V267.751C33.7266 267.5 33.9295 267.297 34.1805 267.297H75.6717C75.9223 267.297 76.1256 267.5 76.1256 267.751V294.035C76.1256 294.285 75.9223 294.489 75.6717 294.489Z" fill="#2C2E2B"/>
<path fill-rule="evenodd" clip-rule="evenodd" d="M17.7838 268.205H4.45397C4.20338 268.205 4 268.001 4 267.751C4 267.5 4.20338 267.297 4.45397 267.297H17.7838C18.0344 267.297 18.2377 267.5 18.2377 267.751C18.2377 268.001 18.0344 268.205 17.7838 268.205Z" fill="#2C2E2B"/>
<path fill-rule="evenodd" clip-rule="evenodd" d="M44.0678 241.92C43.8172 241.92 43.6139 241.716 43.6139 241.466V232.454C43.6139 232.203 43.8172 232 44.0678 232C44.3184 232 44.5218 232.203 44.5218 232.454V241.466C44.5218 241.716 44.3184 241.92 44.0678 241.92Z" fill="#2C2E2B"/>
<path fill-rule="evenodd" clip-rule="evenodd" d="M84.9957 241.92C84.7451 241.92 84.5417 241.716 84.5417 241.466V232.454C84.5417 232.203 84.7451 232 84.9957 232C85.2463 232 85.4497 232.203 85.4497 232.454V241.466C85.4497 241.716 85.2463 241.92 84.9957 241.92Z" fill="#2C2E2B"/>
<path fill-rule="evenodd" clip-rule="evenodd" d="M91.7547 303.498C91.5042 303.498 91.3008 303.294 91.3008 303.044V294.032C91.3008 293.782 91.5042 293.578 91.7547 293.578C92.0053 293.578 92.2087 293.782 92.2087 294.032V303.044C92.2087 303.294 92.0053 303.498 91.7547 303.498Z" fill="#2C2E2B"/>
<path fill-rule="evenodd" clip-rule="evenodd" d="M49.8876 303.498C49.637 303.498 49.4336 303.294 49.4336 303.044V294.032C49.4336 293.782 49.637 293.578 49.8876 293.578C50.1381 293.578 50.3415 293.782 50.3415 294.032V303.044C50.3415 303.294 50.1381 303.498 49.8876 303.498Z" fill="#2C2E2B"/>
<path fill-rule="evenodd" clip-rule="evenodd" d="M34.1806 294.486H24.9188C24.6678 294.486 24.4648 294.283 24.4648 294.032C24.4648 293.782 24.6678 293.578 24.9188 293.578H34.1806C34.4312 293.578 34.6346 293.782 34.6346 294.032C34.6346 294.283 34.4312 294.486 34.1806 294.486Z" fill="#2C2E2B"/>
<path fill-rule="evenodd" clip-rule="evenodd" d="M111.843 241.92H100.766C100.515 241.92 100.312 241.716 100.312 241.466C100.312 241.215 100.515 241.012 100.766 241.012H111.843C112.093 241.012 112.296 241.215 112.296 241.466C112.296 241.716 112.093 241.92 111.843 241.92Z" fill="#2C2E2B"/>
<path fill-rule="evenodd" clip-rule="evenodd" d="M125.924 268.205H117.163C116.912 268.205 116.709 268.001 116.709 267.751C116.709 267.5 116.912 267.297 117.163 267.297H125.924C126.175 267.297 126.378 267.5 126.378 267.751C126.378 268.001 126.175 268.205 125.924 268.205Z" fill="#2C2E2B"/>
<path fill-rule="evenodd" clip-rule="evenodd" d="M522.728 88.2947H563.311V62.9184H522.728V88.2947ZM563.765 89.2043H522.274C522.023 89.2043 521.82 89.0009 521.82 88.7503V62.4661C521.82 62.2151 522.023 62.0122 522.274 62.0122H563.765C564.016 62.0122 564.219 62.2151 564.219 62.4661V88.7503C564.219 89.0009 564.016 89.2043 563.765 89.2043Z" fill="#2C2E2B"/>
<path fill-rule="evenodd" clip-rule="evenodd" d="M522.275 89.2041H480.784C480.533 89.2041 480.33 89.0007 480.33 88.7501V75.6082C480.33 75.3576 480.533 75.1543 480.784 75.1543C481.035 75.1543 481.238 75.3576 481.238 75.6082V88.2961H521.821V62.9199H496.554C496.304 62.9199 496.1 62.7165 496.1 62.4659C496.1 62.2153 496.304 62.0119 496.554 62.0119H522.275C522.526 62.0119 522.729 62.2153 522.729 62.4659V88.7501C522.729 89.0007 522.526 89.2041 522.275 89.2041Z" fill="#2C2E2B"/>
<path fill-rule="evenodd" clip-rule="evenodd" d="M565.08 115.489H538.671C538.42 115.489 538.217 115.285 538.217 115.035V88.7508C538.217 88.4998 538.42 88.2969 538.671 88.2969H580.162C580.413 88.2969 580.616 88.4998 580.616 88.7508V100.954C580.616 101.204 580.413 101.408 580.162 101.408C579.911 101.408 579.708 101.204 579.708 100.954V89.2048H539.125V114.581H565.08C565.33 114.581 565.534 114.784 565.534 115.035C565.534 115.285 565.33 115.489 565.08 115.489Z" fill="#2C2E2B"/>
<path fill-rule="evenodd" clip-rule="evenodd" d="M497.635 114.583H538.218V89.207H497.635V114.583ZM538.672 115.489H497.181C496.929 115.489 496.727 115.285 496.727 115.035V88.7508C496.727 88.4998 496.929 88.2969 497.181 88.2969H538.672C538.922 88.2969 539.126 88.4998 539.126 88.7508V115.035C539.126 115.285 538.922 115.489 538.672 115.489Z" fill="#2C2E2B"/>
<path fill-rule="evenodd" clip-rule="evenodd" d="M480.784 89.2048H467.454C467.203 89.2048 467 89.0014 467 88.7508C467 88.5003 467.203 88.2969 467.454 88.2969H480.784C481.034 88.2969 481.238 88.5003 481.238 88.7508C481.238 89.0014 481.034 89.2048 480.784 89.2048Z" fill="#2C2E2B"/>
<path fill-rule="evenodd" clip-rule="evenodd" d="M507.068 62.9196C506.817 62.9196 506.614 62.7162 506.614 62.4656V53.454C506.614 53.2034 506.817 53 507.068 53C507.318 53 507.522 53.2034 507.522 53.454V62.4656C507.522 62.7162 507.318 62.9196 507.068 62.9196Z" fill="#2C2E2B"/>
<path fill-rule="evenodd" clip-rule="evenodd" d="M547.996 62.9196C547.745 62.9196 547.542 62.7162 547.542 62.4656V53.454C547.542 53.2034 547.745 53 547.996 53C548.246 53 548.45 53.2034 548.45 53.454V62.4656C548.45 62.7162 548.246 62.9196 547.996 62.9196Z" fill="#2C2E2B"/>
<path fill-rule="evenodd" clip-rule="evenodd" d="M554.755 124.498C554.504 124.498 554.301 124.294 554.301 124.044V115.032C554.301 114.782 554.504 114.578 554.755 114.578C555.005 114.578 555.209 114.782 555.209 115.032V124.044C555.209 124.294 555.005 124.498 554.755 124.498Z" fill="#2C2E2B"/>
<path fill-rule="evenodd" clip-rule="evenodd" d="M512.888 124.498C512.637 124.498 512.434 124.294 512.434 124.044V115.032C512.434 114.782 512.637 114.578 512.888 114.578C513.138 114.578 513.342 114.782 513.342 115.032V124.044C513.342 124.294 513.138 124.498 512.888 124.498Z" fill="#2C2E2B"/>
<path fill-rule="evenodd" clip-rule="evenodd" d="M497.181 115.486H487.919C487.668 115.486 487.465 115.283 487.465 115.032C487.465 114.782 487.668 114.578 487.919 114.578H497.181C497.431 114.578 497.635 114.782 497.635 115.032C497.635 115.283 497.431 115.486 497.181 115.486Z" fill="#2C2E2B"/>
<path fill-rule="evenodd" clip-rule="evenodd" d="M574.843 62.9199H563.766C563.515 62.9199 563.312 62.7165 563.312 62.4659C563.312 62.2153 563.515 62.0119 563.766 62.0119H574.843C575.093 62.0119 575.296 62.2153 575.296 62.4659C575.296 62.7165 575.093 62.9199 574.843 62.9199Z" fill="#2C2E2B"/>
<path fill-rule="evenodd" clip-rule="evenodd" d="M588.924 89.2048H580.163C579.912 89.2048 579.709 89.0014 579.709 88.7508C579.709 88.5003 579.912 88.2969 580.163 88.2969H588.924C589.175 88.2969 589.378 88.5003 589.378 88.7508C589.378 89.0014 589.175 89.2048 588.924 89.2048Z" fill="#2C2E2B"/>
<g clip-path="url(#clip0_960_3196)">
<path d="M83 92C83 83.1634 90.1634 76 99 76H495C503.837 76 511 83.1634 511 92V361H83V92Z" fill="white"/>
<rect x="83" y="100" width="448" height="1" fill="#F0F0F0"/>
<path d="M83 80C83 77.7909 84.7909 76 87 76H527C529.209 76 531 77.7909 531 80V100H83V80Z" fill="white"/>
<circle cx="95" cy="88" r="4" fill="#FA625D"/>
<circle cx="107" cy="88" r="4" fill="#FCBE42"/>
<circle cx="119" cy="88" r="4" fill="#36CA4D"/>
</g>
<defs>
<clipPath id="clip0_960_3196">
<path d="M83 92C83 83.1634 90.1634 76 99 76H495C503.837 76 511 83.1634 511 92V361H83V92Z" fill="white"/>
</clipPath>
</defs>
</svg>
