<svg width="590" height="364" viewBox="0 0 590 364" fill="none" xmlns="http://www.w3.org/2000/svg">
<rect x="10" width="580" height="361" rx="24" fill="#F7A035" fill-opacity="0.1"/>
<path fill-rule="evenodd" clip-rule="evenodd" d="M553.898 87.4258C553.679 87.4258 553.477 87.2799 553.415 87.0583C551.958 81.7951 549.578 78.5857 546.343 77.5198C541.061 75.7794 535.142 80.3436 535.083 80.3897C534.883 80.5462 534.598 80.5291 534.419 80.3486C534.24 80.1691 534.223 79.8838 534.38 79.6848C534.439 79.6101 540.236 72.1784 538.882 67.3741C538.446 65.8263 537.331 64.7402 535.475 64.0543C530.252 62.125 523.935 68.5614 523.871 68.6265C523.72 68.783 523.485 68.8241 523.289 68.7273C523.094 68.6305 522.983 68.419 523.015 68.2039C523.757 63.2516 522.1 55.1611 518.044 50.1948C515.904 47.5735 513.392 46.1701 510.581 46.0227C501.422 45.5454 498.709 53.7522 498.598 54.1022C495.994 60.7577 496.477 68.5553 498.411 71.9814C498.514 72.1649 498.492 72.3945 498.354 72.5545C498.217 72.7149 497.993 72.7711 497.796 72.6964C497.719 72.6673 490 69.8048 484.545 73.4685C481.039 75.823 479.177 80.3541 479.01 86.9369C479.003 87.2137 478.77 87.4293 478.496 87.4253C478.219 87.4183 478 87.1881 478.007 86.9114C478.183 79.9821 480.195 75.1777 483.99 72.6327C488.64 69.5135 494.567 70.6948 497.02 71.3942C495.378 67.36 495.159 60.1404 497.653 53.7682C497.671 53.7071 500.688 44.499 510.633 45.0214C513.739 45.1839 516.494 46.7111 518.821 49.56C522.7 54.3092 524.475 61.7971 524.149 66.993C526.242 65.1554 531.252 61.425 535.822 63.1137C537.972 63.9079 539.326 65.2502 539.848 67.1033C540.875 70.7524 538.385 75.4891 536.653 78.1866C539.003 76.884 542.899 75.3312 546.652 76.5656C550.228 77.7419 552.829 81.1819 554.382 86.79C554.456 87.0573 554.299 87.3335 554.033 87.4072C553.988 87.4198 553.942 87.4258 553.898 87.4258Z" fill="#2C2E2B"/>
<path fill-rule="evenodd" clip-rule="evenodd" d="M502.92 75.7662C502.8 75.7662 502.679 75.723 502.583 75.6358C499.531 72.8611 495.813 72.1225 495.776 72.1155C495.505 72.0634 495.326 71.8006 495.378 71.5289C495.43 71.2571 495.693 71.0776 495.964 71.1303C496.127 71.1608 499.989 71.922 503.258 74.8937C503.463 75.0797 503.478 75.3971 503.291 75.6022C503.192 75.711 503.057 75.7662 502.92 75.7662Z" fill="#2C2E2B"/>
<path fill-rule="evenodd" clip-rule="evenodd" d="M563.917 87.4256H514.958C514.681 87.4256 514.456 87.201 514.456 86.9242C514.456 86.6474 514.681 86.4228 514.958 86.4228H563.917C564.193 86.4228 564.418 86.6474 564.418 86.9242C564.418 87.201 564.193 87.4256 563.917 87.4256Z" fill="#2C2E2B"/>
<path fill-rule="evenodd" clip-rule="evenodd" d="M498.119 87.4256H467.501C467.225 87.4256 467 87.201 467 86.9242C467 86.6474 467.225 86.4228 467.501 86.4228H498.119C498.396 86.4228 498.62 86.6474 498.62 86.9242C498.62 87.201 498.396 87.4256 498.119 87.4256Z" fill="#2C2E2B"/>
<g clip-path="url(#clip0_960_3173)">
<path d="M86 92C86 83.1634 93.1634 76 102 76H498C506.837 76 514 83.1634 514 92V361H86V92Z" fill="white"/>
<rect x="86" y="100" width="448" height="1" fill="#F0F0F0"/>
<path d="M86 80C86 77.7909 87.7909 76 90 76H530C532.209 76 534 77.7909 534 80V100H86V80Z" fill="white"/>
<circle cx="98" cy="88" r="4" fill="#FA625D"/>
<circle cx="110" cy="88" r="4" fill="#FCBE42"/>
<circle cx="122" cy="88" r="4" fill="#36CA4D"/>
</g>
<path fill-rule="evenodd" clip-rule="evenodd" d="M86.8983 288.426C86.6787 288.426 86.4771 288.28 86.4154 288.058C84.9579 282.795 82.5783 279.586 79.3428 278.52C74.0611 276.779 68.1421 281.344 68.083 281.39C67.8834 281.546 67.5981 281.529 67.4186 281.349C67.2396 281.169 67.2231 280.884 67.38 280.685C67.4387 280.61 73.2363 273.178 71.882 268.374C71.4458 266.826 70.3312 265.74 68.4746 265.054C63.2515 263.125 56.9345 269.561 56.8713 269.627C56.7199 269.783 56.4847 269.824 56.2887 269.727C56.0936 269.631 55.9828 269.419 56.0149 269.204C56.757 264.252 55.1004 256.161 51.0441 251.195C48.9037 248.574 46.3922 247.17 43.5809 247.023C34.4219 246.545 31.7089 254.752 31.5975 255.102C28.9938 261.758 29.4766 269.555 31.4105 272.981C31.5143 273.165 31.4917 273.395 31.3544 273.554C31.2165 273.715 30.9929 273.771 30.7958 273.696C30.7191 273.667 22.9996 270.805 17.5445 274.468C14.0387 276.823 12.1766 281.354 12.0096 287.937C12.0026 288.214 11.7704 288.429 11.4957 288.425C11.2189 288.418 11.0003 288.188 11.0073 287.911C11.1828 280.982 13.1954 276.178 16.9904 273.633C21.6404 270.514 27.5668 271.695 30.0202 272.394C28.3776 268.36 28.1585 261.14 30.6529 254.768C30.671 254.707 33.6884 245.499 43.633 246.021C46.7391 246.184 49.4938 247.711 51.8208 250.56C55.6995 255.309 57.475 262.797 57.1486 267.993C59.2424 266.155 64.2523 262.425 68.822 264.114C70.9715 264.908 72.3258 266.25 72.8477 268.103C73.8751 271.752 71.3846 276.489 69.6533 279.187C72.0029 277.884 75.8987 276.331 79.6521 277.566C83.2281 278.742 85.8288 282.182 87.3816 287.79C87.4558 288.057 87.2994 288.334 87.0326 288.407C86.9875 288.42 86.9424 288.426 86.8983 288.426Z" fill="#2C2E2B"/>
<path fill-rule="evenodd" clip-rule="evenodd" d="M35.9202 276.766C35.7998 276.766 35.6795 276.723 35.5832 276.636C32.5307 273.861 28.8134 273.123 28.7763 273.116C28.5045 273.063 28.326 272.801 28.3782 272.529C28.4303 272.257 28.6926 272.078 28.9638 272.13C29.1268 272.161 32.9885 272.922 36.2576 275.894C36.4627 276.08 36.4777 276.397 36.2912 276.602C36.1924 276.711 36.0565 276.766 35.9202 276.766Z" fill="#2C2E2B"/>
<path fill-rule="evenodd" clip-rule="evenodd" d="M96.9167 288.426H47.9576C47.6808 288.426 47.4562 288.201 47.4562 287.924C47.4562 287.647 47.6808 287.423 47.9576 287.423H96.9167C97.1934 287.423 97.4181 287.647 97.4181 287.924C97.4181 288.201 97.1934 288.426 96.9167 288.426Z" fill="#2C2E2B"/>
<path fill-rule="evenodd" clip-rule="evenodd" d="M31.119 288.426H0.501394C0.224624 288.426 0 288.201 0 287.924C0 287.647 0.224624 287.423 0.501394 287.423H31.119C31.3958 287.423 31.6204 287.647 31.6204 287.924C31.6204 288.201 31.3958 288.426 31.119 288.426Z" fill="#2C2E2B"/>
<defs>
<clipPath id="clip0_960_3173">
<path d="M86 92C86 83.1634 93.1634 76 102 76H498C506.837 76 514 83.1634 514 92V361H86V92Z" fill="white"/>
</clipPath>
</defs>
</svg>
