<svg width="545" height="329" viewBox="0 0 545 329" fill="none" xmlns="http://www.w3.org/2000/svg">
<g clip-path="url(#clip0_960_3264)">
<path fill-rule="evenodd" clip-rule="evenodd" d="M173.915 242.932C173.675 242.932 173.455 242.775 173.388 242.535C171.797 236.844 169.2 233.373 165.668 232.221C159.903 230.338 153.442 235.274 153.377 235.324C153.16 235.494 152.848 235.474 152.652 235.28C152.457 235.085 152.439 234.777 152.61 234.562C152.674 234.481 159.002 226.446 157.524 221.251C157.048 219.577 155.832 218.403 153.804 217.661C148.096 215.57 141.208 222.534 141.139 222.605C140.974 222.774 140.717 222.819 140.503 222.714C140.29 222.61 140.169 222.381 140.205 222.148C141.014 216.793 139.206 208.045 134.779 202.675C132.442 199.841 129.701 198.323 126.632 198.164C116.609 197.638 113.582 206.806 113.552 206.899C110.71 214.096 111.237 222.528 113.348 226.232C113.461 226.431 113.437 226.679 113.286 226.852C113.136 227.025 112.893 227.087 112.676 227.005C112.593 226.974 104.168 223.879 98.2125 227.84C94.3852 230.386 92.3526 235.286 92.1709 242.404C92.1632 242.703 91.9098 242.928 91.6099 242.932C91.3078 242.924 91.0692 242.675 91.0768 242.376C91.2678 234.883 93.4652 229.689 97.6071 226.936C102.684 223.563 109.152 224.842 111.83 225.597C110.037 221.235 109.798 213.429 112.52 206.538C112.54 206.472 115.848 196.53 126.689 197.081C130.08 197.257 133.086 198.908 135.627 201.989C139.86 207.124 141.798 215.221 141.442 220.839C143.727 218.852 149.197 214.818 154.184 216.644C156.53 217.502 158.009 218.954 158.578 220.958C159.7 224.903 156.981 230.025 155.092 232.942C157.656 231.533 161.909 229.853 166.006 231.19C169.909 232.462 172.748 236.181 174.443 242.245C174.524 242.534 174.353 242.832 174.062 242.913C174.013 242.926 173.963 242.932 173.915 242.932Z" fill="#2C2E2B"/>
<path fill-rule="evenodd" clip-rule="evenodd" d="M118.263 230.323C118.132 230.323 118.001 230.276 117.896 230.182C114.553 227.172 110.507 226.382 110.466 226.375C110.169 226.319 109.974 226.035 110.03 225.741C110.087 225.448 110.372 225.256 110.67 225.31C110.848 225.343 115.063 226.166 118.632 229.38C118.856 229.581 118.872 229.924 118.668 230.146C118.561 230.263 118.412 230.323 118.263 230.323Z" fill="#2C2E2B"/>
<path fill-rule="evenodd" clip-rule="evenodd" d="M190.856 242.928H131.406C131.104 242.928 130.859 242.686 130.859 242.386C130.859 242.086 131.104 241.844 131.406 241.844H190.856C191.158 241.844 191.403 242.086 191.403 242.386C191.403 242.686 191.158 242.928 190.856 242.928Z" fill="#2C2E2B"/>
<path fill-rule="evenodd" clip-rule="evenodd" d="M113.024 242.928H74.6384C74.3363 242.928 74.0911 242.686 74.0911 242.386C74.0911 242.086 74.3363 241.844 74.6384 241.844H113.024C113.326 241.844 113.571 242.086 113.571 242.386C113.571 242.686 113.326 242.928 113.024 242.928Z" fill="#2C2E2B"/>
<path fill-rule="evenodd" clip-rule="evenodd" d="M460.861 190.733C460.836 190.733 460.811 190.731 460.784 190.728C460.485 190.686 460.277 190.412 460.319 190.115C460.328 190.048 461.229 183.314 457.272 180.033C454.555 177.779 450.16 177.613 444.213 179.537C444.033 179.595 443.833 179.557 443.688 179.434C443.543 179.312 443.473 179.124 443.502 178.937C443.535 178.737 446.538 158.86 434.667 154.156C430.014 152.312 426.422 154.046 423.991 159.308C423.891 159.525 423.667 159.653 423.42 159.62C423.181 159.588 422.992 159.404 422.953 159.168C422.952 159.16 422.815 158.329 422.481 157.1C422.213 156.113 421.896 155.147 421.539 154.23C419.087 147.933 412.644 144.151 405.866 145.036L405.692 145.059C402.403 145.511 398.481 148.261 398.254 154.525C398.153 157.331 399.216 160.72 401.417 164.598C401.53 164.797 401.505 165.044 401.354 165.217C401.205 165.39 400.962 165.451 400.746 165.371C400.664 165.34 392.408 162.328 388.879 167.335C384.796 173.125 389.059 178.644 389.242 178.876C389.391 179.066 389.397 179.33 389.257 179.525C389.117 179.721 388.861 179.803 388.633 179.723C387.948 179.489 371.797 174.187 362.83 189.922C362.681 190.183 362.349 190.276 362.085 190.128C361.821 189.981 361.728 189.65 361.877 189.389C369.745 175.583 383.26 177.339 387.604 178.328C386.415 176.178 384.616 171.486 387.981 166.715C389.657 164.337 392.48 163.176 396.147 163.37C397.604 163.446 398.912 163.717 399.823 163.955C397.957 160.381 397.062 157.2 397.16 154.486C397.412 147.551 401.833 144.495 405.543 143.985L405.725 143.961C412.996 143.016 419.926 147.074 422.56 153.839C422.931 154.792 423.261 155.794 423.539 156.818C423.601 157.05 423.657 157.267 423.707 157.469C426.39 152.75 430.296 151.257 435.073 153.149C440.348 155.239 443.662 160.414 444.658 168.114C445.23 172.537 444.896 176.547 444.698 178.25C450.618 176.482 455.085 176.801 457.979 179.205C462.4 182.877 461.445 189.967 461.403 190.267C461.364 190.538 461.13 190.733 460.861 190.733Z" fill="#2C2E2B"/>
<path fill-rule="evenodd" clip-rule="evenodd" d="M404.703 167.361C404.595 167.361 404.485 167.329 404.389 167.262C402.36 165.848 400.802 165.388 400.786 165.384C400.496 165.3 400.329 165 400.413 164.712C400.497 164.425 400.802 164.26 401.089 164.342C401.159 164.362 402.827 164.848 405.018 166.375C405.266 166.548 405.325 166.886 405.151 167.13C405.045 167.281 404.875 167.361 404.703 167.361Z" fill="#2C2E2B"/>
<path fill-rule="evenodd" clip-rule="evenodd" d="M441.074 181.093C440.888 181.093 440.706 180.999 440.604 180.83C440.449 180.573 440.533 180.24 440.792 180.086C443.302 178.597 445.137 178.12 445.213 178.1C445.502 178.026 445.804 178.199 445.879 178.489C445.955 178.779 445.779 179.074 445.487 179.15C445.469 179.155 443.717 179.615 441.355 181.016C441.267 181.068 441.17 181.093 441.074 181.093Z" fill="#2C2E2B"/>
<path fill-rule="evenodd" clip-rule="evenodd" d="M383.581 190.425H348.857C348.554 190.425 348.309 190.183 348.309 189.883C348.309 189.583 348.554 189.341 348.857 189.341H383.581C383.884 189.341 384.129 189.583 384.129 189.883C384.129 190.183 383.884 190.425 383.581 190.425Z" fill="#2C2E2B"/>
<path fill-rule="evenodd" clip-rule="evenodd" d="M406.82 190.425H389.175C388.872 190.425 388.628 190.183 388.628 189.883C388.628 189.583 388.872 189.341 389.175 189.341H406.82C407.123 189.341 407.368 189.583 407.368 189.883C407.368 190.183 407.123 190.425 406.82 190.425Z" fill="#2C2E2B"/>
<path fill-rule="evenodd" clip-rule="evenodd" d="M473.274 190.73H436.116C435.814 190.73 435.569 190.487 435.569 190.188C435.569 189.888 435.814 189.645 436.116 189.645H473.274C473.577 189.645 473.822 189.888 473.822 190.188C473.822 190.487 473.577 190.73 473.274 190.73Z" fill="#2C2E2B"/>
<path fill-rule="evenodd" clip-rule="evenodd" d="M302.731 98.2765C302.33 98.5004 301.991 98.8164 301.748 99.2035C300.542 101.128 297.318 107.507 299.494 118.055C301.382 127.201 301.972 142.647 301.972 142.647C279.685 150.01 263.426 140.859 263.426 140.859L263.502 119.142C260.906 118.394 257.614 116.869 255.237 113.754C252.677 110.4 252.571 103.258 253.231 97.0929C253.462 95.0008 253.774 93.0257 254.111 91.3488C254.441 89.6947 254.795 88.3155 255.113 87.4155C255.373 86.6673 255.084 85.8259 254.388 85.3998C252.512 84.2596 250.435 83.068 249.214 82.3664C248.73 82.0975 248.689 81.4431 249.131 81.1216C250.529 80.1458 251.993 78.6321 253.32 77.0891C255.881 74.0915 257.815 70.6434 259.225 66.979C261.326 61.5445 263.549 57.3954 265.673 54.2395C267.313 51.8025 268.894 49.95 270.31 48.5534C272.192 52.1593 277.578 58.3479 288.032 61.8893C305.294 67.7272 300.019 83.6871 299.524 85.0897C299.701 84.6868 300.414 83.1439 301.689 81.6828C303.081 80.0991 305.069 79.0761 307.193 79.0528C308.975 79.0354 311.145 79.6546 312.679 82.2206C314.346 84.9877 314.372 91.7766 302.731 98.2765Z" fill="#FFA29E"/>
<path fill-rule="evenodd" clip-rule="evenodd" d="M263.976 140.532C265 141.055 268.791 142.856 274.498 143.99C280.602 145.202 290.2 145.874 301.411 142.258C301.301 139.755 300.647 126.335 298.96 118.162C296.784 107.612 299.861 101.188 301.285 98.916C301.573 98.4579 301.98 98.0729 302.465 97.8024C309.639 93.7964 311.967 89.8908 312.656 87.3204C313.341 84.769 312.573 83.097 312.212 82.4963C311.046 80.5473 309.345 79.5611 307.201 79.5931C305.309 79.6137 303.45 80.5045 302.104 82.0366C300.905 83.4109 300.212 84.8851 300.028 85.3036C299.911 85.572 299.598 85.6988 299.327 85.5926C299.052 85.4863 298.912 85.1843 299.009 84.9089C299.284 84.1309 301.606 77.129 298.542 70.8872C296.638 67.0097 293.044 64.1547 287.857 62.4003C278.541 59.2439 272.71 53.766 270.188 49.4526C268.792 50.9002 267.43 52.608 266.131 54.538C263.777 58.0355 261.627 62.2854 259.739 67.1713C258.231 71.0873 256.213 74.5413 253.74 77.4375C252.102 79.3415 250.699 80.6904 249.449 81.5627C249.379 81.6137 249.371 81.6874 249.374 81.7259C249.376 81.7666 249.394 81.8414 249.485 81.8918C250.757 82.6227 252.814 83.8035 254.676 84.9355C255.589 85.4944 255.981 86.5858 255.633 87.5899C255.319 88.479 254.97 89.8496 254.649 91.4516C254.295 93.2207 253.993 95.1908 253.778 97.1496C252.954 104.833 253.646 110.766 255.676 113.425C258.017 116.492 261.308 117.943 263.657 118.62C263.892 118.687 264.052 118.901 264.052 119.143L263.976 140.532ZM284.496 146.044C280.485 146.044 277.01 145.6 274.238 145.046C267.38 143.677 263.329 141.426 263.16 141.331C262.988 141.234 262.883 141.053 262.883 140.857L262.958 119.545C260.486 118.775 257.197 117.215 254.806 114.082C251.799 110.143 252.191 101.712 252.692 97.0367C252.911 95.0448 253.218 93.0421 253.579 91.2432C253.908 89.5929 254.272 88.1698 254.602 87.2367C254.782 86.7179 254.578 86.1508 254.105 85.8613C252.255 84.7374 250.206 83.5609 248.982 82.8577C248.561 82.6224 248.311 82.2315 248.284 81.7946C248.257 81.3603 248.454 80.945 248.812 80.6848C249.995 79.8591 251.332 78.5704 252.908 76.7385C255.301 73.9377 257.255 70.5888 258.719 66.7867C260.636 61.8254 262.824 57.5034 265.223 53.9393C266.72 51.7143 268.304 49.7728 269.929 48.1697C270.052 48.0477 270.227 47.9897 270.399 48.0179C270.572 48.0444 270.721 48.1512 270.801 48.3047C272.999 52.5172 278.729 58.1632 288.214 61.3765C293.687 63.2274 297.493 66.2689 299.529 70.4153C301.537 74.5075 301.409 78.8035 300.921 81.7593C301.035 81.6157 301.154 81.472 301.28 81.3289C302.833 79.562 304.987 78.5357 307.192 78.5113C308.944 78.4826 311.439 79.0757 313.155 81.9447C314.069 83.4617 314.274 85.524 313.717 87.601C312.973 90.3736 310.511 94.5579 303.005 98.7493C302.68 98.9304 302.408 99.1869 302.218 99.4905C301.16 101.177 297.878 107.493 300.035 117.948C301.91 127.032 302.518 142.472 302.524 142.626C302.533 142.868 302.381 143.085 302.15 143.161C295.626 145.317 289.623 146.044 284.496 146.044Z" fill="#2C2E2B"/>
<path fill-rule="evenodd" clip-rule="evenodd" d="M299.481 85.7314C299.178 85.7314 298.934 85.4885 298.934 85.1893C298.934 85.1296 298.945 85.0684 298.965 85.0104C299.029 84.781 299.241 84.6124 299.492 84.6124C299.795 84.6124 300.04 84.8548 300.04 85.1546C300.04 85.2137 300.029 85.2744 300.009 85.3319C299.946 85.5623 299.733 85.7314 299.481 85.7314Z" fill="#2C2E2B"/>
<path fill-rule="evenodd" clip-rule="evenodd" d="M271.264 120.442C265.072 120.442 261.154 118.881 260.893 118.774C260.615 118.66 260.482 118.343 260.597 118.066C260.713 117.79 261.033 117.657 261.312 117.772C261.337 117.783 263.868 118.801 268.025 119.189C271.857 119.547 277.897 119.429 284.91 116.826C285.194 116.722 285.509 116.864 285.614 117.144C285.721 117.424 285.577 117.737 285.294 117.842C279.948 119.825 275.156 120.442 271.264 120.442Z" fill="#2C2E2B"/>
<path fill-rule="evenodd" clip-rule="evenodd" d="M303.222 92.9746C303.103 92.9746 302.989 92.9111 302.931 92.8005C302.846 92.6417 302.908 92.4449 303.068 92.3614C309.368 89.0798 308.688 85.8653 308.488 85.2543C308.104 84.0827 307.134 83.8518 306.359 83.8529C305.431 83.8632 304.132 84.427 303.528 85.983C303.463 86.1505 303.274 86.2356 303.103 86.17C302.934 86.1055 302.85 85.9174 302.915 85.7498C303.637 83.8897 305.218 83.2147 306.353 83.2023C306.366 83.2023 306.38 83.2023 306.394 83.2023C307.756 83.2023 308.72 83.8583 309.112 85.0532C309.341 85.7515 310.141 89.4132 303.374 92.9372C303.325 92.9627 303.273 92.9746 303.222 92.9746Z" fill="#2C2E2B"/>
<path fill-rule="evenodd" clip-rule="evenodd" d="M263.363 97.171C263.195 97.171 263.03 97.0946 262.922 96.9509C260.094 93.1553 257.818 94.0032 257.794 94.0119C257.514 94.1236 257.195 93.9891 257.082 93.711C256.97 93.4329 257.106 93.1173 257.387 93.0057C257.511 92.9558 260.477 91.8427 263.803 96.3068C263.982 96.5481 263.931 96.8875 263.688 97.0653C263.59 97.1369 263.476 97.171 263.363 97.171Z" fill="#2C2E2B"/>
<path fill-rule="evenodd" clip-rule="evenodd" d="M278.302 78.0799C278.217 78.0799 278.131 78.0604 278.051 78.0186C272.686 75.2558 270.516 69.1517 270.426 68.8931C270.328 68.6101 270.48 68.3022 270.766 68.2046C271.052 68.107 271.363 68.2572 271.461 68.5402C271.482 68.5998 273.586 74.4968 278.555 77.0569C278.823 77.1951 278.928 77.522 278.788 77.7877C278.691 77.9736 278.5 78.0799 278.302 78.0799Z" fill="#2C2E2B"/>
<path fill-rule="evenodd" clip-rule="evenodd" d="M271.782 80.5444C273.895 80.5444 273.899 77.2915 271.782 77.2915C269.669 77.2915 269.666 80.5444 271.782 80.5444Z" fill="#2C2E2B"/>
<path fill-rule="evenodd" clip-rule="evenodd" d="M360.741 150.671C359.467 155.417 364.145 159.817 364.299 164.72C364.41 168.384 361.874 171.745 358.676 173.591C355.479 175.438 351.709 176.023 348.028 176.373C346.418 176.525 344.766 176.642 343.238 177.121C335.014 160.928 321.693 150.753 305.24 143.898C303.181 143.039 301.966 142.641 301.966 142.641C301.966 142.641 301.376 127.196 299.488 118.05C297.394 107.902 300.299 101.612 301.596 99.4366C301.914 98.9037 302.37 98.4727 302.913 98.1658C314.366 91.6985 314.331 84.9677 312.673 82.2151C311.139 79.6497 308.968 79.03 307.186 79.0479C305.063 79.0712 303.075 80.0937 301.683 81.6779C300.408 83.139 299.695 84.6814 299.518 85.0848C300.013 83.6822 305.287 67.7223 288.026 61.8839C277.572 58.3425 272.186 52.1538 270.304 48.548C268.888 49.9446 267.307 51.7976 265.667 54.2346C261.248 53.6496 258.405 50.6228 257.585 48.1858C256.588 45.2522 257.892 40.9513 260.381 39.0755C261.85 37.9706 263.744 37.5325 265.26 36.4921C270.015 33.2256 269.165 26.0838 271.584 20.883C273.348 17.096 277.112 14.2855 281.277 13.6539C285.435 13.0228 289.878 14.5891 292.704 17.6864C293.89 18.9838 294.798 20.5208 296.026 21.7829C299.848 25.7217 305.996 26.3235 311.482 25.751C316.968 25.1725 322.442 23.6761 327.917 24.3603C337.079 25.5113 344.907 33.4707 345.834 42.5756C346.358 47.7478 344.943 53.3108 347.261 57.9744C352.069 67.6757 366.688 65.8812 373.649 75.7868C375.289 78.1186 376.557 82.3729 376.351 85.2073C376.109 88.4857 374.693 90.9872 372.156 93.506C369.408 96.2293 364.482 98.6836 363.261 102.342C362.316 105.17 363.939 108.18 365.732 110.57C369.195 115.187 373.567 119.201 376.186 124.339C378.799 129.475 379.159 136.406 374.976 140.398C370.623 144.553 362.292 144.886 360.741 150.671Z" fill="#443D7A"/>
<path fill-rule="evenodd" clip-rule="evenodd" d="M302.497 142.253C303.003 142.431 304.023 142.805 305.452 143.401C323.445 150.897 335.902 161.721 343.52 176.477C344.827 176.127 346.195 176.001 347.522 175.878L347.976 175.836C351.54 175.497 355.271 174.934 358.401 173.126C361.748 171.193 363.849 167.901 363.752 164.739C363.688 162.702 362.768 160.682 361.877 158.727C360.682 156.104 359.446 153.39 360.212 150.535C361.214 146.8 364.84 145.191 368.348 143.633C370.603 142.632 372.934 141.597 374.597 140.01C378.735 136.061 378.068 129.246 375.697 124.586C374.009 121.274 371.516 118.362 369.104 115.546C367.822 114.048 366.495 112.499 365.293 110.897C362.749 107.506 361.914 104.653 362.741 102.175C363.619 99.543 366.186 97.5842 368.667 95.6899C369.818 94.8116 370.904 93.9827 371.77 93.1255C374.378 90.5357 375.585 88.1567 375.805 85.1705C375.997 82.534 374.804 78.3801 373.2 76.0998C369.887 71.3863 364.746 69.3792 359.773 67.4383C354.397 65.3402 349.318 63.3581 346.771 58.2163C345.185 55.029 345.28 51.435 345.371 47.9593C345.417 46.194 345.466 44.3681 345.289 42.6326C344.391 33.8058 336.73 26.0167 327.848 24.901C324.076 24.4282 320.196 25.0306 316.445 25.6134C314.841 25.8622 313.181 26.1197 311.54 26.2932C306.612 26.8061 299.849 26.5079 295.631 22.1615C294.951 21.4626 294.367 20.683 293.802 19.9294C293.325 19.2946 292.833 18.638 292.298 18.053C289.611 15.1075 285.321 13.5922 281.36 14.1924C277.402 14.7925 273.76 17.5087 272.081 21.113C271.227 22.9503 270.781 25.0951 270.349 27.1688C269.576 30.8912 268.775 34.74 265.572 36.9406C264.813 37.4616 263.973 37.8357 263.161 38.1973C262.274 38.5925 261.436 38.9661 260.712 39.5098C258.421 41.2366 257.178 45.2908 258.104 48.0157C258.875 50.3079 261.477 53.004 265.406 53.6503C266.846 51.5446 268.363 49.7012 269.918 48.1669C270.041 48.045 270.216 47.9869 270.389 48.0151C270.561 48.0423 270.71 48.1485 270.791 48.3019C272.989 52.5145 278.718 58.1605 288.203 61.3738C293.676 63.2247 297.482 66.2662 299.518 70.4126C301.527 74.5048 301.398 78.8008 300.91 81.7566C301.024 81.6129 301.143 81.4693 301.269 81.3261C302.822 79.5592 304.976 78.533 307.181 78.5086C308.933 78.4798 311.428 79.0729 313.144 81.942C314.054 83.453 314.262 85.5072 313.712 87.5761C312.982 90.3232 310.564 94.4723 303.184 98.6398C302.716 98.9044 302.329 99.2763 302.068 99.7154C300.771 101.89 297.976 108.019 300.024 117.945C301.737 126.242 302.392 139.84 302.497 142.253ZM343.235 177.668C343.032 177.668 342.841 177.556 342.745 177.369C335.269 162.647 322.93 151.863 305.024 144.403C303.014 143.564 301.803 143.165 301.791 143.161C301.574 143.09 301.425 142.893 301.416 142.667C301.41 142.513 300.806 127.16 298.949 118.163C296.825 107.868 299.761 101.448 301.122 99.1653C301.481 98.5641 302.005 98.0577 302.639 97.6999C309.688 93.7188 311.974 89.8479 312.65 87.3014C313.325 84.7614 312.561 83.0959 312.2 82.4979C311.035 80.5488 309.334 79.5627 307.189 79.5947C305.297 79.6152 303.439 80.506 302.092 82.0381C300.893 83.4125 300.2 84.8866 300.017 85.3052C299.899 85.5735 299.587 85.7004 299.315 85.5941C299.041 85.4879 298.901 85.1859 298.997 84.9105C299.273 84.1325 301.594 77.1306 298.53 70.8888C296.627 67.0113 293.032 64.1563 287.846 62.4019C278.53 59.2455 272.698 53.7675 270.176 49.4542C268.781 50.9017 267.418 52.6095 266.119 54.5396C266.004 54.712 265.799 54.8031 265.592 54.7765C261.01 54.1704 257.959 51.0264 257.063 48.3623C255.987 45.1966 257.381 40.6572 260.047 38.6485C260.87 38.0294 261.804 37.613 262.709 37.2102C263.511 36.8529 264.268 36.5157 264.945 36.0511C267.789 34.0977 268.51 30.6268 269.274 26.9521C269.718 24.8182 270.176 22.6116 271.084 20.661C272.912 16.7347 276.88 13.7761 281.191 13.1229C285.501 12.4668 290.179 14.1188 293.107 17.3278C293.677 17.9507 294.185 18.6284 294.677 19.2844C295.247 20.0445 295.785 20.7623 296.417 21.4118C300.328 25.4422 306.733 25.7068 311.422 25.2161C313.034 25.0459 314.681 24.7911 316.273 24.5439C320.099 23.9502 324.055 23.3365 327.982 23.8266C337.35 25.0036 345.428 33.2178 346.375 42.526C346.558 44.3297 346.509 46.1899 346.462 47.9893C346.37 51.4873 346.284 54.7917 347.75 57.7399C350.111 62.5049 354.998 64.4122 360.171 66.4317C365.295 68.4312 370.593 70.4995 374.094 75.4819C375.848 77.9752 377.104 82.3575 376.894 85.2509C376.656 88.4751 375.314 91.1404 372.541 93.8934C371.626 94.8004 370.511 95.6505 369.332 96.551C366.981 98.3456 364.55 100.2 363.777 102.517C363.07 104.635 363.852 107.165 366.168 110.251C367.35 111.826 368.664 113.362 369.936 114.847C372.388 117.711 374.924 120.672 376.671 124.099C379.218 129.104 379.891 136.462 375.353 140.793C373.553 142.511 371.132 143.586 368.792 144.624C365.368 146.145 362.134 147.58 361.267 150.815C360.6 153.298 361.704 155.719 362.872 158.283C363.806 160.334 364.772 162.455 364.843 164.708C364.951 168.262 362.638 171.934 358.949 174.065C355.637 175.978 351.766 176.566 348.077 176.917L347.62 176.959C346.198 177.091 344.728 177.227 343.399 177.643C343.345 177.66 343.289 177.668 343.235 177.668Z" fill="#2C2E2B"/>
<path fill-rule="evenodd" clip-rule="evenodd" d="M288.681 55.2578C288.631 55.2578 288.58 55.2464 288.532 55.2225C273.942 47.8634 275.433 40.1192 275.504 39.7934C275.542 39.6177 275.717 39.5044 275.894 39.5435C276.071 39.5809 276.184 39.7533 276.146 39.9289C276.129 40.0119 274.742 47.537 288.83 54.6424C288.991 54.7243 289.056 54.92 288.974 55.08C288.916 55.1927 288.8 55.2578 288.681 55.2578Z" fill="#2C2E2B"/>
<path fill-rule="evenodd" clip-rule="evenodd" d="M315.796 92.9084C315.726 92.9084 315.656 92.8862 315.596 92.8407C315.452 92.7312 315.425 92.5268 315.536 92.3847C318.158 89.0098 319.069 85.6262 318.241 82.3283C316.356 74.8124 306.048 70.0794 305.944 70.0328C305.779 69.958 305.706 69.765 305.781 69.6018C305.857 69.4375 306.051 69.3665 306.217 69.4408C306.243 69.4527 308.916 70.6688 311.788 72.8233C314.454 74.8238 317.849 78.0692 318.878 82.1695C319.757 85.6702 318.808 89.2408 316.057 92.7816C315.992 92.8645 315.895 92.9084 315.796 92.9084Z" fill="#2C2E2B"/>
<path fill-rule="evenodd" clip-rule="evenodd" d="M267.482 52.0602C267.423 52.0602 267.364 52.0445 267.31 52.012C267.044 51.8488 260.814 47.9789 263.069 43.858C263.154 43.7002 263.354 43.6417 263.514 43.7268C263.673 43.8125 263.732 44.0098 263.645 44.1676C261.687 47.7496 267.595 51.4216 267.655 51.4579C267.809 51.5523 267.857 51.7528 267.762 51.9057C267.699 52.0055 267.592 52.0602 267.482 52.0602Z" fill="#2C2E2B"/>
<path fill-rule="evenodd" clip-rule="evenodd" d="M275.767 28.1443C275.746 28.1443 275.725 28.1427 275.704 28.1384C275.526 28.1042 275.409 27.9334 275.444 27.7572C276.038 24.7223 278.358 22.2961 281.499 21.4249C284.616 20.5607 287.786 21.4764 289.985 23.8732C290.785 24.7445 291.569 25.7735 292.315 26.9326C292.412 27.0844 292.367 27.2856 292.215 27.3821C292.061 27.4786 291.858 27.4336 291.761 27.2828C291.035 26.1546 290.274 25.1549 289.499 24.3108C287.471 22.1004 284.548 21.2552 281.676 22.0516C278.776 22.8562 276.635 25.0898 276.089 27.8808C276.059 28.0364 275.921 28.1443 275.767 28.1443Z" fill="#2C2E2B"/>
<path fill-rule="evenodd" clip-rule="evenodd" d="M327.922 81.5589C327.766 81.5589 327.628 81.4477 327.599 81.29C326.21 73.5198 321.609 67.0362 313.926 62.0197C291.849 47.6038 294.96 39.9567 295.103 39.6385C295.178 39.4742 295.373 39.401 295.537 39.4737C295.702 39.5463 295.776 39.7372 295.704 39.9009C295.667 39.986 292.801 47.4466 314.287 61.4764C322.127 66.5954 326.823 73.2233 328.246 81.1767C328.277 81.3539 328.159 81.5225 327.98 81.554C327.96 81.5572 327.941 81.5589 327.922 81.5589Z" fill="#2C2E2B"/>
<path fill-rule="evenodd" clip-rule="evenodd" d="M308.421 144.798C308.324 144.798 308.228 144.756 308.163 144.674C308.051 144.532 308.076 144.328 308.218 144.217C308.286 144.165 314.898 138.773 308.631 123.151C302.889 108.839 311.771 101.397 311.862 101.324C312.002 101.21 312.209 101.23 312.324 101.369C312.439 101.508 312.419 101.712 312.279 101.827C312.257 101.844 310.094 103.637 308.648 107.114C307.314 110.321 306.335 115.665 309.241 122.911C315.708 139.029 308.915 144.505 308.622 144.73C308.563 144.776 308.492 144.798 308.421 144.798Z" fill="#2C2E2B"/>
<path fill-rule="evenodd" clip-rule="evenodd" d="M344.858 65.0172C344.815 65.0172 344.771 65.0086 344.729 64.9907C340.391 63.1479 338.896 57.9855 338.407 53.9796C338.312 53.2043 338.234 52.4181 338.157 51.6299C337.813 48.133 337.457 44.5174 335.497 41.6613C333.976 39.445 331.707 36.7749 327.621 35.7903C327.445 35.748 327.336 35.5718 327.379 35.3972C327.422 35.2227 327.599 35.1153 327.776 35.1582C332.079 36.1948 334.453 38.9825 336.04 41.2953C338.095 44.2891 338.459 47.9888 338.811 51.567C338.888 52.3504 338.964 53.1311 339.058 53.9015C339.528 57.7378 340.937 62.6719 344.987 64.3932C345.154 64.4637 345.231 64.6551 345.16 64.8199C345.107 64.9435 344.985 65.0172 344.858 65.0172Z" fill="#2C2E2B"/>
<path fill-rule="evenodd" clip-rule="evenodd" d="M314.873 47.9578C314.809 47.9578 314.744 47.9389 314.687 47.8998C313.482 47.073 312.653 45.6288 312.152 43.4845C312.059 43.0817 311.976 42.6746 311.894 42.2669C311.655 41.0828 311.408 39.8586 310.855 38.7922C309.376 35.9388 306.008 34.5867 302.908 33.6401C302.735 33.5875 302.638 33.4054 302.691 33.2335C302.744 33.0622 302.929 32.9657 303.102 33.0188C306.333 34.005 309.849 35.4271 311.44 38.4951C312.034 39.6418 312.29 40.9115 312.538 42.1395C312.619 42.5406 312.7 42.9413 312.792 43.3376C313.255 45.317 313.996 46.6344 315.061 47.3653C315.21 47.4677 315.247 47.67 315.144 47.818C315.08 47.909 314.977 47.9578 314.873 47.9578Z" fill="#2C2E2B"/>
<path fill-rule="evenodd" clip-rule="evenodd" d="M356.011 93.3432C355.994 93.3432 355.976 93.3421 355.958 93.3389C355.779 93.3102 355.658 93.1432 355.686 92.9659C355.906 91.6219 356.877 90.6563 357.817 89.7222C358.209 89.3318 358.615 88.9279 358.95 88.5088C360.585 86.4655 360.913 83.3535 359.786 80.5804C358.84 78.2518 356.908 76.0811 354.197 74.3039C354.045 74.2047 354.004 74.003 354.105 73.8534C354.204 73.7037 354.408 73.662 354.559 73.7612C357.422 75.6381 359.385 77.8507 360.396 80.3375C361.609 83.3237 361.244 86.6899 359.466 88.9127C359.107 89.3611 358.688 89.778 358.281 90.1814C357.376 91.0819 356.521 91.9325 356.335 93.07C356.309 93.2299 356.169 93.3432 356.011 93.3432Z" fill="#2C2E2B"/>
<path fill-rule="evenodd" clip-rule="evenodd" d="M344.862 167.6C344.747 167.6 344.636 167.54 344.575 167.433C344.486 167.277 344.543 167.079 344.701 166.991C351.065 163.457 351.991 160.571 349.01 153.567C347.679 150.441 347.131 147.865 347.283 145.463C347.519 141.751 350.383 138.822 352.911 136.238L353.302 135.838C355.583 133.498 358.519 129.952 357.681 126.192C357.431 125.07 356.76 123.809 355.983 122.348C353.76 118.172 350.715 112.453 352.923 102.608C352.963 102.431 353.14 102.32 353.315 102.36C353.493 102.399 353.604 102.573 353.565 102.749C351.409 112.361 354.388 117.959 356.564 122.045C357.363 123.547 358.054 124.844 358.323 126.052C359.229 130.116 356.161 133.842 353.774 136.29L353.382 136.691C350.815 139.316 348.159 142.031 347.939 145.504C347.792 147.802 348.325 150.284 349.615 153.314C352.738 160.651 351.708 163.846 345.022 167.559C344.971 167.587 344.916 167.6 344.862 167.6Z" fill="#2C2E2B"/>
<path fill-rule="evenodd" clip-rule="evenodd" d="M365.198 137.836C365.107 137.836 365.017 137.799 364.952 137.726C364.832 137.591 364.845 137.385 364.982 137.267C365.985 136.393 367.121 135.403 367.727 134.152C368.85 131.837 368.064 129.044 367.163 126.381C367.106 126.212 367.198 126.027 367.37 125.969C367.54 125.915 367.728 126.005 367.786 126.175C368.73 128.964 369.549 131.899 368.32 134.434C367.655 135.804 366.465 136.841 365.415 137.755C365.353 137.809 365.275 137.836 365.198 137.836Z" fill="#2C2E2B"/>
<path fill-rule="evenodd" clip-rule="evenodd" d="M318.818 147.596C318.749 147.596 318.68 147.575 318.621 147.532C318.476 147.424 318.446 147.22 318.555 147.076C320.227 144.868 320.607 142.133 320.631 140.229C320.662 137.761 320.162 135.289 319.679 132.897C319.643 132.721 319.759 132.549 319.936 132.515C320.115 132.476 320.287 132.593 320.322 132.769C320.813 135.194 321.319 137.701 321.287 140.238C321.262 142.239 320.859 145.117 319.081 147.467C319.016 147.552 318.918 147.596 318.818 147.596Z" fill="#2C2E2B"/>
<path fill-rule="evenodd" clip-rule="evenodd" d="M321.173 122.872C321.092 122.872 321.011 122.843 320.947 122.783C320.816 122.659 320.81 122.454 320.934 122.323C322.549 120.632 322.48 117.971 322.137 116.037C322.023 115.391 321.872 114.732 321.728 114.095C321.36 112.477 320.979 110.805 321.114 109.11C321.431 105.111 322.818 102.469 324.574 99.123L324.926 98.4507C326.458 95.5193 328.309 90.5813 328.481 86.313C328.489 86.133 328.616 85.9915 328.824 86.0007C329.005 86.0077 329.145 86.1595 329.138 86.339C328.96 90.7147 327.072 95.7594 325.51 98.7499L325.156 99.4233C323.368 102.831 322.075 105.294 321.769 109.161C321.642 110.758 322.011 112.381 322.369 113.951C322.515 114.596 322.666 115.263 322.784 115.925C323.152 118.006 323.214 120.883 321.412 122.771C321.347 122.838 321.26 122.872 321.173 122.872Z" fill="#2C2E2B"/>
<path fill-rule="evenodd" clip-rule="evenodd" d="M331.942 161.626C331.826 161.626 331.713 161.565 331.653 161.456C331.566 161.298 331.625 161.1 331.784 161.014C337.797 157.769 340.346 150.423 338.955 145.597C338.182 142.919 337.137 140.839 336.215 139.004C334.363 135.318 332.9 132.407 334.531 127.064C335.08 125.266 336.331 123.832 337.655 122.313C339.471 120.23 341.348 118.077 341.682 114.711C342.124 110.224 340.505 108.104 338.789 105.859C337.082 103.624 335.316 101.312 335.316 96.6238C335.316 94.0161 336.156 92.0735 337.129 89.8241C338.476 86.7084 340.003 83.1768 339.788 76.6672C339.426 65.7352 330.413 60.762 330.322 60.7127C330.163 60.627 330.104 60.4297 330.19 60.2719C330.276 60.1147 330.475 60.055 330.635 60.1412C330.729 60.1917 340.07 65.3318 340.444 76.646C340.664 83.2999 339.107 86.9019 337.732 90.08C336.788 92.2638 335.972 94.1494 335.972 96.6238C335.972 101.094 337.671 103.317 339.313 105.466C341.108 107.815 342.804 110.035 342.335 114.774C341.982 118.346 339.947 120.68 338.152 122.738C336.875 124.204 335.669 125.587 335.16 127.252C333.604 132.348 335.016 135.158 336.803 138.714C337.738 140.575 338.797 142.684 339.586 145.418C341.048 150.486 338.388 158.192 332.099 161.586C332.049 161.613 331.995 161.626 331.942 161.626Z" fill="#2C2E2B"/>
<path fill-rule="evenodd" clip-rule="evenodd" d="M290.456 50.4096C290.376 50.4096 290.298 50.3814 290.235 50.325C286.048 46.5576 286.849 42.1076 286.886 41.92C286.92 41.7443 287.096 41.6299 287.269 41.6619C287.447 41.6955 287.564 41.8652 287.531 42.042C287.523 42.0843 286.772 46.3299 290.676 49.8435C290.81 49.9644 290.821 50.1699 290.699 50.3027C290.634 50.3738 290.545 50.4096 290.456 50.4096Z" fill="#2C2E2B"/>
<path fill-rule="evenodd" clip-rule="evenodd" d="M320.939 275.938C320.939 275.938 311.919 321.644 308.693 329.75L308.687 329.755C308.681 329.767 308.663 329.872 308.628 330.047H287.301L236.892 330.071C238.903 301.225 242.319 271.129 242.319 271.129C270.205 277.393 320.043 271.129 320.043 271.129L320.939 275.938Z" fill="#B26D68"/>
<path fill-rule="evenodd" clip-rule="evenodd" d="M242.794 271.783C242.308 276.14 239.313 303.417 237.476 329.522L287.3 329.499H308.199C308.2 329.498 308.201 329.496 308.201 329.495C311.318 321.576 319.905 278.334 320.381 275.929L319.597 271.723C314.27 272.354 269.035 277.448 242.794 271.783ZM236.888 330.608C236.737 330.608 236.592 330.546 236.488 330.436C236.385 330.326 236.332 330.179 236.343 330.029C238.332 301.502 241.738 271.365 241.772 271.064C241.79 270.91 241.872 270.772 241.999 270.682C242.126 270.593 242.286 270.561 242.437 270.596C269.908 276.767 319.474 270.649 319.971 270.586C320.26 270.552 320.526 270.743 320.578 271.026L321.475 275.835C321.487 275.903 321.487 275.971 321.474 276.038C321.105 277.905 312.417 321.836 309.205 329.93L309.161 330.148C309.11 330.402 308.885 330.585 308.625 330.585H287.299L236.889 330.608H236.888Z" fill="#2C2E2B"/>
<path fill-rule="evenodd" clip-rule="evenodd" d="M347.971 330.235H343.081C343.081 330.235 343.093 330.2 343.116 330.136C343.376 329.399 345.081 324.508 347.098 317.911L347.971 330.235Z" fill="#B26D68"/>
<path fill-rule="evenodd" clip-rule="evenodd" d="M343.851 329.696H347.386L346.759 320.855C345.402 325.172 344.301 328.397 343.851 329.696ZM347.976 330.776H343.086C342.91 330.776 342.746 330.692 342.642 330.552C342.54 330.411 342.511 330.229 342.566 330.064L342.605 329.952C342.677 329.747 344.433 324.77 346.579 317.752C346.655 317.502 346.906 317.345 347.164 317.369C347.426 317.399 347.63 317.61 347.648 317.87L348.521 330.196C348.532 330.346 348.48 330.493 348.376 330.603C348.272 330.713 348.128 330.776 347.976 330.776Z" fill="#2C2E2B"/>
<path fill-rule="evenodd" clip-rule="evenodd" d="M262.42 290.846C264.533 290.846 264.536 287.593 262.42 287.593C260.307 287.593 260.304 290.846 262.42 290.846Z" fill="#2C2E2B"/>
<path fill-rule="evenodd" clip-rule="evenodd" d="M262.42 304.819C264.533 304.819 264.536 301.566 262.42 301.566C260.307 301.566 260.303 304.819 262.42 304.819Z" fill="#2C2E2B"/>
<path fill-rule="evenodd" clip-rule="evenodd" d="M262.42 318.8C264.533 318.8 264.536 315.547 262.42 315.547C260.307 315.547 260.304 318.8 262.42 318.8Z" fill="#2C2E2B"/>
<path fill-rule="evenodd" clip-rule="evenodd" d="M269.529 280.098C269.35 280.098 269.204 279.956 269.201 279.779C269.198 279.599 269.343 279.451 269.524 279.448C271.362 279.42 273.318 279.365 275.338 279.285C275.515 279.282 275.672 279.417 275.68 279.597C275.687 279.777 275.546 279.928 275.365 279.935C273.339 280.015 271.378 280.07 269.534 280.098H269.529Z" fill="#2C2E2B"/>
<path fill-rule="evenodd" clip-rule="evenodd" d="M265.106 280.115H265.104C252.717 280.017 248.827 278.645 248.667 278.587C248.498 278.524 248.411 278.338 248.473 278.169C248.535 278.002 248.723 277.916 248.894 277.976C248.933 277.99 252.878 279.367 265.109 279.464C265.29 279.466 265.436 279.612 265.435 279.792C265.433 279.971 265.286 280.115 265.106 280.115Z" fill="#2C2E2B"/>
<path fill-rule="evenodd" clip-rule="evenodd" d="M209.617 60.8774C204.614 65.9151 199.512 68.8661 196.786 71.5134C194.957 73.296 193.807 75.5693 192.709 77.8658C179.471 105.543 170.026 142.103 159.531 157.77L183.388 155.748C184.769 162.381 188.857 185.237 182.981 199.408C102.703 196.884 113.994 170.002 113.994 170.002C125.362 127.647 134.353 120.696 170.628 63.0981C172.15 60.6817 173.566 58.2128 174.162 55.425C174.982 51.6088 176.35 45.9753 178.038 41.9839L209.617 60.8774Z" fill="#FFA29E"/>
<path fill-rule="evenodd" clip-rule="evenodd" d="M178.304 42.773C176.769 46.6147 175.504 51.7863 174.698 55.5348C174.064 58.502 172.505 61.1412 171.093 63.3825C163.257 75.8243 156.801 85.7387 151.105 94.4863C130.954 125.434 123.415 137.013 114.524 170.138C114.518 170.162 114.51 170.185 114.5 170.207C114.482 170.252 112.644 174.854 116.191 180.275C121.201 187.934 136.794 197.362 182.617 198.851C188.088 185.142 184.398 163.441 182.95 156.327L159.579 158.308C159.368 158.329 159.169 158.222 159.061 158.044C158.955 157.865 158.96 157.641 159.076 157.468C164.834 148.872 170.381 133.654 176.254 117.542C181.18 104.027 186.274 90.0521 192.215 77.6308C193.358 75.2388 194.539 72.9412 196.403 71.1239C197.537 70.0233 199.045 68.8907 200.792 67.5798C203.224 65.7544 205.963 63.6991 208.738 60.9813L178.304 42.773ZM182.978 199.95C182.972 199.95 182.966 199.95 182.96 199.949C157.216 199.14 124.569 195.166 115.244 180.83C111.532 175.124 113.271 170.333 113.47 169.83C122.402 136.563 129.968 124.944 150.182 93.901C155.875 85.1567 162.328 75.2461 170.16 62.8107C171.522 60.6481 173.026 58.107 173.623 55.3122C174.48 51.3247 175.853 45.7394 177.529 41.7741C177.591 41.6288 177.713 41.5171 177.864 41.4678C178.015 41.4195 178.181 41.438 178.317 41.5193L209.896 60.4128C210.04 60.4984 210.135 60.6448 210.156 60.8091C210.178 60.9739 210.121 61.1393 210.004 61.2569C207.007 64.2751 203.925 66.5879 201.448 68.4469C199.731 69.7356 198.249 70.8481 197.166 71.8999C195.43 73.5914 194.3 75.7969 193.201 78.0973C187.282 90.4719 182.197 104.422 177.279 117.914C171.589 133.524 166.203 148.3 160.593 157.136L183.338 155.208C183.616 155.178 183.865 155.369 183.921 155.638C185.316 162.342 189.408 185.327 183.484 199.614C183.399 199.818 183.199 199.95 182.978 199.95Z" fill="#2C2E2B"/>
<path fill-rule="evenodd" clip-rule="evenodd" d="M188.414 62.0062C188.372 62.0062 188.33 61.9981 188.289 61.9818C188.121 61.9129 188.042 61.7232 188.11 61.5567C191.592 53.1951 188.185 48.4361 188.15 48.3889C188.043 48.2442 188.074 48.0409 188.22 47.9341C188.366 47.8283 188.571 47.8587 188.678 48.0029C188.83 48.2062 192.349 53.0813 188.718 61.8045C188.665 61.9303 188.543 62.0062 188.414 62.0062Z" fill="#2C2E2B"/>
<path fill-rule="evenodd" clip-rule="evenodd" d="M153.712 165.264C153.572 165.264 153.432 165.211 153.325 165.105C153.111 164.893 153.111 164.55 153.325 164.338C156.177 161.514 157.968 158.935 159.701 156.441L160.054 155.934C160.226 155.688 160.566 155.626 160.815 155.795C161.064 155.965 161.126 156.303 160.954 156.549L160.603 157.055C158.842 159.59 157.021 162.21 154.099 165.105C153.992 165.211 153.852 165.264 153.712 165.264Z" fill="#2C2E2B"/>
<path fill-rule="evenodd" clip-rule="evenodd" d="M191.588 57.5063C191.513 57.5063 191.438 57.4814 191.376 57.4299C191.238 57.3144 191.22 57.1095 191.337 56.9718C191.457 56.8292 194.346 53.4917 198.668 53.9867C198.848 54.0073 198.977 54.1688 198.956 54.3472C198.935 54.5261 198.769 54.6514 198.592 54.6329C194.63 54.1743 191.866 57.3589 191.839 57.3909C191.774 57.4673 191.681 57.5063 191.588 57.5063Z" fill="#2C2E2B"/>
<path fill-rule="evenodd" clip-rule="evenodd" d="M124.987 180.636C124.952 180.636 124.917 180.63 124.883 180.619C120.46 179.159 121.58 173.925 121.592 173.872C121.631 173.697 121.807 173.586 121.983 173.625C122.16 173.665 122.272 173.838 122.233 174.013C122.19 174.205 121.233 178.728 125.091 180.002C125.262 180.059 125.355 180.243 125.298 180.413C125.252 180.55 125.124 180.636 124.987 180.636Z" fill="#2C2E2B"/>
<path fill-rule="evenodd" clip-rule="evenodd" d="M156.086 93.035C156.061 93.035 156.035 93.0317 156.01 93.0241C155.203 92.7926 154.317 92.4831 153.376 92.1046C153.235 92.0483 153.168 91.8899 153.225 91.7512C153.282 91.6124 153.442 91.5457 153.581 91.6021C154.505 91.9734 155.374 92.277 156.162 92.5037C156.307 92.5454 156.391 92.6956 156.348 92.8393C156.314 92.958 156.205 93.035 156.086 93.035Z" fill="#B26D68"/>
<path fill-rule="evenodd" clip-rule="evenodd" d="M152.643 104.998C152.561 104.998 152.478 104.983 152.397 104.952C150.786 104.332 148.723 103.701 146.267 103.076C146.12 103.039 146.032 102.891 146.069 102.747C146.107 102.601 146.257 102.514 146.403 102.551C148.88 103.181 150.964 103.819 152.595 104.447C152.659 104.471 152.704 104.442 152.726 104.422C152.743 104.405 152.78 104.359 152.756 104.291C152.641 103.962 152.387 103.6 152.094 103.182C151.254 101.987 149.985 100.181 150.005 96.4413C150.006 96.2922 150.128 96.1719 150.279 96.1719H150.28C150.431 96.1724 150.553 96.2944 150.552 96.444C150.534 100.012 151.695 101.666 152.543 102.873C152.86 103.324 153.133 103.713 153.274 104.114C153.361 104.363 153.296 104.63 153.106 104.812C152.977 104.934 152.813 104.998 152.643 104.998Z" fill="#B26D68"/>
<path fill-rule="evenodd" clip-rule="evenodd" d="M145.23 113.784C145.156 113.784 145.083 113.755 145.029 113.697C143.757 112.33 142.659 110.812 141.765 109.186C141.693 109.054 141.742 108.89 141.875 108.818C142.008 108.747 142.174 108.796 142.246 108.926C143.118 110.514 144.19 111.995 145.432 113.329C145.534 113.439 145.527 113.611 145.416 113.712C145.363 113.76 145.296 113.784 145.23 113.784Z" fill="#B26D68"/>
<path fill-rule="evenodd" clip-rule="evenodd" d="M354.385 285.488C353.724 294.756 350.078 308.191 347.105 317.916C345.087 324.513 343.382 329.405 343.122 330.141C343.099 330.205 343.087 330.241 343.087 330.241L341.766 330.235L321.142 330.159L308.547 330.112C308.594 330.007 308.647 329.884 308.694 329.755L308.7 329.75C311.927 321.644 320.947 275.939 320.947 275.939L320.051 271.129L319.738 269.458L313.472 235.948C342.444 225.803 354.385 229.456 354.385 229.456C354.385 229.456 356.313 258.331 354.385 285.488Z" fill="#FFA29E"/>
<path fill-rule="evenodd" clip-rule="evenodd" d="M309.353 329.583L342.699 329.707C343.094 328.574 344.685 323.968 346.581 317.768C349.528 308.128 353.181 294.698 353.839 285.46C355.621 260.358 354.082 233.46 353.864 229.897C351.682 229.421 339.495 227.493 314.096 236.316L321.485 275.85C321.497 275.917 321.497 275.986 321.484 276.052C321.121 277.894 312.669 320.625 309.353 329.583ZM343.09 330.788H343.088L308.547 330.659C308.362 330.659 308.19 330.565 308.09 330.412C307.99 330.258 307.974 330.065 308.048 329.897C308.091 329.802 308.14 329.691 308.182 329.575C308.19 329.552 308.201 329.529 308.213 329.507C311.329 321.587 319.916 278.345 320.392 275.94L312.937 236.052C312.887 235.789 313.038 235.531 313.292 235.442C342.103 225.354 354.054 228.791 354.548 228.943C354.765 229.009 354.918 229.201 354.933 229.425C354.952 229.713 356.842 258.647 354.933 285.53C354.267 294.869 350.594 308.384 347.631 318.078C345.478 325.118 343.715 330.116 343.641 330.325L343.61 330.415C343.536 330.638 343.326 330.788 343.09 330.788Z" fill="#2C2E2B"/>
<path fill-rule="evenodd" clip-rule="evenodd" d="M348.409 289.553C348.343 289.553 348.276 289.533 348.217 289.492C348.071 289.387 348.037 289.184 348.143 289.038C350.634 285.603 349.223 279.516 349.209 279.455C349.167 279.28 349.277 279.105 349.453 279.063C349.627 279.023 349.807 279.131 349.848 279.306C349.91 279.566 351.343 285.741 348.676 289.418C348.612 289.506 348.511 289.553 348.409 289.553Z" fill="#2C2E2B"/>
<path fill-rule="evenodd" clip-rule="evenodd" d="M320.95 276.481C320.932 276.481 320.913 276.48 320.894 276.478C320.595 276.447 320.376 276.184 320.405 275.887C320.414 275.801 320.643 273.714 323.203 266.758C323.308 266.477 323.621 266.333 323.905 266.435C324.189 266.537 324.335 266.848 324.231 267.13C321.742 273.891 321.497 275.974 321.494 275.995C321.464 276.273 321.227 276.481 320.95 276.481Z" fill="#2C2E2B"/>
<path fill-rule="evenodd" clip-rule="evenodd" d="M313.469 235.951L319.734 269.46L320.047 271.132C320.047 271.132 270.209 277.396 242.322 271.132C231.84 226.413 226.46 195.067 226.46 195.067C210.236 199.409 182.975 199.409 182.975 199.409C189.906 182.695 183.383 155.748 183.383 155.748C231.173 145.51 263.419 140.858 263.419 140.858C263.419 140.858 279.678 150.009 301.965 142.646C301.965 142.646 303.18 143.044 305.239 143.903C321.693 150.758 335.014 160.932 343.237 177.126C346.081 182.718 348.317 189.024 349.862 196.165C351.603 204.195 353.03 214.019 354.381 229.458C354.381 229.458 342.441 225.806 313.469 235.951Z" fill="#FF9954"/>
<path fill-rule="evenodd" clip-rule="evenodd" d="M242.772 270.675C268.695 276.368 313.783 271.324 319.397 270.661L312.924 236.048C312.875 235.785 313.027 235.526 313.281 235.438C338.38 226.649 350.682 228.125 353.764 228.752C352.52 214.736 351.146 204.697 349.321 196.276C347.828 189.377 345.614 183.016 342.742 177.368C335.265 162.644 322.927 151.86 305.021 144.4C303.441 143.741 302.356 143.354 301.957 143.216C290.404 146.992 280.504 146.296 274.22 145.042C268.054 143.812 264.157 141.867 263.311 141.419C260.646 141.811 229.137 146.513 184.032 156.16C184.886 160.008 189.693 183.462 183.776 198.859C188.412 198.814 211.898 198.398 226.31 194.54C226.459 194.502 226.618 194.525 226.748 194.607C226.878 194.69 226.967 194.823 226.993 194.973C227.046 195.286 232.464 226.66 242.772 270.675ZM274.793 274.438C263.237 274.438 251.478 273.744 242.201 271.66C241.997 271.615 241.837 271.456 241.789 271.254C232.196 230.333 226.814 200.254 226.022 195.742C209.849 199.902 183.245 199.951 182.974 199.951C182.792 199.951 182.621 199.861 182.52 199.71C182.418 199.56 182.399 199.37 182.469 199.202C189.255 182.84 182.915 156.142 182.85 155.875C182.816 155.733 182.84 155.583 182.919 155.459C182.997 155.336 183.123 155.249 183.267 155.218C230.529 145.093 263.017 140.368 263.34 140.322C263.462 140.305 263.583 140.327 263.689 140.386C263.85 140.477 280.013 149.325 301.792 142.132C301.905 142.095 302.026 142.095 302.137 142.131C302.188 142.148 303.396 142.545 305.451 143.402C323.608 150.967 336.127 161.919 343.726 176.882C346.64 182.612 348.884 189.062 350.397 196.051C352.264 204.667 353.661 214.955 354.926 229.412C354.942 229.591 354.866 229.766 354.725 229.879C354.584 229.993 354.393 230.029 354.22 229.977C354.191 229.967 351.186 229.086 344.713 229.447C338.794 229.776 328.695 231.236 314.092 236.308L320.585 271.032C320.612 271.179 320.578 271.33 320.489 271.451C320.4 271.571 320.265 271.65 320.116 271.669C319.784 271.711 297.692 274.438 274.793 274.438Z" fill="#2C2E2B"/>
<path fill-rule="evenodd" clip-rule="evenodd" d="M313.465 236.492C313.206 236.492 312.976 236.31 312.927 236.049C308.046 209.928 304.643 203.36 304.609 203.297C304.468 203.032 304.569 202.705 304.836 202.565C305.103 202.423 305.433 202.524 305.575 202.787C305.716 203.048 309.073 209.472 314.003 235.851C314.059 236.146 313.863 236.429 313.565 236.483C313.531 236.489 313.498 236.492 313.465 236.492Z" fill="#2C2E2B"/>
<path fill-rule="evenodd" clip-rule="evenodd" d="M225 175.672C225 175.672 225.196 187.617 226.654 196.166L225 175.672Z" fill="#FFD87F"/>
<path fill-rule="evenodd" clip-rule="evenodd" d="M226.654 196.708C226.392 196.708 226.161 196.52 226.115 196.256C224.667 187.765 224.455 175.8 224.453 175.68C224.448 175.38 224.689 175.134 224.991 175.129H225C225.298 175.129 225.542 175.366 225.548 175.662C225.549 175.781 225.76 187.666 227.194 196.075C227.245 196.37 227.044 196.65 226.746 196.7C226.715 196.705 226.684 196.708 226.654 196.708Z" fill="#2C2E2B"/>
<path fill-rule="evenodd" clip-rule="evenodd" d="M282.887 152.272C282.358 152.272 281.834 152.265 281.316 152.252C281.134 152.247 280.991 152.098 280.996 151.918C281.001 151.739 281.143 151.596 281.333 151.602C283.224 151.65 285.193 151.608 287.184 151.477C287.363 151.467 287.521 151.601 287.533 151.78C287.546 151.96 287.409 152.114 287.228 152.126C285.762 152.223 284.308 152.272 282.887 152.272Z" fill="#2C2E2B"/>
<path fill-rule="evenodd" clip-rule="evenodd" d="M276.78 151.945C276.768 151.945 276.756 151.945 276.743 151.944C265.993 150.765 261.089 146.845 260.885 146.678C260.746 146.564 260.726 146.359 260.841 146.221C260.956 146.082 261.163 146.063 261.303 146.176C261.352 146.216 266.28 150.142 276.815 151.297C276.996 151.317 277.126 151.478 277.105 151.656C277.087 151.822 276.945 151.945 276.78 151.945Z" fill="#2C2E2B"/>
<path fill-rule="evenodd" clip-rule="evenodd" d="M226.464 195.392C226.381 195.392 226.298 195.362 226.235 195.3C220.691 189.957 213.641 177.41 213.57 177.284C213.482 177.127 213.54 176.929 213.698 176.842C213.857 176.754 214.057 176.812 214.145 176.969C214.215 177.094 221.218 189.557 226.692 194.834C226.823 194.959 226.825 195.165 226.699 195.293C226.634 195.359 226.549 195.392 226.464 195.392Z" fill="#2C2E2B"/>
<path fill-rule="evenodd" clip-rule="evenodd" d="M259.891 203.392C259.821 203.392 259.751 203.371 259.691 203.325L254.647 199.49C254.503 199.381 254.476 199.177 254.587 199.034C254.697 198.892 254.904 198.865 255.047 198.975L260.091 202.809C260.235 202.918 260.262 203.123 260.152 203.265C260.087 203.349 259.989 203.392 259.891 203.392Z" fill="#2C2E2B"/>
<path fill-rule="evenodd" clip-rule="evenodd" d="M264.934 202.43C264.865 202.43 264.794 202.409 264.734 202.363L254.647 194.693C254.503 194.584 254.476 194.379 254.586 194.237C254.697 194.095 254.904 194.068 255.047 194.177L265.134 201.848C265.278 201.957 265.305 202.161 265.195 202.304C265.13 202.387 265.033 202.43 264.934 202.43Z" fill="#2C2E2B"/>
<path fill-rule="evenodd" clip-rule="evenodd" d="M264.938 197.543C264.868 197.543 264.798 197.522 264.738 197.476L261.962 195.364C261.818 195.255 261.791 195.051 261.901 194.909C262.011 194.766 262.218 194.739 262.361 194.849L265.138 196.961C265.282 197.07 265.309 197.274 265.199 197.417C265.134 197.5 265.036 197.543 264.938 197.543Z" fill="#2C2E2B"/>
<path fill-rule="evenodd" clip-rule="evenodd" d="M334.28 175.997C334.123 175.997 333.985 175.885 333.957 175.727C332.831 169.208 327.385 165.024 327.33 164.983C327.186 164.874 327.158 164.669 327.268 164.527C327.377 164.384 327.583 164.356 327.728 164.465C327.961 164.641 333.434 168.839 334.605 175.617C334.635 175.794 334.515 175.962 334.337 175.993C334.317 175.996 334.299 175.997 334.28 175.997Z" fill="#2C2E2B"/>
<path fill-rule="evenodd" clip-rule="evenodd" d="M184.059 3.69595C181.81 5.1679 179.627 7.13916 177.701 9.53765C171.266 17.5577 170.17 27.3121 175.254 31.3187C175.529 31.5344 175.811 31.7274 176.119 31.8944L179.466 34.1205C179.017 34.3867 178.57 34.6383 178.115 34.8595C177.77 35.0373 177.429 35.2016 177.089 35.3447C176.688 35.5176 176.292 35.6759 175.896 35.8142C174.689 36.2333 173.494 36.4951 172.347 36.5841C171.89 36.6177 171.431 36.6247 170.985 36.6014C170.539 36.5786 170.106 36.5255 169.678 36.4442C169.397 36.384 169.116 36.3179 168.844 36.2354C168.439 36.1145 168.046 35.9638 167.664 35.7762C167.26 35.5816 166.874 35.355 166.503 35.0839C161.28 31.2623 162.016 21.4759 168.153 13.2324C172.721 7.09905 178.996 3.53818 184.059 3.69595Z" fill="#443D7A"/>
<path fill-rule="evenodd" clip-rule="evenodd" d="M182.212 4.34363C177.58 4.98011 172.414 8.42984 168.594 13.5586C162.644 21.5483 161.853 31.0111 166.829 34.6522C167.161 34.8945 167.512 35.1043 167.903 35.2924C168.255 35.4649 168.612 35.6042 169.002 35.7207C169.261 35.7994 169.528 35.8617 169.794 35.9186C170.193 35.994 170.596 36.0428 171.014 36.0645C171.427 36.0856 171.863 36.0797 172.307 36.0477C173.395 35.9631 174.543 35.7137 175.715 35.3065C176.072 35.1818 176.45 35.0333 176.871 34.8517C177.177 34.7226 177.5 34.5698 177.862 34.3827C178.046 34.2938 178.232 34.1978 178.431 34.0894L175.815 32.3486C175.543 32.2043 175.234 31.9994 174.914 31.7473C169.601 27.5603 170.66 17.448 177.273 9.20457C178.772 7.33794 180.427 5.70877 182.212 4.34363ZM171.511 37.1566C171.323 37.1566 171.137 37.1518 170.955 37.1426C170.493 37.1187 170.028 37.0629 169.573 36.9761C169.204 36.8975 168.933 36.8292 168.682 36.7538C168.242 36.6221 167.816 36.4562 167.42 36.2616C166.971 36.0452 166.563 35.8018 166.177 35.5199C160.715 31.5237 161.404 21.3811 167.711 12.9099C172.25 6.81504 178.669 2.99231 184.075 3.15333C184.313 3.16092 184.519 3.32032 184.584 3.54748C184.649 3.77464 184.559 4.01753 184.359 4.14764C182.108 5.62121 179.953 7.6017 178.128 9.87441C171.89 17.65 170.753 27.0791 175.593 30.8937C175.864 31.1068 176.121 31.2781 176.38 31.418L179.77 33.6701C179.925 33.7736 180.017 33.9487 180.011 34.1347C180.007 34.3201 179.906 34.4903 179.745 34.5858C179.193 34.9127 178.764 35.1469 178.354 35.3459C177.979 35.5399 177.631 35.7048 177.301 35.843C176.861 36.0333 176.459 36.1911 176.076 36.325C174.813 36.7636 173.573 37.0325 172.388 37.1241C172.091 37.1458 171.798 37.1566 171.511 37.1566Z" fill="#2C2E2B"/>
<path fill-rule="evenodd" clip-rule="evenodd" d="M266.847 80.0456C265.532 81.8688 263.673 83.0789 261.638 83.6162C259.962 84.0548 258.175 84.0369 256.488 83.5289C255.934 83.8271 255.343 84.0721 254.742 84.2532C252.276 85.0014 249.521 84.7444 247.149 83.3299L207.045 59.3407L178.032 41.9837L167.661 35.7836C168.045 35.9707 168.434 36.1165 168.841 36.2396C169.112 36.3214 169.396 36.3973 169.673 36.4499C170.103 36.5318 170.534 36.5838 170.982 36.6077C171.431 36.631 171.885 36.625 172.346 36.5898C173.49 36.5025 174.681 36.2396 175.891 35.8183C176.286 35.6784 176.687 35.5207 177.088 35.351C177.43 35.2051 177.773 35.0414 178.115 34.8663C178.569 34.644 179.012 34.3925 179.466 34.1241L176.115 31.8975C176.197 31.956 176.286 32.0086 176.381 32.0552C177.773 32.7974 179.389 33.107 181.136 33.0192C185.961 32.7974 191.719 29.5424 196.125 24.0487C198.184 21.4778 199.7 18.7253 200.638 16.0427C202.391 11.0522 202.137 6.28343 199.689 3.36719L265.809 68.0363C269.089 71.2448 269.531 76.3291 266.847 80.0456Z" fill="#6E61CD"/>
<path fill-rule="evenodd" clip-rule="evenodd" d="M171.012 37.1552L247.435 82.8695C249.581 84.1485 252.187 84.4651 254.585 83.7386C255.151 83.5678 255.704 83.3385 256.23 83.056C256.359 82.9866 256.51 82.9709 256.651 83.0137C258.22 83.486 259.898 83.5152 261.501 83.0956C263.475 82.5741 265.217 81.3802 266.405 79.7337C268.943 76.2184 268.532 71.4632 265.427 68.4255L201.792 6.18683C202.653 8.99627 202.457 12.5257 201.158 16.2243C200.176 19.0337 198.584 21.8578 196.557 24.3896C192.207 29.8122 186.309 33.3276 181.164 33.5645C180.612 33.5916 180.077 33.5818 179.559 33.5347L179.774 33.6773C179.929 33.7808 180.021 33.9559 180.016 34.1419C180.011 34.3273 179.91 34.4981 179.749 34.593C179.346 34.831 178.867 35.108 178.36 35.3558C177.992 35.5444 177.645 35.7087 177.308 35.8524C176.884 36.0318 176.471 36.1934 176.079 36.3322C174.808 36.7746 173.569 37.0435 172.391 37.134C171.928 37.1693 171.465 37.1763 171.012 37.1552ZM251.999 85.2053C250.21 85.2053 248.433 84.7277 246.872 83.7973L167.384 36.2505C167.133 36.1003 167.046 35.781 167.186 35.5262C167.326 35.2708 167.644 35.1711 167.908 35.2995C168.244 35.4633 168.603 35.6021 169.006 35.7235C169.304 35.813 169.557 35.8775 169.782 35.9203C170.193 35.9984 170.597 36.0466 171.017 36.0689C171.44 36.0905 171.875 36.0851 172.308 36.0521C173.392 35.9691 174.538 35.7192 175.715 35.3098C176.084 35.1786 176.476 35.0252 176.879 34.855C177.19 34.7222 177.514 34.5687 177.869 34.3871C178.063 34.2922 178.254 34.1925 178.437 34.0922L175.917 32.4175C175.878 32.3931 175.84 32.3676 175.802 32.341C175.559 32.1686 175.5 31.8346 175.67 31.5912C175.841 31.3478 176.177 31.2844 176.425 31.4497L176.511 31.5066C176.549 31.53 176.589 31.5522 176.631 31.5728C177.924 32.2624 179.43 32.5628 181.113 32.4803C185.954 32.2575 191.544 28.8983 195.702 23.7143C197.654 21.2773 199.184 18.5638 200.127 15.8677C201.853 10.9509 201.534 6.40874 199.273 3.7164C199.086 3.49412 199.109 3.16612 199.324 2.9704C199.538 2.77468 199.871 2.78065 200.079 2.98395L266.199 67.6531C269.689 71.067 270.151 76.4127 267.298 80.3639C265.962 82.2142 264.005 83.5561 261.785 84.1427C260.057 84.5943 258.254 84.5829 256.553 84.1134C256.023 84.3829 255.47 84.6051 254.906 84.7748C253.955 85.0633 252.975 85.2053 251.999 85.2053Z" fill="#2C2E2B"/>
<path fill-rule="evenodd" clip-rule="evenodd" d="M200.641 16.0426C199.699 18.7247 198.187 21.4766 196.124 24.0459C191.722 29.5384 185.961 32.7962 181.135 33.0185C179.392 33.1031 177.772 32.7935 176.383 32.0546C176.288 32.0058 176.201 31.9554 176.117 31.8974C175.808 31.7304 175.526 31.5374 175.252 31.3216C170.168 27.3151 171.264 17.5606 177.699 9.54058C179.625 7.14209 181.807 5.17082 184.057 3.69887C189.339 0.219334 195.006 -0.547271 198.571 2.26488C198.99 2.59017 199.36 2.96155 199.692 3.36328C202.136 6.28386 202.39 11.0499 200.641 16.0426Z" fill="#443D7A"/>
<path fill-rule="evenodd" clip-rule="evenodd" d="M193.229 1.08109C190.538 1.08109 187.447 2.11768 184.366 4.14696C182.113 5.62162 179.958 7.60211 178.134 9.87481C171.895 17.6504 170.758 27.0795 175.598 30.8941C175.869 31.1072 176.127 31.2785 176.385 31.4184C176.404 31.4281 176.421 31.439 176.438 31.4503C176.502 31.4953 176.57 31.5338 176.642 31.5707C177.924 32.2533 179.428 32.558 181.115 32.4734C185.957 32.2511 191.545 28.8914 195.701 23.7062C197.648 21.2817 199.179 18.5699 200.131 15.8613C201.852 10.9461 201.533 6.40232 199.277 3.70619C198.953 3.31313 198.605 2.97212 198.24 2.68911C196.874 1.61185 195.153 1.08109 193.229 1.08109ZM180.577 33.5716C178.925 33.5716 177.431 33.2219 176.129 32.5296C176.028 32.4776 175.929 32.4206 175.833 32.3561C175.528 32.1891 175.228 31.9885 174.916 31.7435C169.603 27.5564 170.662 17.4442 177.275 9.20076C179.198 6.80552 181.38 4.80173 183.76 3.24358C189.453 -0.50704 195.262 -1.04486 198.917 1.83832C199.342 2.16794 199.748 2.56589 200.121 3.0175C202.621 6.00531 203.011 10.9411 201.163 16.2178L201.163 16.2184C200.171 19.0403 198.578 21.8628 196.557 24.3811C192.211 29.8042 186.313 33.3206 181.166 33.5575C180.967 33.5668 180.771 33.5716 180.577 33.5716Z" fill="#2C2E2B"/>
<path fill-rule="evenodd" clip-rule="evenodd" d="M176.12 32.437C176.015 32.437 175.909 32.4072 175.815 32.3449L174.95 31.7691C174.698 31.6021 174.632 31.2654 174.8 31.0166C174.969 30.7683 175.309 30.7021 175.56 30.8691L176.426 31.4449C176.676 31.6119 176.743 31.9485 176.575 32.1974C176.469 32.353 176.296 32.437 176.12 32.437Z" fill="#2C2E2B"/>
<path fill-rule="evenodd" clip-rule="evenodd" d="M256.491 84.0619C256.389 84.0619 256.286 84.0337 256.194 83.9746L201.283 48.7552C201.029 48.5926 200.956 48.257 201.121 48.0054C201.285 47.7539 201.624 47.6823 201.877 47.8449L256.788 83.0648C257.042 83.2275 257.115 83.5631 256.95 83.8141C256.846 83.9746 256.67 84.0619 256.491 84.0619Z" fill="#2C2E2B"/>
<path fill-rule="evenodd" clip-rule="evenodd" d="M197.359 46.1442C197.258 46.1442 197.154 46.116 197.063 46.057L179.167 34.579C178.913 34.4164 178.841 34.0808 179.005 33.8298C179.17 33.5777 179.508 33.5061 179.762 33.6693L197.657 45.1472C197.911 45.3099 197.984 45.6455 197.819 45.8965C197.715 46.057 197.539 46.1442 197.359 46.1442Z" fill="#2C2E2B"/>
<path fill-rule="evenodd" clip-rule="evenodd" d="M183.105 10.1903C183.031 10.1903 182.957 10.1659 182.896 10.1155C182.756 10.0005 182.737 9.7956 182.853 9.65735C183.95 8.34534 185.181 7.23881 186.51 6.36919C189.223 4.58171 192.017 3.9886 194.176 4.74165C194.346 4.80129 194.436 4.98725 194.376 5.1564C194.316 5.32555 194.128 5.41609 193.957 5.35537C191.994 4.67063 189.412 5.23826 186.873 6.91135C185.597 7.74626 184.415 8.80997 183.358 10.0726C183.293 10.1502 183.2 10.1903 183.105 10.1903Z" fill="#2C2E2B"/>
<path fill-rule="evenodd" clip-rule="evenodd" d="M253.8 82.1227C253.622 82.1227 253.476 81.9828 253.472 81.8061C253.467 81.6261 253.61 81.477 253.792 81.4721C264.617 81.1891 265.221 73.7659 265.242 73.4498C265.839 70.3363 264.629 67.0861 261.928 64.4918C261.797 64.3672 261.794 64.1611 261.921 64.0321C262.047 63.9036 262.255 63.9004 262.385 64.0251C265.248 66.7743 266.525 70.2392 265.892 73.5312C265.892 73.5735 265.254 81.8234 253.809 82.1227C253.806 82.1227 253.802 82.1227 253.8 82.1227Z" fill="#2C2E2B"/>
<path fill-rule="evenodd" clip-rule="evenodd" d="M248.577 83.1526C247.695 83.1526 246.727 83.0593 245.695 82.8165C245.519 82.7753 245.41 82.5996 245.451 82.425C245.494 82.2499 245.671 82.1442 245.847 82.1832C250.018 83.1651 253.192 81.5272 253.224 81.511C253.383 81.4264 253.582 81.486 253.667 81.6449C253.753 81.8032 253.693 82 253.533 82.0846C253.428 82.1404 251.474 83.1526 248.577 83.1526Z" fill="#2C2E2B"/>
<path fill-rule="evenodd" clip-rule="evenodd" d="M241.924 53.0276C241.858 53.0276 241.792 53.0081 241.734 52.9674C241.586 52.8633 241.551 52.6606 241.656 52.5142C243.714 49.6419 243.599 46.6676 243.598 46.6378C243.589 46.4589 243.729 46.3065 243.91 46.2973C244.093 46.2886 244.245 46.4269 244.253 46.6064C244.26 46.7365 244.387 49.8267 242.192 52.8905C242.128 52.9799 242.026 53.0276 241.924 53.0276Z" fill="#2C2E2B"/>
<path fill-rule="evenodd" clip-rule="evenodd" d="M240.066 48.2C240.02 48.2 239.974 48.1908 239.93 48.1713C239.765 48.097 239.692 47.9046 239.767 47.7408C240.782 45.5158 240.701 43.6259 240.7 43.6075C240.691 43.428 240.83 43.2751 241.011 43.2664C241.201 43.2534 241.347 43.396 241.356 43.5749C241.36 43.6584 241.445 45.6422 240.365 48.0087C240.31 48.129 240.191 48.2 240.066 48.2Z" fill="#2C2E2B"/>
<path fill-rule="evenodd" clip-rule="evenodd" d="M182.755 45.1321C182.597 45.1321 182.458 45.0187 182.431 44.8593C182.402 44.6815 182.523 44.5145 182.702 44.4858C182.894 44.4544 187.409 43.6753 187.828 39.6639C187.845 39.5012 187.982 39.3766 188.146 39.3722C188.239 39.3695 197.575 39.022 205.153 30.2142C208.701 26.09 209.891 21.9181 210.263 19.1445C210.668 16.1334 210.227 14.071 210.222 14.0504C210.184 13.8747 210.296 13.7013 210.473 13.6633C210.652 13.6254 210.826 13.7354 210.864 13.9111C210.884 13.9984 211.333 16.0835 210.919 19.2003C210.537 22.0683 209.314 26.3806 205.653 30.636C201.592 35.3565 197.061 37.6563 193.975 38.7547C191.249 39.7252 189.177 39.9539 188.446 40.0071C187.798 44.2776 182.858 45.1196 182.808 45.1277C182.79 45.131 182.772 45.1321 182.755 45.1321Z" fill="#2C2E2B"/>
<path fill-rule="evenodd" clip-rule="evenodd" d="M140.397 81.6045C157.355 93.8485 173.945 93.6517 173.945 93.6517C170.997 77.2526 182.491 68.0214 182.491 68.0214C182.491 68.0214 158.62 64.8146 148.603 40.293C148.603 40.293 136.231 59.5616 123.561 64.2318C126.76 68.8677 130.184 72.7734 133.687 76.0637" fill="#FFB99B"/>
<path fill-rule="evenodd" clip-rule="evenodd" d="M173.932 94.1932C173.192 94.1932 156.689 94.0344 140.079 82.0419C139.835 81.8657 139.782 81.5263 139.959 81.2845C140.138 81.0427 140.479 80.9891 140.724 81.1658C155.47 91.8126 170.1 92.9701 173.301 93.0943C171.159 79.5811 178.745 70.8736 181.323 68.3558C176.549 67.362 157.466 62.1666 148.498 41.4417C147.39 43.0741 144.749 46.8258 141.253 50.8632C135.24 57.8082 129.576 62.3872 124.408 64.4865C127.307 68.609 130.555 72.3688 134.067 75.6695C134.287 75.8755 134.296 76.2187 134.088 76.4361C133.88 76.6529 133.534 76.6627 133.314 76.4561C129.586 72.9538 126.154 68.9435 123.113 64.5369C123.018 64.3992 122.992 64.2257 123.043 64.0668C123.094 63.908 123.216 63.7806 123.374 63.7226C135.726 59.1701 148.023 40.1926 148.145 40.0012C148.255 39.8304 148.456 39.7334 148.657 39.7524C148.861 39.7708 149.038 39.9009 149.115 40.089C158.891 64.0202 182.334 67.4515 182.569 67.4835C182.785 67.5128 182.963 67.6662 183.022 67.8744C183.081 68.082 183.01 68.3054 182.84 68.4415C182.728 68.532 171.634 77.6803 174.489 93.5562C174.517 93.7129 174.474 93.8739 174.372 93.9969C174.269 94.1195 174.117 94.1916 173.956 94.1932H173.932Z" fill="#2C2E2B"/>
<path fill-rule="evenodd" clip-rule="evenodd" d="M441.515 115.452C425.43 127.066 409.694 126.879 409.694 126.879C412.491 111.325 401.589 102.568 401.589 102.568C401.589 102.568 424.231 99.5269 433.732 76.269C433.732 76.269 445.466 94.545 457.484 98.9739C454.45 103.371 451.201 107.076 447.88 110.196" fill="#FFE3CD"/>
<path fill-rule="evenodd" clip-rule="evenodd" d="M409.715 127.42H409.691C409.53 127.418 409.379 127.347 409.276 127.224C409.174 127.101 409.131 126.94 409.159 126.783C411.863 111.743 401.354 103.075 401.247 102.989C401.078 102.853 401.006 102.629 401.065 102.422C401.124 102.214 401.302 102.061 401.518 102.031C401.742 102 423.961 98.747 433.228 76.0649C433.305 75.8768 433.481 75.7467 433.685 75.7288C433.887 75.7104 434.086 75.8063 434.196 75.9777C434.313 76.1587 445.971 94.1512 457.678 98.4656C457.836 98.5237 457.958 98.6511 458.009 98.8099C458.059 98.9688 458.034 99.1423 457.938 99.28C455.054 103.461 451.797 107.265 448.26 110.589C448.041 110.796 447.694 110.787 447.486 110.569C447.278 110.352 447.286 110.009 447.506 109.803C450.829 106.681 453.901 103.125 456.644 99.2285C451.747 97.2301 446.382 92.8891 440.689 86.3133C437.402 82.5177 434.912 78.9877 433.844 77.4165C425.356 96.9736 407.375 101.933 402.761 102.903C405.243 105.34 412.351 113.577 410.346 126.321C413.447 126.196 427.266 125.071 441.196 115.013C441.44 114.838 441.782 114.891 441.96 115.133C442.138 115.374 442.084 115.713 441.84 115.89C426.079 127.269 410.419 127.42 409.715 127.42Z" fill="#2C2E2B"/>
<path fill-rule="evenodd" clip-rule="evenodd" d="M165.348 296.498C112.683 311.936 92.304 269.143 92.304 269.143C92.304 269.143 112.335 271.912 129.274 253.653C129.75 253.14 130.609 253.469 130.601 254.165C130.544 259.024 131.522 271.444 141.656 283.345C141.859 283.582 142.062 283.817 142.269 284.059C142.694 284.535 143.125 285.008 143.58 285.481C145.331 287.323 147.616 289.183 150.738 290.948C154.337 292.974 159.049 294.881 165.348 296.498Z" fill="#FFE3CD"/>
<path fill-rule="evenodd" clip-rule="evenodd" d="M93.2493 269.769C94.7302 272.477 99.8929 281.04 109.443 288.199C119.745 295.921 137.376 303.509 163.301 296.504C158.281 295.095 153.97 293.385 150.466 291.413C147.562 289.771 145.179 287.95 143.18 285.846C142.782 285.433 142.373 284.989 141.857 284.412L141.238 283.691C130.972 271.635 129.996 259.018 130.052 254.152C130.053 254.032 129.981 253.979 129.92 253.955C129.868 253.934 129.766 253.914 129.675 254.013C120.83 263.548 111.132 267.299 104.555 268.767C99.212 269.96 95.0783 269.892 93.2493 269.769ZM143.549 300.371C127.817 300.371 116.337 294.741 108.75 289.045C97.1001 280.297 91.8647 269.485 91.8133 269.377C91.7273 269.197 91.7487 268.985 91.8674 268.825C91.9862 268.664 92.1838 268.58 92.3835 268.609C92.5811 268.635 112.341 271.112 128.875 253.288C129.249 252.887 129.819 252.756 130.33 252.957C130.836 253.155 131.159 253.633 131.153 254.175C131.097 258.919 132.052 271.223 142.078 282.999L142.691 283.712C143.189 284.27 143.59 284.704 143.981 285.11C145.907 287.137 148.206 288.893 151.014 290.481C154.87 292.651 159.74 294.5 165.489 295.976C165.727 296.038 165.895 296.249 165.899 296.492C165.904 296.736 165.743 296.952 165.507 297.021C157.429 299.389 150.118 300.371 143.549 300.371Z" fill="#2C2E2B"/>
<path fill-rule="evenodd" clip-rule="evenodd" d="M172.522 292.124C172.522 292.124 170.152 294.712 165.354 296.495C159.055 294.877 154.343 292.971 150.744 290.945C147.622 289.18 145.337 287.321 143.586 285.478C143.13 285.005 142.7 284.532 142.274 284.056C147.915 283.445 155.223 281.882 160.869 278.008C160.869 278.008 161.629 286.529 172.522 292.124Z" fill="#FFB99B"/>
<path fill-rule="evenodd" clip-rule="evenodd" d="M143.382 284.468C143.591 284.694 143.785 284.901 143.978 285.1C145.903 287.127 148.203 288.884 151.01 290.471C154.829 292.619 159.642 294.454 165.318 295.924C168.59 294.68 170.688 293.05 171.594 292.247C163.042 287.591 160.951 281.23 160.461 278.922C155.086 282.353 148.43 283.833 143.382 284.468ZM165.346 297.037C165.3 297.037 165.254 297.031 165.209 297.02C159.367 295.519 154.406 293.634 150.467 291.416C147.562 289.774 145.179 287.953 143.18 285.849C142.783 285.436 142.374 284.993 141.857 284.415C141.722 284.263 141.683 284.049 141.757 283.86C141.83 283.671 142.004 283.539 142.208 283.517C147.443 282.95 154.874 281.457 160.549 277.561C160.709 277.452 160.916 277.435 161.092 277.517C161.269 277.598 161.388 277.766 161.406 277.958C161.408 277.979 161.615 280.053 163.113 282.761C164.495 285.26 167.291 288.83 172.767 291.642C172.918 291.719 173.023 291.862 173.053 292.028C173.083 292.193 173.034 292.363 172.92 292.488C172.82 292.597 170.405 295.194 165.538 297.003C165.477 297.025 165.411 297.037 165.346 297.037Z" fill="#2C2E2B"/>
<path fill-rule="evenodd" clip-rule="evenodd" d="M123.952 290.553C123.937 290.553 123.923 290.553 123.908 290.551C116.357 289.567 112.437 282.312 112.398 282.239C112.314 282.08 112.376 281.884 112.537 281.8C112.697 281.716 112.895 281.778 112.98 281.936C113.017 282.007 116.786 288.966 123.994 289.906C124.174 289.929 124.3 290.093 124.277 290.271C124.255 290.434 124.114 290.553 123.952 290.553Z" fill="#2C2E2B"/>
<path fill-rule="evenodd" clip-rule="evenodd" d="M106.432 121.484C105.533 121.331 78.593 126.553 46.578 99.8944C23.9578 81.0589 15.7238 47.3375 13.7075 37.2909C13.516 36.3361 14.6171 35.6622 15.3981 36.2527C21.2952 40.7113 39.0259 51.2573 69.7745 46.1182C69.7745 46.1182 66.4579 67.9551 74.6268 89.7014C79.0517 101.493 92.8938 113.249 106.432 121.484Z" fill="#FFE3CD"/>
<path fill-rule="evenodd" clip-rule="evenodd" d="M14.7624 36.5741C14.6289 36.5741 14.5244 36.6288 14.4828 36.6548C14.4122 36.6982 14.1878 36.8646 14.2524 37.1856C16.2347 47.0653 24.4506 80.7552 46.9384 99.4796C71.6678 120.072 93.4299 121.953 104.738 121.074C82.4818 107.19 75.922 94.688 74.1214 89.891C66.8325 70.4868 68.6676 50.7779 69.1459 46.7725C38.833 51.6297 21.2539 41.3569 15.0739 36.6841C14.9639 36.6012 14.856 36.5741 14.7624 36.5741ZM100.287 122.33C88.045 122.33 68.2801 118.673 46.2302 100.312C23.4704 81.3603 15.1756 47.3667 13.1753 37.3993C13.0434 36.7427 13.328 36.0905 13.9005 35.737C14.4746 35.3814 15.1948 35.4155 15.735 35.8243C21.851 40.4489 39.3523 50.6571 69.6877 45.5869C69.8612 45.5554 70.0374 45.6129 70.1622 45.7343C70.2875 45.8563 70.3461 46.0298 70.3204 46.2017C70.287 46.4185 67.122 68.1583 75.1437 89.5154C76.9426 94.3075 83.6196 106.971 106.723 121.025C106.946 121.161 107.042 121.435 106.949 121.678C106.86 121.911 106.623 122.057 106.375 122.025H106.374C106.293 122.025 106.017 122.052 105.751 122.077C104.154 122.228 102.324 122.33 100.287 122.33Z" fill="#2C2E2B"/>
<path fill-rule="evenodd" clip-rule="evenodd" d="M106.436 121.486C92.8979 113.251 79.0557 101.495 74.6309 89.7036L74.7671 89.8657C75.8305 91.072 83.2989 98.6866 100.391 95.3024C100.391 95.3024 97.141 103.088 106.436 121.486Z" fill="#FFB99B"/>
<path fill-rule="evenodd" clip-rule="evenodd" d="M76.1848 91.9189C79.0012 97.6511 86.3667 108.296 105.102 120.028C98.3464 105.982 99.054 98.4583 99.6117 96.0008C86.7602 98.3131 79.4396 94.4632 76.1848 91.9189ZM106.429 122.027C106.331 122.027 106.231 122.001 106.143 121.947C82.7488 107.717 75.9487 94.7884 74.1103 89.8911C74.0178 89.6433 74.1185 89.3657 74.3489 89.2329C74.5799 89.1012 74.8727 89.1521 75.044 89.3549L75.1808 89.5176C76.4549 90.9629 83.6912 98.0532 100.276 94.7694C100.475 94.7293 100.678 94.8019 100.806 94.957C100.935 95.1115 100.967 95.3235 100.889 95.5083C100.859 95.5826 97.8847 103.363 106.918 121.242C107.028 121.459 106.979 121.721 106.799 121.885C106.696 121.979 106.563 122.027 106.429 122.027Z" fill="#2C2E2B"/>
<path fill-rule="evenodd" clip-rule="evenodd" d="M48.4356 88.1703C48.3688 88.1703 48.3015 88.1503 48.2435 88.1085C38.4973 81.1359 36.9884 70.147 36.9747 70.0369C36.9517 69.8586 37.0793 69.6959 37.2588 69.6732C37.4405 69.6531 37.603 69.7767 37.626 69.9551C37.6397 70.0624 39.1196 80.7786 48.6282 87.5816C48.7755 87.6862 48.8083 87.8895 48.7021 88.0353C48.6381 88.1237 48.5374 88.1703 48.4356 88.1703Z" fill="#2C2E2B"/>
<path fill-rule="evenodd" clip-rule="evenodd" d="M22.6382 89.7316C22.561 89.7316 22.4839 89.705 22.4215 89.6508C19.4092 87.0355 16.6273 84.0921 14.154 80.9026C14.0435 80.7601 14.0703 80.5557 14.2142 80.4461C14.3587 80.3372 14.5645 80.3632 14.6751 80.5058C17.122 83.6622 19.8738 86.5741 22.8549 89.1618C22.9912 89.28 23.0043 89.4855 22.885 89.6205C22.8204 89.6942 22.7296 89.7316 22.6382 89.7316Z" fill="#2C2E2B"/>
<path fill-rule="evenodd" clip-rule="evenodd" d="M9.06641 72.9207C8.95093 72.9207 8.83873 72.8599 8.77908 72.7531C3.2339 62.8399 0.946215 52.9472 0.00322861 46.3942C-0.0219469 46.2164 0.102836 46.0515 0.282348 46.0261C0.460766 46.0038 0.628238 46.1247 0.65396 46.3026C1.58874 52.8014 3.85672 62.6111 9.35319 72.4376C9.4413 72.5948 9.38384 72.7927 9.22567 72.88C9.17477 72.9077 9.12059 72.9207 9.06641 72.9207Z" fill="#2C2E2B"/>
<path fill-rule="evenodd" clip-rule="evenodd" d="M544.461 81.0154C539.557 83.3526 534.492 84.6581 529.442 85.0023C528.979 84.5285 528.54 84.0471 528.123 83.551C526.936 82.1224 525.934 80.5957 525.101 79.0603C523.583 76.2498 522.58 73.2176 522.041 70.1018C523.806 71.8969 531.2 78.6554 544.461 81.0154Z" fill="#FFB99B"/>
<path fill-rule="evenodd" clip-rule="evenodd" d="M522.907 71.6736C523.492 74.2092 524.386 76.6006 525.575 78.8012C526.444 80.4028 527.441 81.8839 528.537 83.203C528.883 83.6145 529.249 84.0211 529.65 84.4396C534.1 84.1084 538.474 83.0262 542.68 81.2187C532.359 79.0246 525.834 74.264 522.907 71.6736ZM529.434 85.5444C529.285 85.5444 529.144 85.4848 529.04 85.3791C528.549 84.8759 528.109 84.3912 527.694 83.8973C526.55 82.5219 525.514 80.9816 524.611 79.3167C523.109 76.536 522.06 73.4669 521.493 70.1933C521.453 69.9597 521.571 69.7265 521.784 69.6187C521.999 69.5108 522.258 69.5531 522.424 69.7233C524.333 71.6631 531.566 78.1711 544.549 80.4818C544.783 80.523 544.963 80.7095 544.995 80.9421C545.027 81.1752 544.903 81.4018 544.69 81.5037C539.812 83.8285 534.691 85.1871 529.471 85.5428C529.459 85.5439 529.446 85.5444 529.434 85.5444Z" fill="#2C2E2B"/>
<path fill-rule="evenodd" clip-rule="evenodd" d="M521.599 63.0373C521.492 65.4048 521.638 67.78 522.039 70.1021C522.578 73.2178 523.581 76.2501 525.1 79.0606C525.932 80.5954 526.934 82.1227 528.122 83.5507C528.538 84.0473 528.977 84.5287 529.44 85.0021C512.572 86.1476 495.88 76.5933 486.189 59.2492C475.432 40.0039 483.047 16.598 485.501 10.1713C485.728 9.57606 486.566 9.55763 486.815 10.1442C489.169 15.6943 498.997 33.4541 530.09 39.1971C530.779 39.3246 531.048 40.1589 530.545 40.6431C527.907 43.1852 522.173 50.1465 521.599 63.0373Z" fill="#FFE3CD"/>
<path fill-rule="evenodd" clip-rule="evenodd" d="M486.16 10.25H486.157C486.107 10.2511 486.04 10.2701 486.008 10.3563C483.482 16.9705 476.066 40.0234 486.663 58.9804C495.87 75.4591 511.737 85.155 528.239 84.5163C528.052 84.3081 527.871 84.1005 527.695 83.8912C526.552 82.5152 525.515 80.975 524.612 79.3106C523.11 76.5299 522.061 73.4602 521.494 70.1872C521.088 67.8343 520.938 65.419 521.047 63.0069C521.634 49.8239 527.614 42.6995 530.158 40.2479C530.273 40.1362 530.258 40.011 530.238 39.9459C530.221 39.8901 530.162 39.7562 529.984 39.7236C516.576 37.2471 505.582 32.2923 497.306 24.9971C490.652 19.131 487.558 13.3007 486.306 10.3481C486.272 10.2673 486.209 10.25 486.16 10.25ZM526.699 85.6372C510.338 85.6372 494.823 75.828 485.706 59.5119C474.882 40.1473 482.418 16.7035 484.984 9.97914C485.168 9.49825 485.621 9.18163 486.138 9.17188C486.146 9.17188 486.153 9.17188 486.162 9.17188C486.667 9.17188 487.119 9.46898 487.316 9.93414C489.563 15.231 499.292 32.9578 530.186 38.6639C530.711 38.761 531.133 39.134 531.287 39.6382C531.438 40.1348 531.299 40.6688 530.923 41.0315C528.472 43.3926 522.712 50.2655 522.142 63.0608V63.0614C522.036 65.3959 522.181 67.7342 522.574 70.0102C523.121 73.1682 524.132 76.1273 525.578 78.8044C526.446 80.4059 527.443 81.8871 528.54 83.2062C528.935 83.6768 529.357 84.1414 529.829 84.625C529.977 84.7768 530.023 84.9996 529.947 85.1964C529.87 85.3932 529.685 85.5282 529.473 85.5428C528.547 85.6057 527.621 85.6372 526.699 85.6372Z" fill="#2C2E2B"/>
<path fill-rule="evenodd" clip-rule="evenodd" d="M501.545 67.2375C501.488 67.2375 501.432 67.2207 501.383 67.1855C491.154 59.7802 491.035 50.6786 491.035 50.5875C491.035 50.4378 491.157 50.3164 491.309 50.3164C491.46 50.3164 491.583 50.4373 491.583 50.5869C491.583 50.6753 491.712 59.5135 501.706 66.7474C501.828 66.8358 501.854 67.0055 501.765 67.1264C501.712 67.1991 501.628 67.2375 501.545 67.2375Z" fill="#2C2E2B"/>
<path fill-rule="evenodd" clip-rule="evenodd" d="M526.839 102.027C503.208 102.027 486.902 90.6148 486.703 90.4722C486.556 90.367 486.523 90.1637 486.629 90.0179C486.735 89.8726 486.941 89.839 487.087 89.9442C487.331 90.1182 511.85 107.263 544.317 99.241C544.495 99.1965 544.671 99.3039 544.715 99.4779C544.759 99.652 544.652 99.8287 544.477 99.8721C538.273 101.405 532.356 102.027 526.839 102.027Z" fill="#2C2E2B"/>
<path fill-rule="evenodd" clip-rule="evenodd" d="M485.614 248.309C472.15 269.26 449.833 292.805 413.955 305.102C413.512 305.253 413.033 304.997 412.908 304.548C406.509 281.465 383.394 267.243 378.08 264.235C377.549 263.934 377.493 263.214 377.957 262.818C413.62 232.384 420.695 181.693 421.984 167.937C422.083 166.883 423.462 166.537 424.05 167.422C429.815 176.095 450.67 200.844 503.868 206.884C504.034 206.903 504.15 207.051 504.111 207.211C503.635 209.17 500.631 220.771 492.936 235.642" fill="white"/>
<path fill-rule="evenodd" clip-rule="evenodd" d="M413.697 305.687C413.478 305.687 413.261 305.635 413.064 305.533C412.731 305.359 412.482 305.053 412.383 304.693C405.994 281.645 382.463 267.34 377.811 264.706C377.406 264.476 377.149 264.083 377.104 263.626C377.059 263.167 377.245 262.711 377.602 262.407C412.882 232.3 420.077 182.449 421.441 167.887C421.508 167.174 422.005 166.6 422.706 166.426C423.404 166.253 424.112 166.527 424.509 167.124C427.333 171.373 433.942 179.694 446.47 187.685C461.831 197.482 481.164 203.76 503.933 206.346C504.172 206.373 504.387 206.499 504.523 206.692C504.655 206.88 504.7 207.116 504.646 207.339C504.12 209.501 501.108 221.044 493.425 235.89C493.288 236.156 492.956 236.263 492.688 236.124C492.42 235.988 492.313 235.661 492.451 235.395C499.77 221.252 502.813 210.153 503.507 207.388C480.701 204.763 461.313 198.442 445.878 188.596C433.18 180.498 426.467 172.04 423.595 167.72C423.385 167.404 423.063 167.455 422.971 167.478C422.877 167.501 422.567 167.608 422.532 167.988C421.157 182.652 413.908 232.857 378.316 263.229C378.227 263.305 378.182 263.411 378.193 263.522C378.199 263.582 378.228 263.693 378.354 263.764C383.072 266.436 406.936 280.947 413.437 304.405C413.465 304.503 413.535 304.553 413.574 304.573C413.612 304.593 413.688 304.62 413.778 304.59C443.581 294.375 467.595 275.341 485.154 248.018C485.316 247.765 485.654 247.692 485.91 247.852C486.165 248.013 486.24 248.348 486.078 248.6C478.292 260.716 469.03 271.402 458.549 280.361C445.553 291.472 430.61 299.968 414.137 305.614C413.994 305.663 413.845 305.687 413.697 305.687Z" fill="#2C2E2B"/>
<path fill-rule="evenodd" clip-rule="evenodd" d="M418.025 284.785C417.911 284.785 417.805 284.715 417.766 284.602C412.077 268.171 399.789 265.265 399.665 265.238C399.518 265.206 399.425 265.06 399.458 264.915C399.492 264.769 399.636 264.678 399.784 264.709C399.911 264.737 412.491 267.694 418.283 284.426C418.332 284.568 418.257 284.722 418.113 284.77C418.084 284.78 418.054 284.785 418.025 284.785Z" fill="#2C2E2B"/>
<path fill-rule="evenodd" clip-rule="evenodd" d="M460.968 298.875C460.829 298.875 460.7 298.786 460.656 298.649C460.6 298.477 460.695 298.294 460.867 298.239C473.257 294.305 483.844 286.02 492.334 273.615C492.436 273.468 492.639 273.428 492.79 273.528C492.94 273.63 492.979 273.832 492.878 273.981C484.303 286.508 473.601 294.879 461.069 298.859C461.035 298.869 461.001 298.875 460.968 298.875Z" fill="#2C2E2B"/>
<path fill-rule="evenodd" clip-rule="evenodd" d="M496.582 267.701C496.528 267.701 496.474 267.688 496.423 267.66C496.265 267.573 496.207 267.375 496.295 267.218C500.269 260.108 501.999 254.597 502.016 254.543C502.069 254.371 502.254 254.273 502.426 254.327C502.6 254.38 502.697 254.562 502.644 254.734C502.627 254.789 500.88 260.359 496.869 267.533C496.809 267.641 496.698 267.701 496.582 267.701Z" fill="#2C2E2B"/>
</g>
<defs>
<clipPath id="clip0_960_3264">
<rect width="545" height="329" fill="white"/>
</clipPath>
</defs>
</svg>
