<svg width="119" height="16" viewBox="0 0 119 16" fill="none" xmlns="http://www.w3.org/2000/svg">
  <path
    d="M8.38165 15.5C6.8041 15.5 5.37399 15.1823 4.09131 14.547C2.82337 13.8978 1.82082 13.0069 1.08364 11.8743C0.361215 10.7279 0 9.43646 0 8C0 6.56354 0.361215 5.27901 1.08364 4.14641C1.82082 3 2.82337 2.10912 4.09131 1.47376C5.37399 0.824586 6.81147 0.5 8.40376 0.5C9.74542 0.5 10.9544 0.720994 12.0307 1.16298C13.1217 1.60497 14.0358 2.24033 14.7729 3.06906L12.473 5.05801C11.4262 3.92541 10.1287 3.35912 8.58069 3.35912C7.62236 3.35912 6.76724 3.55939 6.01533 3.95994C5.26341 4.34668 4.67367 4.89226 4.24611 5.59668C3.8333 6.30111 3.62689 7.10221 3.62689 8C3.62689 8.89779 3.8333 9.6989 4.24611 10.4033C4.67367 11.1077 5.26341 11.6602 6.01533 12.0608C6.76724 12.4475 7.62236 12.6409 8.58069 12.6409C10.1287 12.6409 11.4262 12.0677 12.473 10.9213L14.7729 12.9102C14.0358 13.7528 13.1217 14.395 12.0307 14.837C10.9396 15.279 9.7233 15.5 8.38165 15.5Z"
    fill="#2C2E2B"/>
  <path
    d="M24.3654 15.5C22.7584 15.5 21.3061 15.1754 20.0087 14.5262C18.726 13.8771 17.7161 12.9862 16.9789 11.8536C16.2565 10.7072 15.8953 9.42265 15.8953 8C15.8953 6.57735 16.2565 5.29972 16.9789 4.16713C17.7161 3.02072 18.726 2.12293 20.0087 1.47376C21.3061 0.824586 22.7584 0.5 24.3654 0.5C25.9724 0.5 27.4173 0.824586 28.7 1.47376C29.9826 2.12293 30.9926 3.02072 31.7297 4.16713C32.4669 5.29972 32.8355 6.57735 32.8355 8C32.8355 9.42265 32.4669 10.7072 31.7297 11.8536C30.9926 12.9862 29.9826 13.8771 28.7 14.5262C27.4173 15.1754 25.9724 15.5 24.3654 15.5ZM24.3654 12.6409C25.2795 12.6409 26.1051 12.4475 26.8423 12.0608C27.5795 11.6602 28.1545 11.1077 28.5673 10.4033C28.9948 9.6989 29.2086 8.89779 29.2086 8C29.2086 7.10221 28.9948 6.30111 28.5673 5.59668C28.1545 4.89226 27.5795 4.34668 26.8423 3.95994C26.1051 3.55939 25.2795 3.35912 24.3654 3.35912C23.4513 3.35912 22.6257 3.55939 21.8885 3.95994C21.1513 4.34668 20.569 4.89226 20.1414 5.59668C19.7286 6.30111 19.5222 7.10221 19.5222 8C19.5222 8.89779 19.7286 9.6989 20.1414 10.4033C20.569 11.1077 21.1513 11.6602 21.8885 12.0608C22.6257 12.4475 23.4513 12.6409 24.3654 12.6409Z"
    fill="#2C2E2B"/>
  <path d="M35.528 0.748618H39.1107V15.2514H35.528V0.748618Z" fill="#2C2E2B"/>
  <path
    d="M56.9825 0.748618V15.2514H54.0412L46.323 6.44613V15.2514H42.7846V0.748618H45.748L53.4441 9.55387V0.748618H56.9825Z"
    fill="#2C2E2B"/>
  <path
    d="M65.7316 15.5C64.5079 15.5 63.3211 15.3481 62.1711 15.0442C61.0358 14.7265 60.1218 14.3191 59.4288 13.8218L60.6451 11.2942C61.3086 11.75 62.0974 12.116 63.0115 12.3923C63.9256 12.6685 64.8397 12.8066 65.7538 12.8066C66.771 12.8066 67.523 12.6685 68.0095 12.3923C68.496 12.1022 68.7393 11.7224 68.7393 11.2528C68.7393 10.9075 68.5919 10.6243 68.297 10.4033C68.0169 10.1685 67.6483 9.98204 67.1912 9.84392C66.7489 9.7058 66.1445 9.55387 65.3778 9.38812C64.1983 9.12569 63.2326 8.86326 62.4807 8.60083C61.7288 8.3384 61.0801 7.91713 60.5346 7.33702C60.0038 6.75691 59.7384 5.98343 59.7384 5.01657C59.7384 4.17403 59.9817 3.41436 60.4682 2.73757C60.9548 2.04696 61.6846 1.50138 62.6576 1.10083C63.6454 0.700276 64.847 0.5 66.2624 0.5C67.2502 0.5 68.2159 0.610497 69.1595 0.831491C70.1031 1.05249 70.9287 1.37017 71.6364 1.78453L70.5306 4.33287C69.1005 3.5732 67.6704 3.19337 66.2403 3.19337C65.2377 3.19337 64.4932 3.3453 64.0067 3.64917C63.5349 3.95304 63.299 4.35359 63.299 4.85083C63.299 5.34807 63.5717 5.72099 64.1172 5.96961C64.6775 6.20442 65.5252 6.43923 66.6605 6.67403C67.84 6.93646 68.8056 7.19889 69.5576 7.46133C70.3095 7.72376 70.9508 8.13812 71.4816 8.70442C72.0271 9.27072 72.2998 10.0373 72.2998 11.0041C72.2998 11.8329 72.0492 12.5925 71.5479 13.2831C71.0614 13.9599 70.3242 14.4986 69.3364 14.8992C68.3486 15.2997 67.147 15.5 65.7316 15.5Z"
    fill="#2C2E2B"/>
  <path
    d="M84.943 12.1436H77.7555L76.3844 15.2514H72.7133L79.6132 0.748618H83.1517L90.0737 15.2514H86.3141L84.943 12.1436ZM83.8151 9.5953L81.3603 4.04282L78.9055 9.5953H83.8151Z"
    fill="#2C2E2B"/>
  <path d="M105.721 0.748618L99.0201 15.2514H95.4817L88.8029 0.748618H92.6731L97.3836 11.1077L102.161 0.748618H105.721Z"
        fill="#2C2E2B"/>
  <path d="M119 12.558V15.2514H107.014V0.748618H118.713V3.44199H110.574V6.59116H117.762V9.20166H110.574V12.558H119Z"
        fill="#2C2E2B"/>
</svg>
