<svg width="590" height="361" viewBox="0 0 590 361" fill="none" xmlns="http://www.w3.org/2000/svg">
<rect width="580" height="361" rx="24" fill="#01AC6A" fill-opacity="0.1"/>
<path fill-rule="evenodd" clip-rule="evenodd" d="M529.753 17.3296C528.641 17.0317 527.446 17.1096 526.361 17.5652C525.004 18.1359 523.99 19.1995 523.504 20.562C522.684 22.857 522.307 26.0964 522.383 30.1915C522.736 49.2551 536.982 68.2052 550.551 75.5133C552.69 76.6659 554.8 77.5392 556.853 78.1306C556.823 66.2855 553.522 52.2805 547.087 37.6984C541.412 24.8386 534.989 19.6916 530.599 17.6376C530.325 17.5101 530.042 17.407 529.753 17.3296ZM501.724 70.6039C501.361 70.5068 501.008 70.4784 500.673 70.5242C499.331 70.707 498.261 72.0432 497.579 74.3871C495.886 80.2019 498.326 87.4062 504.274 94.1543C504.75 94.6928 505.248 95.2289 505.768 95.7587C510.17 88.205 509 79.5282 505.87 74.3988C504.61 72.333 503.099 70.9725 501.724 70.6039ZM466.504 116.285C466.281 116.225 466.117 116.02 466.118 115.778C466.12 115.488 466.353 115.254 466.642 115.254C466.899 115.255 492.577 115.065 504.916 97.1065C505.015 96.9627 505.111 96.8171 505.206 96.6722C504.608 96.0692 504.037 95.4596 503.496 94.8458C497.306 87.8238 494.786 80.2595 496.581 74.0923C497.602 70.5883 499.297 69.6517 500.539 69.4824C502.599 69.2043 504.926 70.8357 506.764 73.8462C510.198 79.4748 511.352 88.515 506.537 96.5166C514.754 104.497 527.743 111.014 538.915 109.162C544.549 108.228 549.224 104.581 552.44 98.612C555.282 93.3364 556.74 86.7327 556.851 79.2214C554.637 78.6087 552.364 77.6808 550.059 76.4405C536.418 69.0923 521.716 50.3956 521.343 30.2167C521.264 25.9949 521.662 22.6289 522.526 20.2144C523.103 18.594 524.357 17.2778 525.964 16.6018C527.601 15.9143 529.454 15.9433 531.044 16.6916C535.594 18.82 542.239 24.1187 548.044 37.2748C554.582 52.0927 557.911 66.345 557.891 78.4098C563.202 79.7082 568.098 79.088 572.114 76.5266C583.982 68.9577 584.25 47.6692 584.251 47.4558C584.253 47.1666 584.487 46.9332 584.775 46.9334C585.059 46.9345 585.294 47.1702 585.294 47.4586C585.293 47.5137 585.244 53.0183 583.684 59.4056C581.606 67.9153 577.798 74.1417 572.672 77.4105C568.466 80.0924 563.378 80.7772 557.879 79.485C557.739 87.0698 556.243 93.7501 553.357 99.1084C550.03 105.284 544.961 109.221 539.083 110.195C527.638 112.091 514.392 105.518 505.965 97.4179C505.902 97.5117 505.839 97.6055 505.773 97.6995C493.12 116.118 466.901 116.302 466.638 116.302C466.591 116.302 466.546 116.296 466.504 116.285Z" fill="#2C2E2B"/>
<g clip-path="url(#clip0_960_3142)">
<path d="M76 92C76 83.1634 83.1634 76 92 76H488C496.837 76 504 83.1634 504 92V361H76V92Z" fill="white"/>
<rect x="76" y="100" width="448" height="1" fill="#F0F0F0"/>
<path d="M76 80C76 77.7909 77.7909 76 80 76H520C522.209 76 524 77.7909 524 80V100H76V80Z" fill="white"/>
<circle cx="88" cy="88" r="4" fill="#FA625D"/>
<circle cx="100" cy="88" r="4" fill="#FCBE42"/>
<circle cx="112" cy="88" r="4" fill="#36CA4D"/>
</g>
<path fill-rule="evenodd" clip-rule="evenodd" d="M15.3516 237.499C12.2819 240.626 10.9008 245.287 12.172 248.987C13.2 251.978 15.4979 253.056 17.3062 253.068C19.3143 253.076 21.0145 251.922 21.6593 250.119C22.2392 248.498 22.6708 244.178 15.3516 237.499ZM17.8268 254.066C17.6527 254.08 17.4772 254.086 17.2996 254.085C15.1455 254.072 12.4173 252.812 11.2171 249.32C9.83139 245.286 11.2998 240.225 14.5964 236.827C14.2451 236.521 13.8778 236.211 13.4945 235.895C9.6882 232.768 5.29494 230.643 0.435439 229.579C0.163606 229.519 -0.00896225 229.249 0.0502242 228.974C0.109472 228.701 0.379178 228.528 0.650175 228.587C5.66576 229.684 10.2016 231.878 14.1321 235.108C14.5511 235.453 14.9501 235.79 15.331 236.125C15.7479 235.756 16.1886 235.412 16.6519 235.098C19.0284 233.489 25.4082 230.498 33.2999 237.462C33.5092 237.647 33.5301 237.968 33.3467 238.179C33.1625 238.39 32.8434 238.411 32.634 238.226C27.4497 233.651 21.8283 232.818 17.215 235.942C16.8218 236.207 16.4469 236.497 16.0898 236.806C23.7915 243.877 23.2552 248.655 22.6085 250.464C21.8745 252.517 20.0304 253.888 17.8268 254.066Z" fill="#2C2E2B"/>
<path fill-rule="evenodd" clip-rule="evenodd" d="M45.5076 262.475C45.2576 262.495 45.028 262.313 44.9827 262.048C43.822 255.293 41.313 249.095 37.5261 243.624C37.3663 243.392 37.4145 243.07 37.6338 242.904C37.8548 242.738 38.1629 242.789 38.3227 243.021C42.198 248.62 44.7649 254.962 45.9522 261.871C46.0004 262.153 45.8225 262.42 45.555 262.468C45.5392 262.471 45.5234 262.473 45.5076 262.475Z" fill="#2C2E2B"/>
<defs>
<clipPath id="clip0_960_3142">
<path d="M76 92C76 83.1634 83.1634 76 92 76H488C496.837 76 504 83.1634 504 92V361H76V92Z" fill="white"/>
</clipPath>
</defs>
</svg>
