<svg width="280" height="207" viewBox="0 0 280 207" fill="none" xmlns="http://www.w3.org/2000/svg">
<path d="M65.5448 205.373L182.782 154.808L124.238 21L7 71.5649L65.5448 205.373Z" fill="white" stroke="#2C2E2B"/>
<path fill-rule="evenodd" clip-rule="evenodd" d="M124.543 42.4692C125.573 44.2956 126.38 46.2878 126.917 48.4189C128.427 54.3992 127.55 60.4224 124.889 65.4867C121.812 71.3419 116.345 75.9128 109.42 77.6564C102.988 79.2739 96.5076 78.145 91.2209 75.0129C85.8922 71.8546 81.7734 66.662 80.1391 60.1847C78.1256 52.2114 80.3515 44.1651 85.3997 38.4168L104.197 30.2261C110.523 30.3967 116.474 33.0643 120.802 37.4879" fill="#FF9954"/>
<path fill-rule="evenodd" clip-rule="evenodd" d="M109.92 53.8632L110.55 56.3633L112.886 65.6242C112.828 65.6324 112.799 65.635 112.799 65.635C112.722 65.7266 112.643 65.8125 112.563 65.8984C109.534 69.1398 104.12 68.7523 102.86 68.6093C102.688 68.5919 102.592 68.5755 102.592 68.5755C102.592 68.5755 102.465 68.5691 102.303 68.5198L100.956 63.2325C99.5821 62.9304 98.5233 62.3847 97.6947 61.6977C95.05 59.5312 94.809 56.0055 94.7029 54.8837C94.6749 54.5842 94.5925 54.3016 94.4526 54.0372L94.2606 53.6756C94.1206 53.418 94.0279 53.1433 93.9781 52.8567C93.9479 52.7021 93.9253 52.5475 93.9062 52.4017C93.8579 52.0802 93.8274 51.775 93.815 51.479C93.815 51.479 93.8137 51.4761 93.8141 51.4691C93.7963 51.1309 93.7934 50.8102 93.8136 50.5034C93.9608 49.035 94.8585 46.3249 99.3547 45.4275C103.412 44.6153 105.476 46.4352 107.54 49.533C107.565 49.5806 107.586 49.6295 107.608 49.6784C107.686 49.8568 107.764 50.0452 107.838 50.2358C107.895 50.3753 107.952 50.5216 108.003 50.6706C108.003 50.6706 108.927 48.1445 110.332 49.0429C112.625 50.4995 109.92 53.8632 109.92 53.8632Z" fill="#FFA29E"/>
<path fill-rule="evenodd" clip-rule="evenodd" d="M102.561 68.2572C102.592 68.2614 102.61 68.2626 102.61 68.2628C102.621 68.2635 102.634 68.265 102.645 68.2669C102.651 68.2679 102.739 68.2822 102.893 68.298C103.953 68.4181 109.373 68.8543 112.335 65.685C112.4 65.6136 112.463 65.5453 112.525 65.4736L109.617 53.9404C109.592 53.8454 109.615 53.7442 109.676 53.6676C109.691 53.6491 111.151 51.809 110.915 50.3949C110.839 49.9365 110.593 49.5813 110.164 49.3084C109.94 49.1653 109.731 49.1296 109.524 49.1993C108.913 49.4063 108.436 50.4085 108.3 50.779C108.254 50.9041 108.134 50.9862 108.001 50.9852C107.868 50.9836 107.75 50.8989 107.707 50.7736C107.658 50.6303 107.603 50.4898 107.548 50.3556C107.473 50.163 107.397 49.9789 107.321 49.8048C107.304 49.7668 107.288 49.7287 107.269 49.6919C105.209 46.6029 103.26 44.9669 99.4177 45.7361C95.1484 46.5877 94.2701 49.1084 94.1275 50.5354C94.1106 50.7942 94.1107 51.0956 94.1288 51.4463C94.1293 51.453 94.1298 51.4596 94.1301 51.4667C94.142 51.7489 94.1707 52.0398 94.2181 52.3562C94.2373 52.5013 94.2591 52.6493 94.2875 52.7976C94.3338 53.062 94.4178 53.3053 94.5379 53.5266L94.7314 53.8907C94.8891 54.1888 94.9848 54.5129 95.0171 54.8551L95.0281 54.9746C95.1405 56.197 95.4394 59.444 97.8951 61.4559C98.7483 62.163 99.8009 62.6576 101.025 62.9265C101.141 62.9524 101.232 63.0409 101.262 63.1558L102.561 68.2572ZM110.068 67.9896C107.073 69.2951 103.655 69.0141 102.822 68.9197C102.683 68.9056 102.589 68.8918 102.553 68.886C102.502 68.8818 102.37 68.867 102.209 68.8186C102.104 68.7867 102.023 68.702 101.996 68.5957L100.697 63.4937C99.4539 63.1943 98.377 62.6713 97.4917 61.9377C94.8344 59.7606 94.518 56.3236 94.3987 55.0298L94.3879 54.9115C94.3634 54.6516 94.2911 54.406 94.1726 54.1819L93.9809 53.8212C93.8292 53.5424 93.7228 53.2346 93.6662 52.9089C93.6358 52.7539 93.6124 52.5929 93.5924 52.441C93.543 52.1114 93.5124 51.8014 93.4989 51.4997C93.4976 51.4842 93.4973 51.4685 93.4979 51.4542C93.4783 51.1048 93.4784 50.777 93.498 50.4811C93.6588 48.8714 94.6227 46.0497 99.2912 45.118C103.468 44.2822 105.643 46.1205 107.8 49.3577C107.807 49.3675 107.813 49.3775 107.818 49.3879C107.845 49.4413 107.87 49.4962 107.894 49.5514C107.939 49.6547 107.984 49.7611 108.029 49.8697C108.299 49.3864 108.735 48.798 109.319 48.6023C109.708 48.4713 110.116 48.532 110.499 48.7769C111.079 49.1456 111.428 49.6553 111.533 50.291C111.777 51.7615 110.613 53.458 110.26 53.9321L113.189 65.5462C113.211 65.6325 113.195 65.7242 113.145 65.7979C113.101 65.8635 113.033 65.91 112.958 65.9279C112.905 65.9878 112.851 66.0462 112.798 66.104C112.007 66.9499 111.06 67.5571 110.068 67.9896Z" fill="#2C2E2B"/>
<path fill-rule="evenodd" clip-rule="evenodd" d="M104.475 62.9525C102.878 63.6483 101.039 63.5519 100.937 63.5458C100.763 63.5357 100.631 63.3871 100.641 63.2142C100.651 63.0412 100.8 62.9087 100.974 62.919C101.004 62.9209 104.023 63.0765 105.444 61.5456C105.563 61.4184 105.761 61.4112 105.889 61.5287C106.016 61.6466 106.024 61.8453 105.906 61.9724C105.503 62.4067 105.002 62.7229 104.475 62.9525Z" fill="#2C2E2B"/>
<path fill-rule="evenodd" clip-rule="evenodd" d="M101.558 53.7486C102.281 53.4336 101.793 52.3117 101.068 52.6274C100.345 52.9425 100.834 54.0642 101.558 53.7486Z" fill="#2C2E2B"/>
<path fill-rule="evenodd" clip-rule="evenodd" d="M96.0895 55.1267C96.8124 54.8117 96.3238 53.6899 95.5995 54.0055C94.8763 54.3207 95.3652 55.4424 96.0895 55.1267Z" fill="#2C2E2B"/>
<path fill-rule="evenodd" clip-rule="evenodd" d="M99.3276 56.5129C99.3227 56.5151 99.3181 56.5171 99.3133 56.5188C99.2313 56.5501 99.1446 56.5855 99.0562 56.6219C98.5492 56.8299 98.0247 57.0451 97.6682 56.7843C97.4749 56.6427 97.3908 56.4047 97.4183 56.0769C97.4857 55.2704 97.0529 53.2247 97.0488 53.2043C97.0124 53.0348 97.1187 52.8683 97.2911 52.8318C97.461 52.7958 97.6277 52.9041 97.6637 53.0736C97.6822 53.1615 98.1198 55.2307 98.0448 56.1289C98.0382 56.2103 98.0441 56.2553 98.0495 56.2769C98.1902 56.2982 98.5949 56.1324 98.8174 56.041C98.9107 56.0027 99.0024 55.9652 99.0897 55.9319C99.2519 55.8705 99.4335 55.9516 99.4955 56.1137C99.5552 56.2709 99.4803 56.4464 99.3276 56.5129Z" fill="#2C2E2B"/>
<path fill-rule="evenodd" clip-rule="evenodd" d="M96.5465 52.4813C96.4783 52.511 96.3993 52.517 96.3227 52.4919C94.9799 52.0523 94.2593 53.0005 94.2287 53.0412C94.1271 53.1799 93.9298 53.2111 93.7902 53.1091C93.6506 53.0077 93.6187 52.8132 93.7199 52.6729C94.062 52.199 95.0873 51.4271 96.519 51.8957C96.684 51.9498 96.7736 52.1267 96.7195 52.2916C96.6905 52.3799 96.6255 52.4469 96.5465 52.4813Z" fill="#2C2E2B"/>
<path fill-rule="evenodd" clip-rule="evenodd" d="M103.434 51.193C103.364 51.2236 103.282 51.2288 103.204 51.2012C101.645 50.6531 100.393 51.4883 100.34 51.5238C100.195 51.6217 100.002 51.5854 99.9034 51.443C99.8051 51.3005 99.8406 51.1055 99.9829 51.0072C100.046 50.9639 101.543 49.9515 103.413 50.6093C103.577 50.6668 103.663 50.8461 103.605 51.0097C103.575 51.095 103.511 51.1593 103.434 51.193Z" fill="#2C2E2B"/>
<path fill-rule="evenodd" clip-rule="evenodd" d="M101.09 59.3511C100.233 59.7244 99.3106 59.5446 98.7923 59.3063C98.6345 59.234 98.5654 59.0476 98.6378 58.89C98.7109 58.7331 98.8965 58.6639 99.0544 58.7355C99.1284 58.7691 100.877 59.5344 101.83 57.8192C101.915 57.6676 102.106 57.613 102.258 57.6968C102.41 57.7811 102.464 57.9723 102.38 58.1238C102.025 58.7624 101.568 59.1429 101.09 59.3511Z" fill="#2C2E2B"/>
<path fill-rule="evenodd" clip-rule="evenodd" d="M109.568 52.6947C109.492 52.7278 109.4 52.7124 109.339 52.6495C109.261 52.5682 109.263 52.4391 109.344 52.3611C109.348 52.3563 109.876 51.8258 109.888 50.8432C109.89 50.6593 109.865 50.4208 109.729 50.3306C109.595 50.2419 109.372 50.3059 109.298 50.3381C109.194 50.3828 109.074 50.3359 109.029 50.233C108.984 50.1303 109.03 50.0104 109.133 49.965L109.135 49.9639C109.195 49.938 109.616 49.7678 109.953 49.9892C110.186 50.1426 110.302 50.4318 110.297 50.8482C110.283 52.009 109.655 52.6284 109.628 52.654C109.61 52.6716 109.589 52.6853 109.568 52.6947Z" fill="#2C2E2B"/>
<path fill-rule="evenodd" clip-rule="evenodd" d="M124.888 65.4869C121.812 71.3424 116.347 75.9128 109.42 77.6552C102.989 79.2728 96.5094 78.1456 91.2225 75.014L91.1753 74.9578C95.4717 71.496 102.288 68.5156 102.288 68.5156C102.293 68.5169 102.298 68.5178 102.303 68.5191C102.464 68.5702 102.593 68.5777 102.593 68.5777C102.593 68.5777 102.688 68.591 102.86 68.6112C104.121 68.752 109.534 69.1376 112.564 65.8981C112.644 65.8124 112.722 65.7243 112.799 65.6349C112.799 65.6349 112.829 65.6321 112.888 65.6241C113.685 65.5338 119.73 64.8989 124.888 65.4869Z" fill="#00C3B4"/>
<path fill-rule="evenodd" clip-rule="evenodd" d="M91.7104 74.9344C97.0817 78.0042 103.328 78.8631 109.343 77.3504C115.752 75.7387 121.211 71.5224 124.389 65.7492C119.388 65.253 113.753 65.8429 112.956 65.9317C112.903 65.9922 112.849 66.0518 112.794 66.1108C109.631 69.4933 103.935 69.047 102.825 68.9226C102.646 68.9019 102.548 68.8879 102.548 68.8879L102.549 68.8881C102.547 68.8887 102.449 68.8811 102.313 68.8477C101.477 69.2215 95.6466 71.8776 91.7104 74.9344ZM113.289 76.6658C112.07 77.1971 110.802 77.6312 109.495 77.9598C103.195 79.5445 96.6481 78.5944 91.0599 75.2844C91.0293 75.2662 91.002 75.2428 90.979 75.2155L90.9318 75.1593C90.8779 75.0948 90.852 75.0112 90.8603 74.9274C90.8686 74.8437 90.9104 74.7665 90.9758 74.7137C95.2555 71.2654 102.091 68.2587 102.16 68.2284L102.16 68.2283C102.218 68.2032 102.282 68.196 102.344 68.2076C102.356 68.21 102.384 68.2162 102.396 68.2201C102.514 68.2575 102.61 68.2646 102.611 68.2648C102.637 68.2675 102.729 68.2804 102.895 68.2999C103.95 68.418 109.374 68.8464 112.332 65.6842C112.408 65.6026 112.484 65.518 112.557 65.432C112.61 65.37 112.685 65.3307 112.766 65.3226L112.844 65.3131C113.532 65.2351 119.665 64.5761 124.921 65.1755C125.025 65.1871 125.115 65.2489 125.164 65.3406C125.212 65.4318 125.212 65.5416 125.164 65.6331C122.565 70.5813 118.35 74.4604 113.289 76.6658Z" fill="#2C2E2B"/>
<path fill-rule="evenodd" clip-rule="evenodd" d="M114.157 47.6424C114.616 48.2989 114.947 49.1582 114.629 49.8895C114.331 50.5671 113.588 50.915 113.101 51.473C112.629 52.0178 112.416 52.7785 112.544 53.4937C112.619 53.9165 112.806 54.3213 112.83 54.7527C112.874 55.6787 111.535 56.413 110.551 56.3589L109.921 53.859C109.921 53.859 112.625 50.4952 110.332 49.0387C108.927 48.1403 108.004 50.6662 108.004 50.6662C107.95 50.5186 107.897 50.3738 107.838 50.2316C107.765 50.0408 107.686 49.8526 107.608 49.6742L107.552 49.5447C107.549 49.5389 107.544 49.5344 107.541 49.5287C105.477 46.431 103.412 44.6111 99.3555 45.4232C94.8593 46.3206 93.9613 49.0307 93.8144 50.4991C93.7611 51.0292 93.8055 51.3969 93.8146 51.4649C93.8143 51.4719 93.8155 51.4747 93.8155 51.4747C93.8279 51.7708 93.8587 52.0759 93.9067 52.3975C92.6407 52.5621 90.5733 52.2744 90.0456 51.3809C89.7349 50.8587 89.802 50.1958 89.5807 49.6346C89.2099 48.7001 88.0843 48.1733 87.8537 47.1914C87.7516 46.753 87.8534 46.2873 88.0203 45.8686C88.4499 44.7875 89.2857 43.9369 90.0655 43.0525C90.7928 42.2286 91.3317 41.2403 91.5579 40.1655C91.8023 38.9973 92.8514 37.1358 97.2452 38.6018C98.2817 38.9483 99.5478 38.674 100.599 38.2466C102.006 37.6746 103.383 36.8452 104.896 36.8777C105.497 36.8935 106.14 37.0789 106.49 37.5638C106.768 37.9424 106.818 38.4413 107.037 38.8563C107.931 40.556 110.815 39.957 111.996 41.4665C112.883 42.6078 112.322 44.3079 112.833 45.6573C113.118 46.4031 113.706 46.9862 114.157 47.6424Z" fill="#2C2E2B"/>
<path fill-rule="evenodd" clip-rule="evenodd" d="M110.794 56.0441C111.298 56.0053 111.863 55.7619 112.206 55.4209C112.354 55.2745 112.527 55.0428 112.514 54.7693C112.502 54.552 112.437 54.3294 112.369 54.0941C112.318 53.9197 112.266 53.739 112.232 53.5502C112.088 52.7431 112.324 51.8901 112.861 51.2695C113.063 51.0386 113.296 50.8472 113.522 50.6623C113.862 50.3828 114.184 50.1188 114.339 49.7653C114.656 49.037 114.136 48.1651 113.898 47.824C113.897 47.8232 113.897 47.8227 113.897 47.8221C113.762 47.6263 113.616 47.4394 113.462 47.2413C113.112 46.7931 112.751 46.3297 112.538 45.7709C112.302 45.1485 112.277 44.4785 112.253 43.83C112.223 43.0109 112.194 42.2369 111.746 41.6608C111.252 41.0286 110.388 40.8084 109.475 40.5759C108.401 40.3021 107.291 40.0193 106.757 39.0039C106.652 38.8053 106.585 38.5991 106.519 38.3996C106.44 38.1579 106.366 37.9295 106.235 37.7515C105.888 37.2704 105.176 37.201 104.886 37.1933C103.789 37.1699 102.766 37.6303 101.682 38.1187C101.361 38.2631 101.039 38.408 100.717 38.5391C99.7579 38.9287 98.3599 39.3077 97.1438 38.9012C95.2337 38.2641 93.8015 38.2076 92.8906 38.7292C92.2216 39.1128 91.9629 39.7578 91.8642 40.2314C91.6366 41.3126 91.0957 42.3604 90.2996 43.2618L90.0076 43.5897C89.3182 44.3615 88.6669 45.0902 88.3108 45.9862C88.1362 46.4243 88.0848 46.8067 88.1585 47.1219C88.2624 47.5654 88.606 47.9213 88.9698 48.2984C89.3176 48.6586 89.677 49.0312 89.8711 49.5207C89.9797 49.7957 90.025 50.0783 90.0687 50.3518C90.1199 50.6737 90.1685 50.9773 90.3141 51.2224C90.6921 51.8626 92.2817 52.2023 93.5505 52.1187C93.5256 51.9055 93.5089 51.7011 93.5004 51.5003C93.485 51.3841 93.4464 51.0046 93.4997 50.4697C93.6596 48.8703 94.6255 46.0487 99.2921 45.1172C103.469 44.281 105.644 46.1196 107.801 49.3565C107.802 49.3584 107.804 49.3601 107.805 49.3617C107.817 49.3805 107.83 49.4027 107.838 49.4208L107.895 49.5506C107.94 49.6536 107.985 49.7603 108.03 49.8688C108.3 49.3855 108.736 48.7972 109.32 48.6016C109.708 48.4705 110.117 48.531 110.5 48.7761C111.081 49.1447 111.429 49.6545 111.534 50.2902C111.777 51.7607 110.614 53.4572 110.261 53.9312L110.794 56.0441ZM111.809 56.4221C111.397 56.6019 110.942 56.6969 110.533 56.6744C110.396 56.6671 110.279 56.5711 110.245 56.4377L109.616 53.9377C109.592 53.8426 109.614 53.7412 109.675 53.6647C109.69 53.6464 111.15 51.8062 110.915 50.392C110.838 49.9338 110.593 49.5786 110.163 49.3057C109.939 49.1626 109.73 49.1269 109.523 49.1964C108.912 49.4034 108.435 50.4057 108.299 50.7762C108.253 50.9 108.136 50.9825 108.003 50.9822C107.872 50.982 107.754 50.9002 107.709 50.7763C107.656 50.6326 107.604 50.4917 107.547 50.3529C107.473 50.1603 107.396 49.9759 107.32 49.8021L107.274 49.6979C105.211 46.6034 103.263 44.9633 99.417 45.733C95.1476 46.585 94.2696 49.1056 94.127 50.5326C94.0774 51.0259 94.1174 51.3623 94.1258 51.4247C94.1265 51.4302 94.1271 51.4354 94.1274 51.4408C94.1284 51.4486 94.1293 51.4561 94.1296 51.4638C94.1414 51.746 94.1702 52.037 94.2175 52.3534C94.2299 52.4367 94.2083 52.5214 94.1572 52.5889C94.1067 52.6562 94.03 52.7005 93.9471 52.711C92.591 52.8875 90.3865 52.579 89.7746 51.5424C89.5679 51.1951 89.5072 50.817 89.4488 50.451C89.4087 50.1999 89.371 49.9622 89.2879 49.7518C89.1392 49.3778 88.8379 49.0652 88.5183 48.7342C88.1114 48.3128 87.6911 47.877 87.5475 47.2651C87.4443 46.822 87.505 46.314 87.7281 45.7547C88.125 44.7556 88.8445 43.9506 89.5399 43.1722L89.829 42.8472C90.5534 42.0266 91.0447 41.0779 91.2501 40.103C91.3753 39.5041 91.7073 38.6847 92.5788 38.1851C93.6488 37.5698 95.2562 37.6096 97.3446 38.3063C98.4329 38.6699 99.7764 38.2441 100.481 37.9581C100.796 37.8295 101.11 37.6881 101.425 37.5466C102.524 37.0517 103.662 36.5395 104.903 36.5661C105.381 36.5788 106.254 36.7016 106.745 37.3827C106.933 37.6392 107.028 37.9268 107.119 38.2047C107.178 38.3877 107.235 38.5601 107.315 38.7122C107.719 39.4806 108.648 39.7174 109.632 39.9677C110.607 40.2163 111.616 40.4734 112.244 41.2753C112.816 42.0123 112.85 42.9248 112.883 43.8071C112.906 44.4325 112.928 45.023 113.127 45.5483C113.307 46.0185 113.624 46.4253 113.959 46.8558C114.112 47.0523 114.271 47.2552 114.416 47.466C114.787 47.9972 115.344 49.0347 114.916 50.0171C114.701 50.5087 114.305 50.8335 113.922 51.1476C113.707 51.3242 113.504 51.4909 113.338 51.6813C112.923 52.1598 112.742 52.8181 112.853 53.441C112.88 53.5968 112.926 53.7534 112.974 53.9193C113.049 54.1785 113.127 54.4463 113.144 54.7374C113.163 55.1387 112.992 55.5285 112.651 55.8666C112.424 56.0921 112.129 56.2825 111.809 56.4221Z" fill="#2C2E2B"/>
<path fill-rule="evenodd" clip-rule="evenodd" d="M98.6066 43.9703C98.5919 43.9767 98.5757 43.9814 98.559 43.9839C98.4559 43.9993 98.3601 43.9284 98.3446 43.8255C98.3384 43.7837 98.1978 42.7935 98.8245 42.306C99.2839 41.9482 100.011 41.9722 100.984 42.3784C101.08 42.4187 101.126 42.5291 101.085 42.6251C101.046 42.7208 100.935 42.7663 100.839 42.7261C100.013 42.3814 99.3978 42.3384 99.0566 42.6032C98.6014 42.957 98.7164 43.7618 98.7176 43.7699C98.7308 43.8559 98.6829 43.9371 98.6066 43.9703Z" fill="#443D7A"/>
<path fill-rule="evenodd" clip-rule="evenodd" d="M92.2884 49.173C92.2144 49.2053 92.1252 49.1873 92.0699 49.1227C92.0424 49.0905 91.3974 48.3252 91.6706 47.58C91.8706 47.0328 92.5007 46.6692 93.5412 46.4991C93.6437 46.4825 93.7408 46.5522 93.7575 46.6549C93.7744 46.7571 93.7052 46.8537 93.6019 46.871C92.7191 47.0152 92.1743 47.3047 92.0254 47.708C91.8273 48.2461 92.3515 48.8723 92.3569 48.8784C92.4243 48.9573 92.4146 49.0763 92.3356 49.1436C92.3209 49.1562 92.3051 49.1658 92.2884 49.173Z" fill="#443D7A"/>
<path fill-rule="evenodd" clip-rule="evenodd" d="M93.0337 43.5179C93.0219 43.523 93.0095 43.527 92.9966 43.5296C92.8948 43.551 92.7946 43.4858 92.7731 43.3841C92.7646 43.3426 92.5669 42.3622 93.1648 41.8393C93.6026 41.4557 94.3303 41.4379 95.3251 41.7871C95.4233 41.8217 95.4751 41.9293 95.4404 42.0273C95.4056 42.1257 95.2979 42.1768 95.1995 42.1425C94.355 41.8461 93.7381 41.8388 93.4134 42.1224C92.9796 42.5019 93.141 43.2988 93.1427 43.3067C93.161 43.3956 93.1138 43.483 93.0337 43.5179Z" fill="#443D7A"/>
<path fill-rule="evenodd" clip-rule="evenodd" d="M106.364 45.4554C106.354 45.4598 106.344 45.4632 106.333 45.4659C106.231 45.4907 106.129 45.4281 106.105 45.3272C105.894 44.4591 105.565 43.9379 105.15 43.8205C104.599 43.6631 104.012 44.2325 104.007 44.238C103.931 44.3115 103.813 44.3104 103.74 44.2369C103.667 44.1629 103.667 44.0438 103.741 43.971C103.771 43.9411 104.488 43.2413 105.252 43.4574C105.813 43.6163 106.224 44.2153 106.472 45.2386C106.493 45.3287 106.446 45.4196 106.364 45.4554Z" fill="#443D7A"/>
<path fill-rule="evenodd" clip-rule="evenodd" d="M112.522 48.163C112.512 48.1674 112.502 48.1708 112.49 48.1736C112.389 48.198 112.287 48.1357 112.263 48.0348C112.052 47.1667 111.723 46.6455 111.309 46.5279C110.757 46.3707 110.17 46.94 110.165 46.9455C110.09 47.0194 109.971 47.018 109.898 46.9444C109.825 46.8704 109.825 46.7514 109.899 46.6784C109.929 46.6482 110.646 45.9492 111.41 46.1649C111.971 46.3238 112.382 46.9228 112.629 47.9462C112.651 48.0363 112.604 48.1272 112.522 48.163Z" fill="#443D7A"/>
<path fill-rule="evenodd" clip-rule="evenodd" d="M105.246 41.0609C105.236 41.0653 105.226 41.0687 105.215 41.0715C105.113 41.0958 105.012 41.0336 104.987 40.9326C104.777 40.0646 104.447 39.5434 104.033 39.4258C103.482 39.2684 102.895 39.8379 102.89 39.8434C102.814 39.9167 102.696 39.9158 102.622 39.8422C102.549 39.7683 102.55 39.6492 102.624 39.5763C102.654 39.5464 103.37 38.8471 104.135 39.0628C104.696 39.2216 105.106 39.8207 105.354 40.8441C105.376 40.9342 105.329 41.0251 105.246 41.0609Z" fill="#443D7A"/>
<path opacity="0.6" d="M77.6836 138.688L134.684 114.188" stroke="#2C2E2B" stroke-linecap="round"/>
<path opacity="0.6" d="M74.6855 147.688L137.686 120.188" stroke="#2C2E2B" stroke-linecap="round"/>
<path opacity="0.6" d="M79.6855 159.188L142.686 131.688" stroke="#2C2E2B" stroke-linecap="round"/>
<path opacity="0.6" d="M81.6855 165.188L144.686 137.688" stroke="#2C2E2B" stroke-linecap="round"/>
<path opacity="0.6" d="M76.686 154.688L139.772 126.39" stroke="#2C2E2B" stroke-linecap="round"/>
<path fill-rule="evenodd" clip-rule="evenodd" d="M66.5585 77.3995C73.4035 79.0433 79.417 83.7705 82.4242 90.7207C84.7774 96.1601 84.8748 102.005 83.1316 107.215C81.1182 113.239 76.6416 118.413 70.3429 121.129C64.495 123.652 58.1779 123.579 52.6823 121.422C47.1408 119.248 42.435 114.956 39.887 109.067C34.8128 97.339 40.2227 83.7268 51.969 78.6605C55.5578 77.1127 59.3231 76.5417 62.9667 76.8297" fill="#FF9954"/>
<path fill-rule="evenodd" clip-rule="evenodd" d="M77.17 93.6171C76.7655 94.7411 75.8648 95.6754 74.7549 96.1237C74.4525 96.246 74.132 96.3343 73.8579 96.5092C72.3179 97.4998 73.2572 100.248 71.8767 101.45C71.1603 102.072 69.8526 102.362 69.0096 102.791L67.1483 98.4916C67.1483 98.4916 69.192 94.8865 66.7955 93.855C65.3248 93.2236 64.8388 95.7578 64.8388 95.7578C60.6626 88.2416 54.6328 91.4744 54.6328 91.4744C54.6328 91.4744 49.6527 93.7173 51.8775 99.9878C51.9704 100.25 52.1016 100.497 52.2706 100.718L52.5103 101.033C52.682 101.261 52.8075 101.517 52.8796 101.794C53.1526 102.846 53.9241 106.147 56.7646 107.8C56.7646 107.8 55.975 108.695 54.8534 108.707C53.7313 108.72 53.3082 108.081 51.8392 109.391C50.37 110.699 48.0476 109.686 48.0476 109.686C48.0476 109.686 50.4242 105.616 47.9544 101.78C46.4065 99.3708 45.9488 96.4008 45.8221 94.524C45.7239 93.0398 45.9237 91.5434 46.4865 90.1638C49.2656 83.3376 57.384 85.1662 57.384 85.1662C58.7151 83.7487 60.6092 82.8752 62.5529 82.7811C64.4947 82.6896 66.4648 83.381 67.9228 84.6653C69.6024 86.1449 70.5325 88.2667 71.7865 90.1194C73.0405 91.9701 74.9331 93.7009 77.17 93.6171Z" fill="#443D7A"/>
<path fill-rule="evenodd" clip-rule="evenodd" d="M48.3959 109.549C49.0086 109.752 50.6095 110.151 51.6724 109.204C52.84 108.164 53.4589 108.269 54.1144 108.382C54.34 108.421 54.574 108.461 54.8491 108.458C55.5192 108.45 56.0683 108.081 56.357 107.84C53.7417 106.145 52.9637 103.122 52.6648 101.959L52.6377 101.855C52.5746 101.612 52.4645 101.385 52.3105 101.18L52.0715 100.867C51.8893 100.628 51.7447 100.359 51.6416 100.069C49.3671 93.6574 54.4774 91.2699 54.5293 91.2465C54.5753 91.2212 60.5223 88.1426 64.7555 95.1201C64.9277 94.616 65.2514 93.9288 65.7928 93.6418C66.1305 93.4629 66.5005 93.4572 66.8923 93.6254C67.4852 93.8807 67.8835 94.2999 68.076 94.8717C68.5339 96.2312 67.6668 98.0368 67.4228 98.5019L69.134 102.455C69.3916 102.34 69.6739 102.234 69.9686 102.124C70.6178 101.88 71.289 101.628 71.7121 101.261C72.3069 100.743 72.4232 99.8815 72.5459 98.969C72.6846 97.939 72.828 96.874 73.7219 96.299C73.9426 96.1583 74.1801 96.071 74.4097 95.9869C74.4937 95.9561 74.5777 95.9253 74.6604 95.8919C75.5937 95.515 76.3721 94.7698 76.7985 93.8613C74.3135 93.744 72.4761 91.5802 71.5794 90.2567C71.1997 89.696 70.8457 89.1044 70.5033 88.5323C69.7174 87.2187 68.9047 85.8605 67.757 84.8495C66.341 83.6024 64.4461 82.9366 62.5635 83.0274C60.6771 83.1184 58.8546 83.9594 57.5638 85.334C57.5037 85.3978 57.4138 85.4256 57.328 85.4065C57.3082 85.4018 55.3055 84.9631 53.0017 85.3507C49.9463 85.8644 47.8311 87.5147 46.7152 90.2552C46.1855 91.5539 45.9681 92.9841 46.0687 94.5058C46.2019 96.4833 46.6735 99.3273 48.1623 101.644C50.3242 105.002 48.8712 108.571 48.3959 109.549ZM49.9064 110.313C48.879 110.313 48.0071 109.941 47.947 109.915C47.8821 109.886 47.8324 109.832 47.8103 109.764C47.7882 109.697 47.7962 109.624 47.8317 109.563C47.8545 109.523 50.0999 105.574 47.744 101.916C46.1983 99.51 45.7103 96.5782 45.5731 94.5424C45.4673 92.9445 45.6968 91.4404 46.2549 90.0717C48.877 83.6313 56.1901 84.6961 57.2971 84.8983C58.6689 83.4894 60.5714 82.6301 62.5397 82.535C64.5528 82.4425 66.5741 83.1493 68.0858 84.4807C69.2916 85.543 70.1245 86.935 70.93 88.2811C71.2689 88.8475 71.6192 89.4329 71.9909 89.9822C72.8569 91.2603 74.6471 93.3735 77.0107 93.3735C77.0599 93.3735 77.1096 93.3727 77.1596 93.3707C77.2339 93.3682 77.3203 93.4057 77.369 93.4722C77.418 93.5387 77.4304 93.625 77.4026 93.7027C76.9752 94.8897 76.0199 95.8815 74.8468 96.3551C74.7594 96.3906 74.6704 96.4234 74.5812 96.4559C74.367 96.5345 74.1645 96.6087 73.9904 96.7198C73.2899 97.1703 73.1679 98.0778 73.0385 99.0384C72.9088 100.002 72.7746 100.998 72.0387 101.639C71.5474 102.065 70.8336 102.333 70.1433 102.591C69.7682 102.732 69.4138 102.865 69.1211 103.014C69.06 103.045 68.9885 103.05 68.9241 103.027C68.8595 103.003 68.8073 102.954 68.7802 102.892L66.9187 98.5918C66.8879 98.5204 66.8924 98.4388 66.9307 98.3713C66.9418 98.3512 68.0532 96.3618 67.6047 95.0326C67.4569 94.5943 67.1595 94.2842 66.6959 94.0845C66.4464 93.9775 66.2275 93.977 66.0262 94.0832C65.4674 94.3787 65.1549 95.4271 65.0816 95.8061C65.0617 95.9086 64.9799 95.9877 64.8766 96.0043C64.7727 96.0202 64.6708 95.9709 64.6202 95.8796C60.6091 88.6609 54.9863 91.5674 54.749 91.6944C54.5393 91.7902 49.9914 93.9339 52.1103 99.9064C52.196 100.149 52.316 100.372 52.4671 100.57L52.7069 100.885C52.9009 101.142 53.0391 101.428 53.1188 101.734L53.1462 101.839C53.4416 102.988 54.2265 106.038 56.8883 107.587C56.9524 107.624 56.9967 107.688 57.0086 107.762C57.0203 107.835 56.9989 107.91 56.9497 107.965C56.9144 108.005 56.0731 108.943 54.8549 108.957C54.5324 108.959 54.2663 108.915 54.0302 108.874C53.4272 108.771 52.9921 108.696 52.0035 109.578C51.3694 110.142 50.6021 110.313 49.9064 110.313Z" fill="#2C2E2B"/>
<path fill-rule="evenodd" clip-rule="evenodd" d="M64.838 95.9219C64.7798 95.9219 64.7237 95.8907 64.6949 95.8356C64.0829 94.6701 64.1984 93.495 64.3003 92.458C64.3778 91.6693 64.4511 90.9243 64.1862 90.3148C63.5792 88.9184 61.6939 87.9397 61.675 87.93C61.5957 87.8893 61.5642 87.7921 61.6049 87.7129C61.6457 87.6335 61.7433 87.6025 61.8223 87.643C61.9038 87.6846 63.8289 88.6829 64.4824 90.1865C64.7808 90.8727 64.7036 91.6582 64.6218 92.4897C64.5197 93.5299 64.4138 94.6056 64.9808 95.6858C65.0223 95.7646 64.9918 95.8621 64.9128 95.9036C64.8889 95.916 64.8633 95.9219 64.838 95.9219Z" fill="#2C2E2B"/>
<path fill-rule="evenodd" clip-rule="evenodd" d="M49.7063 98.2954C49.6359 98.2954 49.5711 98.249 49.551 98.178C49.3512 97.4742 49.217 96.7975 49.1524 96.1661C49.1432 96.0775 49.2078 95.9984 49.2965 95.9895C49.3837 95.9805 49.4645 96.0448 49.4734 96.1334C49.5363 96.7459 49.667 97.4043 49.8618 98.09C49.8861 98.1758 49.8362 98.2649 49.7505 98.2892C49.7358 98.2934 49.7209 98.2954 49.7063 98.2954Z" fill="#2C2E2B"/>
<path fill-rule="evenodd" clip-rule="evenodd" d="M49.3114 94.6279C49.3052 94.6279 49.2992 94.6276 49.2927 94.6269C49.2043 94.617 49.1407 94.5368 49.1506 94.4483C49.7864 88.8697 56.8916 88.891 56.9664 88.8903C57.0554 88.8913 57.1269 88.9642 57.1259 89.0532C57.1247 89.1416 57.0526 89.2125 56.9644 89.2125H56.9547C56.6894 89.2125 50.0652 89.2763 49.4716 94.485C49.4622 94.5671 49.3924 94.6279 49.3114 94.6279Z" fill="#2C2E2B"/>
<path fill-rule="evenodd" clip-rule="evenodd" d="M49.9808 109.698C49.9473 109.698 49.9135 109.688 49.8847 109.667C49.8131 109.614 49.7982 109.512 49.8514 109.441C52.0799 106.448 50.1605 99.7734 50.1408 99.7064C50.1158 99.6208 50.1649 99.5313 50.2504 99.5062C50.3359 99.4814 50.4258 99.53 50.4509 99.6156C50.4559 99.633 50.9543 101.35 51.1625 103.424C51.4441 106.229 51.09 108.318 50.1105 109.633C50.079 109.676 50.0303 109.698 49.9808 109.698Z" fill="#2C2E2B"/>
<path fill-rule="evenodd" clip-rule="evenodd" d="M52.8171 107.683C52.8029 107.683 52.7885 107.681 52.7743 107.678C52.6881 107.654 52.6377 107.565 52.6613 107.48C53.0129 106.198 52.5544 105.696 52.5497 105.691C52.4888 105.627 52.4903 105.525 52.5534 105.464C52.6168 105.402 52.7172 105.402 52.7798 105.465C52.8044 105.489 53.3786 106.085 52.9726 107.565C52.953 107.636 52.8881 107.683 52.8171 107.683Z" fill="#2C2E2B"/>
<path fill-rule="evenodd" clip-rule="evenodd" d="M67.9151 88.3634C67.8676 88.3634 67.8204 88.3425 67.7886 88.3026C66.2449 86.3668 64.4216 85.5263 62.3708 85.8074C60.838 86.0165 59.7494 86.8019 59.7385 86.8096C59.6667 86.8627 59.5656 86.8471 59.5129 86.7749C59.4602 86.703 59.4756 86.602 59.5477 86.5494C59.5936 86.5159 64.1759 83.2541 68.0413 88.1016C68.0967 88.1713 68.0853 88.2728 68.0155 88.3281C67.9859 88.3519 67.9504 88.3634 67.9151 88.3634Z" fill="#2C2E2B"/>
<path fill-rule="evenodd" clip-rule="evenodd" d="M47.5183 93.459C47.5063 93.459 47.4944 93.4577 47.4822 93.455C47.3953 93.4351 47.3408 93.3488 47.3607 93.262C48.9353 86.3591 55.5169 86.9788 55.583 86.9853C55.6715 86.9947 55.7358 87.0743 55.7264 87.1627C55.7169 87.2512 55.6357 87.3145 55.5487 87.3061C55.5328 87.3043 53.9337 87.146 52.1723 87.8109C49.8218 88.6988 48.3091 90.5567 47.6755 93.3337C47.6584 93.4083 47.592 93.459 47.5183 93.459Z" fill="#2C2E2B"/>
<path fill-rule="evenodd" clip-rule="evenodd" d="M70.8918 100.679C70.8605 100.679 70.8287 100.669 70.8009 100.65C70.7465 100.613 69.4661 99.6793 69.5138 95.3813C69.5295 93.9757 69.1926 92.9819 68.5123 92.4277C67.6797 91.7492 66.5943 91.9734 66.5839 91.9757C66.4969 91.9948 66.4107 91.9394 66.3916 91.8524C66.3727 91.7655 66.4276 91.68 66.5146 91.6606C66.5648 91.6494 67.7574 91.3991 68.7133 92.1751C69.4756 92.7941 69.8535 93.874 69.8368 95.385C69.7914 99.4717 70.9741 100.377 70.986 100.386C71.0576 100.438 71.0747 100.538 71.0238 100.61C70.9922 100.655 70.9423 100.679 70.8918 100.679Z" fill="#2C2E2B"/>
<path fill-rule="evenodd" clip-rule="evenodd" d="M71.7916 95.8684C71.7024 95.8684 71.6301 95.7962 71.6301 95.7071C71.6296 92.0447 70.1276 91.3952 70.1125 91.389C70.0302 91.356 69.9897 91.2625 70.022 91.1802C70.0548 91.0978 70.1473 91.0566 70.2298 91.0886C70.3001 91.1157 71.9524 91.7956 71.9531 95.7071C71.9531 95.7962 71.8808 95.8684 71.7916 95.8684Z" fill="#2C2E2B"/>
<path fill-rule="evenodd" clip-rule="evenodd" d="M62.0435 91.7335C61.9812 91.7335 61.9218 91.6973 61.8954 91.6365C61.3324 90.3465 60.5915 89.5142 59.6935 89.1626C58.686 88.7684 57.8223 89.1366 57.8136 89.1401C57.7324 89.176 57.637 89.1391 57.6009 89.0575C57.5649 88.9763 57.6017 88.8813 57.6829 88.8451C57.7227 88.8277 58.6698 88.4189 59.8046 88.8597C60.7885 89.242 61.5916 90.1329 62.1914 91.5077C62.2272 91.5894 62.1896 91.6844 62.1079 91.7199C62.087 91.729 62.0649 91.7335 62.0435 91.7335Z" fill="#2C2E2B"/>
<path fill-rule="evenodd" clip-rule="evenodd" d="M67.1511 98.4954L71.7778 109.189C71.7229 109.206 71.6951 109.213 71.6951 109.213C71.6367 109.31 71.5753 109.405 71.5132 109.499C69.1398 113.036 63.9486 113.503 62.7314 113.563C62.5649 113.57 62.4727 113.572 62.4727 113.572C62.4727 113.572 62.3495 113.585 62.189 113.561L60.0954 108.755C58.7484 108.681 57.6567 108.325 56.7674 107.803C53.9269 106.153 53.1544 102.85 52.8816 101.8C52.8088 101.522 52.6838 101.266 52.5131 101.037L52.2729 100.724C52.1047 100.501 51.9722 100.255 51.88 99.9928C49.6558 93.721 54.6353 91.4804 54.6353 91.4804C54.6353 91.4804 60.6646 88.2461 64.8423 95.7625C64.8423 95.7625 65.3279 93.2276 66.7975 93.8612C69.1948 94.8907 67.1511 98.4954 67.1511 98.4954Z" fill="#FFA29E"/>
<path fill-rule="evenodd" clip-rule="evenodd" d="M62.3556 113.323C62.4093 113.324 62.4453 113.321 62.446 113.321C62.4676 113.32 62.5573 113.318 62.7181 113.312C63.7418 113.261 68.9738 112.831 71.3046 109.357C71.3598 109.274 71.415 109.188 71.4681 109.101L66.9207 98.5899C66.8899 98.5187 66.8943 98.4371 66.9324 98.3696C66.9438 98.3495 68.0549 96.3607 67.6062 95.0324C67.4584 94.5943 67.161 94.2847 66.6971 94.0855C66.4476 93.9781 66.2287 93.9773 66.0279 94.083C65.4694 94.378 65.1573 95.4264 65.084 95.8055C65.0641 95.9079 64.9824 95.9873 64.8793 96.0037C64.7747 96.0195 64.6733 95.9702 64.6229 95.8791C60.6178 88.6734 54.988 91.5685 54.7505 91.6952C54.5408 91.7908 49.9933 93.9324 52.112 99.9062C52.1952 100.144 52.3153 100.367 52.4691 100.571L52.7081 100.882C52.9019 101.142 53.0398 101.428 53.1198 101.734L53.1469 101.839C53.4426 102.988 54.228 106.038 56.89 107.585C57.8156 108.128 58.8977 108.437 60.1067 108.504C60.2006 108.509 60.2834 108.567 60.3209 108.653L62.3556 113.323ZM62.3858 113.822C62.3272 113.822 62.2447 113.819 62.1517 113.805C62.0668 113.793 61.9945 113.737 61.9602 113.659L59.9272 108.992C58.6995 108.904 57.5946 108.576 56.6405 108.016C53.7998 106.365 52.9768 103.169 52.667 101.965L52.6404 101.861C52.5765 101.618 52.4665 101.39 52.3129 101.184L52.0746 100.874C51.8888 100.627 51.7447 100.358 51.6445 100.073C49.3706 93.6613 54.4806 91.276 54.5325 91.2527C54.5785 91.2274 60.5245 88.1475 64.7592 95.1252C64.9314 94.6209 65.2549 93.9335 65.7963 93.6472C66.1342 93.4683 66.5039 93.4633 66.895 93.632C67.4876 93.8866 67.8861 94.3056 68.0789 94.8772C68.5371 96.2359 67.67 98.0409 67.426 98.5058L72.005 109.089C72.0331 109.154 72.0321 109.228 72.0023 109.292C71.9734 109.354 71.9205 109.402 71.8557 109.423C71.8112 109.495 71.7655 109.565 71.7195 109.634C70.6789 111.185 69.0122 112.341 66.7646 113.069C64.9883 113.645 63.3603 113.779 62.7429 113.809C62.5709 113.817 62.4765 113.819 62.4765 113.819C62.479 113.819 62.4444 113.822 62.3858 113.822Z" fill="#2C2E2B"/>
<path fill-rule="evenodd" clip-rule="evenodd" d="M60.0932 109.001C59.9675 109.001 59.8596 108.906 59.8462 108.778C59.8323 108.642 59.9317 108.52 60.0678 108.506C60.0974 108.503 63.0092 108.184 64.1343 106.493C64.2098 106.379 64.3641 106.348 64.4786 106.424C64.5929 106.5 64.624 106.654 64.5482 106.768C63.2925 108.655 60.2477 108.986 60.1188 109C60.1101 109.001 60.1016 109.001 60.0932 109.001Z" fill="#2C2E2B"/>
<path fill-rule="evenodd" clip-rule="evenodd" d="M58.8861 99.6959C59.5577 99.6959 59.5587 98.6549 58.8861 98.6549C58.2145 98.6549 58.2135 99.6959 58.8861 99.6959Z" fill="#2C2E2B"/>
<path fill-rule="evenodd" clip-rule="evenodd" d="M53.9134 101.837C54.5848 101.837 54.586 100.796 53.9134 100.796C53.2418 100.796 53.2408 101.837 53.9134 101.837Z" fill="#2C2E2B"/>
<path fill-rule="evenodd" clip-rule="evenodd" d="M56.2576 103.153C56.1714 103.153 56.0887 103.136 56.0109 103.097C55.8235 103.001 55.7167 102.803 55.6936 102.508C55.6327 101.725 54.9042 99.8448 54.897 99.8259C54.8473 99.6982 54.9107 99.5545 55.0386 99.5049C55.1656 99.4548 55.3105 99.5186 55.3601 99.6463C55.3912 99.7262 56.1227 101.614 56.1893 102.469C56.1992 102.596 56.228 102.647 56.2375 102.655C56.3456 102.702 56.7968 102.427 56.9896 102.308C57.0716 102.258 57.1526 102.208 57.2296 102.164C57.3481 102.095 57.5004 102.136 57.569 102.254C57.6379 102.373 57.5974 102.525 57.4788 102.593C57.405 102.636 57.328 102.683 57.2497 102.731C56.9098 102.94 56.5612 103.153 56.2576 103.153Z" fill="#2C2E2B"/>
<path fill-rule="evenodd" clip-rule="evenodd" d="M51.8765 100.239C51.8392 100.239 51.8015 100.23 51.7657 100.213C51.6429 100.152 51.593 100.002 51.6544 99.8799C51.6616 99.866 52.3844 98.4671 54.1328 98.7415C54.2682 98.7628 54.3609 98.8898 54.3396 99.025C54.3182 99.1605 54.1907 99.2537 54.0556 99.2317C52.6579 99.0119 52.1043 100.091 52.0991 100.102C52.0556 100.189 51.9677 100.239 51.8765 100.239Z" fill="#2C2E2B"/>
<path fill-rule="evenodd" clip-rule="evenodd" d="M57.4996 97.7734C57.4343 97.7734 57.3692 97.7478 57.3202 97.697C57.2256 97.5982 57.2285 97.4419 57.3272 97.3469C57.3791 97.2971 58.6224 96.1259 60.471 96.4566C60.6062 96.4809 60.6962 96.6096 60.6718 96.7446C60.6475 96.8793 60.5192 96.9691 60.3833 96.945C58.7919 96.6602 57.6825 97.6945 57.6713 97.7049C57.6234 97.7506 57.5615 97.7734 57.4996 97.7734Z" fill="#2C2E2B"/>
<path fill-rule="evenodd" clip-rule="evenodd" d="M58.1705 105.391C57.7563 105.391 57.4611 105.313 57.4529 105.31C57.3207 105.274 57.2432 105.137 57.2797 105.005C57.3162 104.873 57.4527 104.796 57.5851 104.832C57.6621 104.853 59.4831 105.324 60.1398 103.503C60.1865 103.374 60.3294 103.308 60.4579 103.354C60.5871 103.4 60.6539 103.542 60.6075 103.671C60.0812 105.13 58.9271 105.391 58.1705 105.391Z" fill="#2C2E2B"/>
<path fill-rule="evenodd" clip-rule="evenodd" d="M66.5302 97.4327C66.4966 97.4327 66.4628 97.4223 66.4338 97.4007C66.3622 97.3474 66.3475 97.2464 66.4007 97.175C66.4049 97.1695 66.8318 96.5758 66.6894 95.6267C66.6616 95.4431 66.596 95.2097 66.439 95.1385C66.2837 95.0682 66.0685 95.1695 65.9984 95.2144C65.9237 95.2622 65.8235 95.2412 65.7753 95.1665C65.7269 95.0921 65.7477 94.9928 65.8223 94.9442C65.8382 94.9333 66.2216 94.6877 66.5704 94.8437C66.8037 94.9482 66.9511 95.1955 67.0087 95.5788C67.1722 96.6674 66.6807 97.3397 66.6596 97.368C66.6281 97.4104 66.5794 97.4327 66.5302 97.4327Z" fill="#2C2E2B"/>
<path fill-rule="evenodd" clip-rule="evenodd" d="M83.1325 107.214C81.1189 113.238 76.6425 118.411 70.3438 121.128C64.4959 123.65 58.1788 123.578 52.6832 121.421L52.6301 121.375C56.1692 117.433 62.1727 113.559 62.1727 113.559C62.1774 113.56 62.1824 113.56 62.1871 113.56C62.3479 113.584 62.4711 113.571 62.4711 113.571C62.4711 113.571 62.5636 113.569 62.7298 113.562C63.9468 113.502 69.138 113.035 71.5116 109.498C71.5737 109.405 71.6351 109.309 71.6935 109.212C71.6935 109.212 71.7213 109.205 71.7762 109.188C72.5189 108.98 78.1514 107.449 83.1325 107.214Z" fill="#8D7FF1"/>
<path fill-rule="evenodd" clip-rule="evenodd" d="M53.0428 121.291C58.6428 123.411 64.7409 123.273 70.2474 120.899C76.1138 118.369 80.6635 113.49 82.7804 107.479C77.8891 107.77 72.5229 109.236 71.857 109.422C71.8125 109.493 71.7668 109.564 71.7208 109.633C69.2568 113.305 63.8109 113.755 62.7442 113.808C62.5725 113.815 62.4781 113.817 62.4781 113.817C62.4821 113.817 62.3797 113.827 62.2361 113.814C61.5555 114.26 56.3285 117.738 53.0428 121.291ZM61.1639 123.282C58.2672 123.282 55.3681 122.739 52.593 121.65C52.5666 121.639 52.5425 121.625 52.5212 121.606L52.468 121.56C52.4176 121.517 52.3867 121.455 52.3825 121.389C52.3783 121.322 52.4009 121.257 52.4456 121.207C55.9662 117.285 61.9778 113.388 62.0382 113.349C62.0839 113.319 62.1384 113.306 62.1918 113.31C62.1977 113.31 62.2181 113.311 62.2238 113.312C62.3488 113.331 62.4465 113.322 62.4475 113.322C62.4686 113.321 62.5585 113.319 62.7193 113.312C63.743 113.261 68.9744 112.832 71.3058 109.358C71.3652 109.268 71.4246 109.176 71.4812 109.082C71.5145 109.027 71.5685 108.986 71.6311 108.97C71.6338 108.969 71.6584 108.963 71.7046 108.949C72.3437 108.769 78.0515 107.203 83.1215 106.964C83.2017 106.961 83.2815 106.997 83.3309 107.062C83.3804 107.127 83.3945 107.212 83.3687 107.29C81.2619 113.593 76.5507 118.719 70.4429 121.354C67.4645 122.639 64.3157 123.282 61.1639 123.282Z" fill="#2C2E2B"/>
<path d="M178.461 203.826C187.262 200.902 192.022 191.407 189.093 182.619C186.22 174 176.318 169.189 167.853 172.005C159.052 174.93 154.292 184.424 157.222 193.212C160.151 201.999 169.66 206.751 178.461 203.826Z" fill="#00C3B4" stroke="#2C2E2B" stroke-linecap="round"/>
<path fill-rule="evenodd" clip-rule="evenodd" d="M174.238 193.382C174.172 193.382 174.106 193.362 174.051 193.321L168.032 188.883C167.892 188.78 167.863 188.583 167.966 188.444C168.069 188.304 168.266 188.274 168.405 188.378L174.028 192.524L176.459 180.599C176.494 180.429 176.661 180.32 176.83 180.354C177 180.388 177.11 180.554 177.075 180.724L174.546 193.131C174.525 193.236 174.451 193.323 174.351 193.362C174.314 193.376 174.276 193.382 174.238 193.382Z" stroke="white"/>
<path fill-rule="evenodd" clip-rule="evenodd" d="M231.133 149.875L224.527 143.236C230.137 139.381 234.199 137.664 235.486 138.947C236.761 140.236 235.017 144.299 231.133 149.875Z" fill="#443D7A"/>
<path fill-rule="evenodd" clip-rule="evenodd" d="M225.222 143.296L231.074 149.178C235.269 143.064 235.954 140.043 235.174 139.254C234.792 138.875 232.949 138.062 225.222 143.296ZM231.21 150.311C231.199 150.313 231.187 150.314 231.175 150.315C231.043 150.327 230.914 150.279 230.821 150.186L224.215 143.547C224.122 143.453 224.075 143.324 224.088 143.193C224.1 143.062 224.17 142.943 224.278 142.868C230.474 138.611 234.352 137.185 235.803 138.632C237.247 140.09 235.799 143.957 231.501 150.126C231.433 150.224 231.328 150.291 231.21 150.311Z" fill="#2C2E2B"/>
<path fill-rule="evenodd" clip-rule="evenodd" d="M231.136 149.877C228.444 153.768 224.717 158.382 220.262 163.321C217.695 166.161 214.881 169.105 211.884 172.084C209.437 174.522 207.012 176.828 204.646 178.979C199.698 183.493 195.022 187.315 191.016 190.184L183.962 183.124C188.244 177.23 194.61 169.893 202.192 162.368C210.395 154.211 218.389 147.448 224.53 143.235L231.136 149.877Z" fill="#FB5C6E"/>
<path fill-rule="evenodd" clip-rule="evenodd" d="M184.545 183.077L191.064 189.601C195.079 186.702 199.663 182.923 204.347 178.65C206.744 176.471 209.174 174.156 211.571 171.768C214.557 168.8 217.37 165.857 219.933 163.021C224.221 158.268 227.888 153.749 230.561 149.926L224.478 143.809C218.195 148.162 210.21 155.019 202.506 162.681C195.362 169.771 188.998 176.999 184.545 183.077ZM191.091 190.62C190.952 190.644 190.807 190.601 190.702 190.496L183.648 183.437C183.494 183.283 183.474 183.039 183.602 182.863C188.091 176.685 194.582 169.295 201.879 162.053C209.745 154.231 217.909 147.239 224.279 142.868C224.456 142.749 224.694 142.769 224.846 142.922L231.452 149.564C231.603 149.716 231.624 149.953 231.503 150.129C228.792 154.046 225.02 158.71 220.593 163.617C218.019 166.465 215.195 169.419 212.198 172.398C209.792 174.796 207.352 177.12 204.946 179.307C200.118 183.712 195.391 187.597 191.276 190.544C191.219 190.584 191.156 190.61 191.091 190.62Z" fill="#2C2E2B"/>
<path fill-rule="evenodd" clip-rule="evenodd" d="M180.543 193.559L177.592 196.491L180.543 193.559Z" fill="white"/>
<path fill-rule="evenodd" clip-rule="evenodd" d="M177.666 196.926C177.528 196.949 177.382 196.908 177.276 196.801C177.103 196.628 177.104 196.347 177.278 196.174L180.228 193.241C180.402 193.069 180.684 193.069 180.857 193.243C181.03 193.416 181.03 193.697 180.856 193.87L177.904 196.803C177.837 196.87 177.753 196.911 177.666 196.926Z" fill="#2C2E2B"/>
<path fill-rule="evenodd" clip-rule="evenodd" d="M183.966 183.121L180.23 191.716C179.613 193.135 180.962 194.489 182.387 193.88L191.012 190.189L183.966 183.121Z" fill="#D2CCFA"/>
<path fill-rule="evenodd" clip-rule="evenodd" d="M184.113 183.896L180.638 191.891C180.385 192.472 180.586 192.971 180.858 193.244C181.211 193.597 181.717 193.682 182.212 193.47L190.235 190.037L184.113 183.896ZM182.035 194.443C181.369 194.555 180.71 194.355 180.228 193.872C179.619 193.26 179.463 192.366 179.822 191.539L183.558 182.944C183.617 182.809 183.738 182.712 183.883 182.685C184.036 182.659 184.177 182.703 184.281 182.808L191.327 189.876C191.431 189.98 191.476 190.129 191.449 190.273C191.42 190.418 191.323 190.539 191.188 190.597L182.562 194.287C182.388 194.362 182.211 194.413 182.035 194.443Z" fill="#2C2E2B"/>
<path fill-rule="evenodd" clip-rule="evenodd" d="M203.919 158.407C203.449 158.486 203.007 158.421 202.636 158.199C201.872 157.743 201.632 156.753 201.992 155.549C202.063 155.315 202.31 155.182 202.546 155.251C202.781 155.322 202.914 155.568 202.844 155.804C202.607 156.593 202.701 157.204 203.092 157.438C203.516 157.691 204.395 157.542 205.326 156.617C205.725 156.22 206.133 155.318 206.649 154.177C207.738 151.771 209.382 148.136 213.006 144.534C218.564 139.011 225.24 143.357 225.306 143.401C225.51 143.537 225.565 143.812 225.429 144.016C225.293 144.22 225.017 144.275 224.813 144.139C224.564 143.974 218.668 140.159 213.633 145.164C210.126 148.649 208.521 152.196 207.46 154.542C206.884 155.815 206.468 156.734 205.953 157.246C205.298 157.897 204.581 158.295 203.919 158.407Z" fill="#2C2E2B"/>
</svg>
